  0
SECTION
  2
HEADER
  9
$ACADVER
  1
AC1027
  9
$ACADMAINTVER
 70
105
  9
$DWGCODEPAGE
  3
ANSI_1252
  9
$LASTSAVEDBY
  1
ezdxf
  9
$REQUIREDVERSIONS
160
0
  9
$INSBASE
 10
0.0
 20
0.0
 30
0.0
  9
$EXTMIN
 10
1e+20
 20
1e+20
 30
1e+20
  9
$EXTMAX
 10
-1e+20
 20
-1e+20
 30
-1e+20
  9
$LIMMIN
 10
0.0
 20
0.0
  9
$LIMMAX
 10
420.0
 20
297.0
  9
$ORTHOMODE
 70
0
  9
$REGENMODE
 70
1
  9
$FILLMODE
 70
1
  9
$QTEXTMODE
 70
0
  9
$MIRRTEXT
 70
1
  9
$LTSCALE
 40
1.0
  9
$ATTMODE
 70
1
  9
$TEXTSIZE
 40
2.5
  9
$TRACEWID
 40
1.0
  9
$TEXTSTYLE
  7
Standard
  9
$CLAYER
  8
0
  9
$CELTYPE
  6
ByLayer
  9
$CECOLOR
 62
256
  9
$CELTSCALE
 40
1.0
  9
$DISPSILH
 70
0
  9
$DIMSCALE
 40
1.0
  9
$DIMASZ
 40
2.5
  9
$DIMEXO
 40
0.625
  9
$DIMDLI
 40
3.75
  9
$DIMRND
 40
0.0
  9
$DIMDLE
 40
0.0
  9
$DIMEXE
 40
1.25
  9
$DIMTP
 40
0.0
  9
$DIMTM
 40
0.0
  9
$DIMTXT
 40
2.5
  9
$DIMCEN
 40
2.5
  9
$DIMTSZ
 40
0.0
  9
$DIMTOL
 70
0
  9
$DIMLIM
 70
0
  9
$DIMTIH
 70
0
  9
$DIMTOH
 70
0
  9
$DIMSE1
 70
0
  9
$DIMSE2
 70
0
  9
$DIMTAD
 70
1
  9
$DIMZIN
 70
8
  9
$DIMBLK
  1

  9
$DIMASO
 70
1
  9
$DIMSHO
 70
1
  9
$DIMPOST
  1

  9
$DIMAPOST
  1

  9
$DIMALT
 70
0
  9
$DIMALTD
 70
3
  9
$DIMALTF
 40
0.03937007874
  9
$DIMLFAC
 40
1.0
  9
$DIMTOFL
 70
1
  9
$DIMTVP
 40
0.0
  9
$DIMTIX
 70
0
  9
$DIMSOXD
 70
0
  9
$DIMSAH
 70
0
  9
$DIMBLK1
  1

  9
$DIMBLK2
  1

  9
$DIMSTYLE
  2
ISO-25
  9
$DIMCLRD
 70
0
  9
$DIMCLRE
 70
0
  9
$DIMCLRT
 70
0
  9
$DIMTFAC
 40
1.0
  9
$DIMGAP
 40
0.625
  9
$DIMJUST
 70
0
  9
$DIMSD1
 70
0
  9
$DIMSD2
 70
0
  9
$DIMTOLJ
 70
0
  9
$DIMTZIN
 70
8
  9
$DIMALTZ
 70
0
  9
$DIMALTTZ
 70
0
  9
$DIMUPT
 70
0
  9
$DIMDEC
 70
2
  9
$DIMTDEC
 70
2
  9
$DIMALTU
 70
2
  9
$DIMALTTD
 70
3
  9
$DIMTXSTY
  7
Standard
  9
$DIMAUNIT
 70
0
  9
$DIMADEC
 70
0
  9
$DIMALTRND
 40
0.0
  9
$DIMAZIN
 70
0
  9
$DIMDSEP
 70
44
  9
$DIMATFIT
 70
3
  9
$DIMFRAC
 70
0
  9
$DIMLDRBLK
  1

  9
$DIMLUNIT
 70
2
  9
$DIMLWD
 70
-2
  9
$DIMLWE
 70
-2
  9
$DIMTMOVE
 70
0
  9
$DIMFXL
 40
1.0
  9
$DIMFXLON
 70
0
  9
$DIMJOGANG
 40
0.785398163397
  9
$DIMTFILL
 70
0
  9
$DIMTFILLCLR
 70
0
  9
$DIMARCSYM
 70
0
  9
$DIMLTYPE
  6

  9
$DIMLTEX1
  6

  9
$DIMLTEX2
  6

  9
$DIMTXTDIRECTION
 70
0
  9
$LUNITS
 70
2
  9
$LUPREC
 70
4
  9
$SKETCHINC
 40
1.0
  9
$FILLETRAD
 40
10.0
  9
$AUNITS
 70
0
  9
$AUPREC
 70
2
  9
$MENU
  1
.
  9
$ELEVATION
 40
0.0
  9
$PELEVATION
 40
0.0
  9
$THICKNESS
 40
0.0
  9
$LIMCHECK
 70
0
  9
$CHAMFERA
 40
0.0
  9
$CHAMFERB
 40
0.0
  9
$CHAMFERC
 40
0.0
  9
$CHAMFERD
 40
0.0
  9
$SKPOLY
 70
0
  9
$TDCREATE
 40
2460567.440127315
  9
$TDUCREATE
 40
2458532.153996898
  9
$TDUPDATE
 40
2460567.440127315
  9
$TDUUPDATE
 40
2458532.1544311
  9
$TDINDWG
 40
0.0
  9
$TDUSRTIMER
 40
0.0
  9
$USRTIMER
 70
1
  9
$ANGBASE
 50
0.0
  9
$ANGDIR
 70
0
  9
$PDMODE
 70
0
  9
$PDSIZE
 40
0.0
  9
$PLINEWID
 40
0.0
  9
$SPLFRAME
 70
0
  9
$SPLINETYPE
 70
6
  9
$SPLINESEGS
 70
8
  9
$HANDSEED
  5
A2
  9
$SURFTAB1
 70
6
  9
$SURFTAB2
 70
6
  9
$SURFTYPE
 70
6
  9
$SURFU
 70
6
  9
$SURFV
 70
6
  9
$UCSBASE
  2

  9
$UCSNAME
  2

  9
$UCSORG
 10
0.0
 20
0.0
 30
0.0
  9
$UCSXDIR
 10
1.0
 20
0.0
 30
0.0
  9
$UCSYDIR
 10
0.0
 20
1.0
 30
0.0
  9
$UCSORTHOREF
  2

  9
$UCSORTHOVIEW
 70
0
  9
$UCSORGTOP
 10
0.0
 20
0.0
 30
0.0
  9
$UCSORGBOTTOM
 10
0.0
 20
0.0
 30
0.0
  9
$UCSORGLEFT
 10
0.0
 20
0.0
 30
0.0
  9
$UCSORGRIGHT
 10
0.0
 20
0.0
 30
0.0
  9
$UCSORGFRONT
 10
0.0
 20
0.0
 30
0.0
  9
$UCSORGBACK
 10
0.0
 20
0.0
 30
0.0
  9
$PUCSBASE
  2

  9
$PUCSNAME
  2

  9
$PUCSORG
 10
0.0
 20
0.0
 30
0.0
  9
$PUCSXDIR
 10
1.0
 20
0.0
 30
0.0
  9
$PUCSYDIR
 10
0.0
 20
1.0
 30
0.0
  9
$PUCSORTHOREF
  2

  9
$PUCSORTHOVIEW
 70
0
  9
$PUCSORGTOP
 10
0.0
 20
0.0
 30
0.0
  9
$PUCSORGBOTTOM
 10
0.0
 20
0.0
 30
0.0
  9
$PUCSORGLEFT
 10
0.0
 20
0.0
 30
0.0
  9
$PUCSORGRIGHT
 10
0.0
 20
0.0
 30
0.0
  9
$PUCSORGFRONT
 10
0.0
 20
0.0
 30
0.0
  9
$PUCSORGBACK
 10
0.0
 20
0.0
 30
0.0
  9
$USERI1
 70
0
  9
$USERI2
 70
0
  9
$USERI3
 70
0
  9
$USERI4
 70
0
  9
$USERI5
 70
0
  9
$USERR1
 40
0.0
  9
$USERR2
 40
0.0
  9
$USERR3
 40
0.0
  9
$USERR4
 40
0.0
  9
$USERR5
 40
0.0
  9
$WORLDVIEW
 70
1
  9
$SHADEDGE
 70
3
  9
$SHADEDIF
 70
70
  9
$TILEMODE
 70
1
  9
$MAXACTVP
 70
64
  9
$PINSBASE
 10
0.0
 20
0.0
 30
0.0
  9
$PLIMCHECK
 70
0
  9
$PEXTMIN
 10
1e+20
 20
1e+20
 30
1e+20
  9
$PEXTMAX
 10
-1e+20
 20
-1e+20
 30
-1e+20
  9
$PLIMMIN
 10
0.0
 20
0.0
  9
$PLIMMAX
 10
420.0
 20
297.0
  9
$UNITMODE
 70
0
  9
$VISRETAIN
 70
1
  9
$PLINEGEN
 70
0
  9
$PSLTSCALE
 70
1
  9
$TREEDEPTH
 70
3020
  9
$CMLSTYLE
  2
Standard
  9
$CMLJUST
 70
0
  9
$CMLSCALE
 40
20.0
  9
$PROXYGRAPHICS
 70
1
  9
$MEASUREMENT
 70
1
  9
$CELWEIGHT
370
-1
  9
$ENDCAPS
280
0
  9
$JOINSTYLE
280
0
  9
$LWDISPLAY
290
0
  9
$INSUNITS
 70
6
  9
$HYPERLINKBASE
  1

  9
$STYLESHEET
  1

  9
$XEDIT
290
1
  9
$CEPSNTYPE
380
0
  9
$PSTYLEMODE
290
1
  9
$FINGERPRINTGUID
  2
{0F1D06EC-CBFF-4FAB-A31B-A64CA4ECDA0E}
  9
$VERSIONGUID
  2
{58AD54FA-F163-41B0-8669-E602ACCA8C72}
  9
$EXTNAMES
290
1
  9
$PSVPSCALE
 40
0.0
  9
$OLESTARTUP
290
0
  9
$SORTENTS
280
127
  9
$INDEXCTL
280
0
  9
$HIDETEXT
280
1
  9
$XCLIPFRAME
280
0
  9
$HALOGAP
280
0
  9
$OBSCOLOR
 70
257
  9
$OBSLTYPE
280
0
  9
$INTERSECTIONDISPLAY
280
0
  9
$INTERSECTIONCOLOR
 70
257
  9
$DIMASSOC
280
2
  9
$PROJECTNAME
  1

  9
$CAMERADISPLAY
290
0
  9
$LENSLENGTH
 40
50.0
  9
$CAMERAHEIGHT
 40
0.0
  9
$STEPSPERSEC
 40
24.0
  9
$STEPSIZE
 40
100.0
  9
$3DDWFPREC
 40
2.0
  9
$PSOLWIDTH
 40
0.005
  9
$PSOLHEIGHT
 40
0.08
  9
$LOFTANG1
 40
1.570796326795
  9
$LOFTANG2
 40
1.570796326795
  9
$LOFTMAG1
 40
0.0
  9
$LOFTMAG2
 40
0.0
  9
$LOFTPARAM
 70
7
  9
$LOFTNORMALS
280
1
  9
$LATITUDE
 40
37.795
  9
$LONGITUDE
 40
-122.394
  9
$NORTHDIRECTION
 40
0.0
  9
$TIMEZONE
 70
-8000
  9
$LIGHTGLYPHDISPLAY
280
1
  9
$TILEMODELIGHTSYNCH
280
1
  9
$CMATERIAL
347
20
  9
$SOLIDHIST
280
0
  9
$SHOWHIST
280
1
  9
$DWFFRAME
280
2
  9
$DGNFRAME
280
2
  9
$REALWORLDSCALE
290
1
  9
$INTERFERECOLOR
 62
256
  9
$CSHADOW
280
0
  9
$SHADOWPLANELOCATION
 40
0.0
  0
ENDSEC
  0
SECTION
  2
CLASSES
  0
CLASS
  1
ACDBDICTIONARYWDFLT
  2
AcDbDictionaryWithDefault
  3
ObjectDBX Classes
 90
0
 91
0
280
0
281
0
  0
CLASS
  1
SUN
  2
AcDbSun
  3
SCENEOE
 90
1153
 91
0
280
0
281
0
  0
CLASS
  1
VISUALSTYLE
  2
AcDbVisualStyle
  3
ObjectDBX Classes
 90
4095
 91
0
280
0
281
0
  0
CLASS
  1
MATERIAL
  2
AcDbMaterial
  3
ObjectDBX Classes
 90
1153
 91
0
280
0
281
0
  0
CLASS
  1
SCALE
  2
AcDbScale
  3
ObjectDBX Classes
 90
1153
 91
0
280
0
281
0
  0
CLASS
  1
TABLESTYLE
  2
AcDbTableStyle
  3
ObjectDBX Classes
 90
4095
 91
0
280
0
281
0
  0
CLASS
  1
MLEADERSTYLE
  2
AcDbMLeaderStyle
  3
ACDB_MLEADERSTYLE_CLASS
 90
4095
 91
0
280
0
281
0
  0
CLASS
  1
DICTIONARYVAR
  2
AcDbDictionaryVar
  3
ObjectDBX Classes
 90
0
 91
0
280
0
281
0
  0
CLASS
  1
CELLSTYLEMAP
  2
AcDbCellStyleMap
  3
ObjectDBX Classes
 90
1152
 91
0
280
0
281
0
  0
CLASS
  1
MENTALRAYRENDERSETTINGS
  2
AcDbMentalRayRenderSettings
  3
SCENEOE
 90
1024
 91
0
280
0
281
0
  0
CLASS
  1
ACDBDETAILVIEWSTYLE
  2
AcDbDetailViewStyle
  3
ObjectDBX Classes
 90
1025
 91
0
280
0
281
0
  0
CLASS
  1
ACDBSECTIONVIEWSTYLE
  2
AcDbSectionViewStyle
  3
ObjectDBX Classes
 90
1025
 91
0
280
0
281
0
  0
CLASS
  1
RASTERVARIABLES
  2
AcDbRasterVariables
  3
ISM
 90
0
 91
0
280
0
281
0
  0
CLASS
  1
LAYOUT
  2
AcDbLayout
  3
ObjectDBX Classes
 90
0
 91
0
280
0
281
0
  0
CLASS
  1
ACDBPLACEHOLDER
  2
AcDbPlaceHolder
  3
ObjectDBX Classes
 90
0
 91
0
280
0
281
0
  0
ENDSEC
  0
SECTION
  2
TABLES
  0
TABLE
  2
VPORT
  5
8
330
0
100
AcDbSymbolTable
 70
1
  0
VPORT
  5
23
330
8
100
AcDbSymbolTableRecord
100
AcDbViewportTableRecord
  2
*Active
 70
0
 10
0.0
 20
0.0
 11
1.0
 21
1.0
 12
0.0
 22
0.0
 13
0.0
 23
0.0
 14
0.5
 24
0.5
 15
0.5
 25
0.5
 16
0.0
 26
0.0
 36
1.0
 17
0.0
 27
0.0
 37
0.0
 40
1000.0
 41
1.34
 42
50.0
 43
0.0
 44
0.0
 50
0.0
 51
0.0
 71
0
 72
1000
 73
1
 74
3
 75
0
 76
0
 77
0
 78
0
281
0
 65
0
146
0.0
  0
ENDTAB
  0
TABLE
  2
LTYPE
  5
2
330
0
100
AcDbSymbolTable
 70
3
  0
LTYPE
  5
24
330
2
100
AcDbSymbolTableRecord
100
AcDbLinetypeTableRecord
  2
ByBlock
 70
0
  3

 72
65
 73
0
 40
0.0
  0
LTYPE
  5
25
330
2
100
AcDbSymbolTableRecord
100
AcDbLinetypeTableRecord
  2
ByLayer
 70
0
  3

 72
65
 73
0
 40
0.0
  0
LTYPE
  5
26
330
2
100
AcDbSymbolTableRecord
100
AcDbLinetypeTableRecord
  2
Continuous
 70
0
  3

 72
65
 73
0
 40
0.0
  0
ENDTAB
  0
TABLE
  2
LAYER
  5
1
330
0
100
AcDbSymbolTable
 70
5
  0
LAYER
  5
27
330
1
100
AcDbSymbolTableRecord
100
AcDbLayerTableRecord
  2
0
 70
0
 62
7
  6
Continuous
370
-3
390
13
347
21
  0
LAYER
  5
28
330
1
100
AcDbSymbolTableRecord
100
AcDbLayerTableRecord
  2
Defpoints
 70
0
 62
7
  6
Continuous
290
0
370
-3
390
13
347
21
  0
LAYER
  5
2F
330
1
100
AcDbSymbolTableRecord
100
AcDbLayerTableRecord
  2
Poros
 70
0
 62
7
  6
Continuous
370
-3
390
13
347
21
  0
LAYER
  5
30
330
1
100
AcDbSymbolTableRecord
100
AcDbLayerTableRecord
  2
Aridos
 70
0
 62
7
  6
Continuous
370
-3
390
13
347
21
  0
LAYER
  5
31
330
1
100
AcDbSymbolTableRecord
100
AcDbLayerTableRecord
  2
Ptos_reactivos
 70
0
 62
7
  6
Continuous
370
-3
390
13
347
21
  0
ENDTAB
  0
TABLE
  2
STYLE
  5
5
330
0
100
AcDbSymbolTable
 70
1
  0
STYLE
  5
29
330
5
100
AcDbSymbolTableRecord
100
AcDbTextStyleTableRecord
  2
Standard
 70
0
 40
0.0
 41
1.0
 50
0.0
 71
0
 42
2.5
  3
txt
  4

  0
ENDTAB
  0
TABLE
  2
VIEW
  5
7
330
0
100
AcDbSymbolTable
 70
0
  0
ENDTAB
  0
TABLE
  2
UCS
  5
6
330
0
100
AcDbSymbolTable
 70
0
  0
ENDTAB
  0
TABLE
  2
APPID
  5
3
330
0
100
AcDbSymbolTable
 70
3
  0
APPID
  5
2A
330
3
100
AcDbSymbolTableRecord
100
AcDbRegAppTableRecord
  2
ACAD
 70
0
  0
APPID
  5
9F
330
3
100
AcDbSymbolTableRecord
100
AcDbRegAppTableRecord
  2
HATCHBACKGROUNDCOLOR
 70
0
  0
APPID
  5
A0
330
3
100
AcDbSymbolTableRecord
100
AcDbRegAppTableRecord
  2
EZDXF
 70
0
  0
ENDTAB
  0
TABLE
  2
DIMSTYLE
  5
4
330
0
100
AcDbSymbolTable
 70
1
100
AcDbDimStyleTable
  0
DIMSTYLE
105
2B
330
4
100
AcDbSymbolTableRecord
100
AcDbDimStyleTableRecord
  2
Standard
 70
0
 40
1.0
 41
2.5
 42
0.625
 43
3.75
 44
1.25
 45
0.0
 46
0.0
 47
0.0
 48
0.0
 49
2.5
140
2.5
141
2.5
142
0.0
143
0.03937007874
144
1.0
145
0.0
146
1.0
147
0.625
148
0.0
 69
0
 70
0
 71
0
 72
0
 73
0
 74
0
 75
0
 76
0
 77
1
 78
8
 79
3
170
0
171
3
172
1
173
0
174
0
175
0
176
0
177
0
178
0
179
2
271
2
272
2
273
2
274
3
275
0
276
0
277
2
278
44
279
0
280
0
281
0
282
0
283
0
284
8
285
0
286
0
288
0
289
3
290
0
371
-2
372
-2
  0
ENDTAB
  0
TABLE
  2
BLOCK_RECORD
  5
9
330
0
100
AcDbSymbolTable
 70
2
  0
BLOCK_RECORD
  5
17
330
9
100
AcDbSymbolTableRecord
100
AcDbBlockTableRecord
  2
*Model_Space
340
1A
 70
0
280
1
281
0
  0
BLOCK_RECORD
  5
1B
330
9
100
AcDbSymbolTableRecord
100
AcDbBlockTableRecord
  2
*Paper_Space
340
1E
 70
0
280
1
281
0
  0
ENDTAB
  0
ENDSEC
  0
SECTION
  2
BLOCKS
  0
BLOCK
  5
18
330
17
100
AcDbEntity
  8
0
100
AcDbBlockBegin
  2
*Model_Space
 70
0
 10
0.0
 20
0.0
 30
0.0
  3
*Model_Space
  1

  0
ENDBLK
  5
19
330
17
100
AcDbEntity
  8
0
100
AcDbBlockEnd
  0
BLOCK
  5
1C
330
1B
100
AcDbEntity
  8
0
100
AcDbBlockBegin
  2
*Paper_Space
 70
0
 10
0.0
 20
0.0
 30
0.0
  3
*Paper_Space
  1

  0
ENDBLK
  5
1D
330
1B
100
AcDbEntity
  8
0
100
AcDbBlockEnd
  0
ENDSEC
  0
SECTION
  2
ENTITIES
  0
CIRCLE
  5
32
330
17
100
AcDbEntity
  8
Poros
100
AcDbCircle
 10
44.190689647931784
 20
12.299957168622008
 30
0.0
 40
1.3930908295145923
  0
CIRCLE
  5
33
330
17
100
AcDbEntity
  8
Poros
100
AcDbCircle
 10
19.327151129443102
 20
70.03300492850748
 30
0.0
 40
1.4456778442570792
  0
CIRCLE
  5
34
330
17
100
AcDbEntity
  8
Poros
100
AcDbCircle
 10
35.07369575580121
 20
34.96371826149126
 30
0.0
 40
1.4420665370700025
  0
CIRCLE
  5
35
330
17
100
AcDbEntity
  8
Poros
100
AcDbCircle
 10
45.04881319607263
 20
5.170581856051387
 30
0.0
 40
1.174254312399817
  0
CIRCLE
  5
36
330
17
100
AcDbEntity
  8
Poros
100
AcDbCircle
 10
69.6550080656757
 20
14.385869311790966
 30
0.0
 40
1.3644941216475313
  0
CIRCLE
  5
37
330
17
100
AcDbEntity
  8
Poros
100
AcDbCircle
 10
38.30504281912848
 20
16.304698543232405
 30
0.0
 40
1.032566550966945
  0
CIRCLE
  5
38
330
17
100
AcDbEntity
  8
Poros
100
AcDbCircle
 10
51.94499405309984
 20
64.26348499157038
 30
0.0
 40
1.1722794078232588
  0
CIRCLE
  5
39
330
17
100
AcDbEntity
  8
Poros
100
AcDbCircle
 10
28.585364750192273
 20
35.523285670244434
 30
0.0
 40
1.599603481605512
  0
CIRCLE
  5
3A
330
17
100
AcDbEntity
  8
Poros
100
AcDbCircle
 10
17.253565295472
 20
9.211876829572132
 30
0.0
 40
1.1763314999050802
  0
CIRCLE
  5
3B
330
17
100
AcDbEntity
  8
Poros
100
AcDbCircle
 10
71.54171817807975
 20
52.09671016091175
 30
0.0
 40
1.9912010635006006
  0
CIRCLE
  5
3C
330
17
100
AcDbEntity
  8
Poros
100
AcDbCircle
 10
63.69924836071218
 20
7.004792312095012
 30
0.0
 40
1.3392392108436546
  0
CIRCLE
  5
3D
330
17
100
AcDbEntity
  8
Poros
100
AcDbCircle
 10
11.387315306113619
 20
63.6661625705956
 30
0.0
 40
1.0734709339391393
  0
CIRCLE
  5
3E
330
17
100
AcDbEntity
  8
Poros
100
AcDbCircle
 10
46.030295751427516
 20
1.999790233030743
 30
0.0
 40
1.9456659434785815
  0
CIRCLE
  5
3F
330
17
100
AcDbEntity
  8
Poros
100
AcDbCircle
 10
14.69929164077253
 20
47.99488972548428
 30
0.0
 40
1.1369177913046813
  0
CIRCLE
  5
40
330
17
100
AcDbEntity
  8
Poros
100
AcDbCircle
 10
28.59777625090772
 20
49.17515051210043
 30
0.0
 40
1.5430509814683262
  0
CIRCLE
  5
41
330
17
100
AcDbEntity
  8
Poros
100
AcDbCircle
 10
41.0482704177739
 20
14.868279950648104
 30
0.0
 40
1.6752275216795454
  0
CIRCLE
  5
42
330
17
100
AcDbEntity
  8
Poros
100
AcDbCircle
 10
6.109552051015996
 20
23.874857972401443
 30
0.0
 40
1.1502153378931956
  0
CIRCLE
  5
43
330
17
100
AcDbEntity
  8
Poros
100
AcDbCircle
 10
72.98097057739814
 20
13.85111269234277
 30
0.0
 40
1.4331327358364325
  0
CIRCLE
  5
44
330
17
100
AcDbEntity
  8
Aridos
100
AcDbCircle
 10
65.4422493623088
 20
56.70952828954531
 30
0.0
 40
5.550655682786752
  0
CIRCLE
  5
45
330
17
100
AcDbEntity
  8
Aridos
100
AcDbCircle
 10
22.439912735668408
 20
13.969238956091342
 30
0.0
 40
5.766279964275652
  0
CIRCLE
  5
46
330
17
100
AcDbEntity
  8
Aridos
100
AcDbCircle
 10
35.87642116086887
 20
23.17426496242557
 30
0.0
 40
5.514771503906438
  0
CIRCLE
  5
47
330
17
100
AcDbEntity
  8
Aridos
100
AcDbCircle
 10
69.0435196865004
 20
68.84592635434694
 30
0.0
 40
5.591787085872112
  0
CIRCLE
  5
48
330
17
100
AcDbEntity
  8
Aridos
100
AcDbCircle
 10
6.736870765774899
 20
50.955268077689325
 30
0.0
 40
5.927186936169509
  0
CIRCLE
  5
49
330
17
100
AcDbEntity
  8
Aridos
100
AcDbCircle
 10
49.956286267787355
 20
28.92383698230492
 30
0.0
 40
4.519054795552152
  0
CIRCLE
  5
4A
330
17
100
AcDbEntity
  8
Aridos
100
AcDbCircle
 10
7.054370530322848
 20
34.392567977693986
 30
0.0
 40
5.120381548179785
  0
CIRCLE
  5
4B
330
17
100
AcDbEntity
  8
Aridos
100
AcDbCircle
 10
48.32562963100001
 20
44.62483042194109
 30
0.0
 40
4.5732191907
  0
CIRCLE
  5
4C
330
17
100
AcDbEntity
  8
Aridos
100
AcDbCircle
 10
62.92515573242584
 20
27.655750426682328
 30
0.0
 40
4.649892841981817
  0
CIRCLE
  5
4D
330
17
100
AcDbEntity
  8
Aridos
100
AcDbCircle
 10
36.93754731499324
 20
53.89665852282703
 30
0.0
 40
5.26209945865051
  0
CIRCLE
  5
4E
330
17
100
AcDbEntity
  8
Aridos
100
AcDbCircle
 10
27.04347040307544
 20
42.138175377841286
 30
0.0
 40
4.800371309001716
  0
CIRCLE
  5
4F
330
17
100
AcDbEntity
  8
Aridos
100
AcDbCircle
 10
17.327622736653005
 20
41.120282350149765
 30
0.0
 40
4.789338004560876
  0
CIRCLE
  5
50
330
17
100
AcDbEntity
  8
Aridos
100
AcDbCircle
 10
23.967014968351112
 20
54.76584756208912
 30
0.0
 40
3.752111880414953
  0
CIRCLE
  5
51
330
17
100
AcDbEntity
  8
Aridos
100
AcDbCircle
 10
61.03473500298776
 20
47.37467537500745
 30
0.0
 40
2.733070264673085
  0
CIRCLE
  5
52
330
17
100
AcDbEntity
  8
Aridos
100
AcDbCircle
 10
51.60781920838594
 20
7.129156296063191
 30
0.0
 40
3.9361986356714715
  0
CIRCLE
  5
53
330
17
100
AcDbEntity
  8
Aridos
100
AcDbCircle
 10
36.82334420855342
 20
39.45258279473125
 30
0.0
 40
2.0127720969094995
  0
CIRCLE
  5
54
330
17
100
AcDbEntity
  8
Aridos
100
AcDbCircle
 10
33.95989098088954
 20
10.602032410392281
 30
0.0
 40
2.28214413407927
  0
CIRCLE
  5
55
330
17
100
AcDbEntity
  8
Aridos
100
AcDbCircle
 10
38.05832061417947
 20
32.05610345917422
 30
0.0
 40
2.2773841799686165
  0
CIRCLE
  5
56
330
17
100
AcDbEntity
  8
Aridos
100
AcDbCircle
 10
40.23542728133925
 20
65.18131492273693
 30
0.0
 40
2.6191705717375755
  0
CIRCLE
  5
57
330
17
100
AcDbEntity
  8
Aridos
100
AcDbCircle
 10
63.251163710912905
 20
3.1020500715987054
 30
0.0
 40
2.0580907480972597
  0
CIRCLE
  5
58
330
17
100
AcDbEntity
  8
Aridos
100
AcDbCircle
 10
27.859708526643846
 20
69.94754837345687
 30
0.0
 40
3.8183028855879226
  0
CIRCLE
  5
59
330
17
100
AcDbEntity
  8
Aridos
100
AcDbCircle
 10
5.483386648406357
 20
63.54827719502367
 30
0.0
 40
2.8500873548865675
  0
CIRCLE
  5
5A
330
17
100
AcDbEntity
  8
Aridos
100
AcDbCircle
 10
48.337232302312515
 20
62.47695730608637
 30
0.0
 40
2.493757890982496
  0
CIRCLE
  5
5B
330
17
100
AcDbEntity
  8
Aridos
100
AcDbCircle
 10
61.74627805260539
 20
38.96127677063124
 30
0.0
 40
4.272948982098969
  0
CIRCLE
  5
5C
330
17
100
AcDbEntity
  8
Aridos
100
AcDbCircle
 10
50.27707923351384
 20
17.516441690237418
 30
0.0
 40
4.445867462537821
  0
CIRCLE
  5
5D
330
17
100
AcDbEntity
  8
Aridos
100
AcDbCircle
 10
71.51828539072541
 20
19.199895103541298
 30
0.0
 40
3.332006360265221
  0
CIRCLE
  5
5E
330
17
100
AcDbEntity
  8
Aridos
100
AcDbCircle
 10
31.573541722277092
 20
31.43534318101443
 30
0.0
 40
2.6478296234223895
  0
CIRCLE
  5
5F
330
17
100
AcDbEntity
  8
Aridos
100
AcDbCircle
 10
68.53186302933146
 20
7.434418263667575
 30
0.0
 40
3.4595315470632633
  0
CIRCLE
  5
60
330
17
100
AcDbEntity
  8
Aridos
100
AcDbCircle
 10
4.362346028748404
 20
13.044354868956368
 30
0.0
 40
2.8142266323340217
  0
CIRCLE
  5
61
330
17
100
AcDbEntity
  8
Aridos
100
AcDbCircle
 10
18.302492848486416
 20
24.885331509048868
 30
0.0
 40
4.222248284440773
  0
CIRCLE
  5
62
330
17
100
AcDbEntity
  8
Aridos
100
AcDbCircle
 10
24.458609865263856
 20
3.70478284290317
 30
0.0
 40
3.5660113168910623
  0
CIRCLE
  5
63
330
17
100
AcDbEntity
  8
Aridos
100
AcDbCircle
 10
11.675606791565182
 20
10.383481916461529
 30
0.0
 40
4.047184226444546
  0
CIRCLE
  5
64
330
17
100
AcDbEntity
  8
Aridos
100
AcDbCircle
 10
3.440842515387485
 20
69.50820683285197
 30
0.0
 40
3.368363550932404
  0
CIRCLE
  5
65
330
17
100
AcDbEntity
  8
Aridos
100
AcDbCircle
 10
11.863076350297638
 20
17.609543862179727
 30
0.0
 40
3.041780014834133
  0
CIRCLE
  5
66
330
17
100
AcDbEntity
  8
Aridos
100
AcDbCircle
 10
5.199815210124018
 20
4.293078297630693
 30
0.0
 40
3.8576179793640883
  0
CIRCLE
  5
67
330
17
100
AcDbEntity
  8
Aridos
100
AcDbCircle
 10
65.64135871792577
 20
15.92007923066793
 30
0.0
 40
2.923990952243976
  0
CIRCLE
  5
68
330
17
100
AcDbEntity
  8
Aridos
100
AcDbCircle
 10
28.753772861376888
 20
19.506972763257668
 30
0.0
 40
2.1879163598679794
  0
CIRCLE
  5
69
330
17
100
AcDbEntity
  8
Aridos
100
AcDbCircle
 10
17.883340271281675
 20
63.53224562099465
 30
0.0
 40
3.9379824461304085
  0
CIRCLE
  5
6A
330
17
100
AcDbEntity
  8
Aridos
100
AcDbCircle
 10
8.81450696852226
 20
26.41258720530574
 30
0.0
 40
2.5485231111068645
  0
CIRCLE
  5
6B
330
17
100
AcDbEntity
  8
Aridos
100
AcDbCircle
 10
56.64489817538638
 20
70.66569551606307
 30
0.0
 40
2.1983553171350843
  0
CIRCLE
  5
6C
330
17
100
AcDbEntity
  8
Aridos
100
AcDbCircle
 10
23.01172853347999
 20
31.929183686488894
 30
0.0
 40
3.2169513038579316
  0
CIRCLE
  5
6D
330
17
100
AcDbEntity
  8
Aridos
100
AcDbCircle
 10
72.39530235540128
 20
43.34296583993915
 30
0.0
 40
2.384184755000017
  0
CIRCLE
  5
6E
330
17
100
AcDbEntity
  8
Aridos
100
AcDbCircle
 10
53.31418020014585
 20
37.121389923582115
 30
0.0
 40
4.071162833131156
  0
CIRCLE
  5
6F
330
17
100
AcDbEntity
  8
Aridos
100
AcDbCircle
 10
35.13970227178032
 20
4.912341823272301
 30
0.0
 40
2.4784214198449934
  0
CIRCLE
  5
70
330
17
100
AcDbEntity
  8
Aridos
100
AcDbCircle
 10
71.16138307883125
 20
33.973628379798015
 30
0.0
 40
2.676022384375877
  0
CIRCLE
  5
71
330
17
100
AcDbEntity
  8
Aridos
100
AcDbCircle
 10
47.77394473519737
 20
69.04708506992534
 30
0.0
 40
3.402586052837769
  0
CIRCLE
  5
72
330
17
100
AcDbEntity
  8
Aridos
100
AcDbCircle
 10
50.2755028530382
 20
55.23514061334049
 30
0.0
 40
4.25595097473015
  0
CIRCLE
  5
73
330
17
100
AcDbEntity
  8
Aridos
100
AcDbCircle
 10
58.43509517174323
 20
14.561259575503385
 30
0.0
 40
4.129470854407728
  0
CIRCLE
  5
74
330
17
100
AcDbEntity
  8
Aridos
100
AcDbCircle
 10
18.734872892536348
 20
50.42459722711792
 30
0.0
 40
3.0452049014654907
  0
CIRCLE
  5
75
330
17
100
AcDbEntity
  8
Aridos
100
AcDbCircle
 10
35.77385209508773
 20
70.3304820721931
 30
0.0
 40
2.9836906714594966
  0
CIRCLE
  5
76
330
17
100
AcDbEntity
  8
Aridos
100
AcDbCircle
 10
40.28496044925628
 20
10.716655583715065
 30
0.0
 40
2.040551283293607
  0
CIRCLE
  5
77
330
17
100
AcDbEntity
  8
Aridos
100
AcDbCircle
 10
55.41580821319837
 20
49.98862307465785
 30
0.0
 40
2.7480334296113162
  0
CIRCLE
  5
78
330
17
100
AcDbEntity
  8
Aridos
100
AcDbCircle
 10
55.436487043879616
 20
61.787320561407775
 30
0.0
 40
2.8844455468195225
  0
CIRCLE
  5
79
330
17
100
AcDbEntity
  8
Aridos
100
AcDbCircle
 10
11.970912160547268
 20
69.56801983466895
 30
0.0
 40
4.233756663503171
  0
CIRCLE
  5
7A
330
17
100
AcDbEntity
  8
Aridos
100
AcDbCircle
 10
43.53971261794801
 20
36.50747387405026
 30
0.0
 40
3.9653414235024638
  0
CIRCLE
  5
7B
330
17
100
AcDbEntity
  8
Aridos
100
AcDbCircle
 10
71.03132708593327
 20
25.838020710945372
 30
0.0
 40
2.4544254142947257
  0
CIRCLE
  5
7C
330
17
100
AcDbEntity
  8
Aridos
100
AcDbCircle
 10
57.546298035367016
 20
5.842445708492266
 30
0.0
 40
1.8840256047591022
  0
CIRCLE
  5
7D
330
17
100
AcDbEntity
  8
Aridos
100
AcDbCircle
 10
41.01485324251853
 20
6.499395669686758
 30
0.0
 40
1.718792267846751
  0
CIRCLE
  5
7E
330
17
100
AcDbEntity
  8
Aridos
100
AcDbCircle
 10
35.67223390701854
 20
14.729765726605018
 30
0.0
 40
1.671881300118673
  0
CIRCLE
  5
7F
330
17
100
AcDbEntity
  8
Aridos
100
AcDbCircle
 10
39.783472920479
 20
46.617746474005756
 30
0.0
 40
1.2565636326383385
  0
CIRCLE
  5
80
330
17
100
AcDbEntity
  8
Aridos
100
AcDbCircle
 10
14.261117961901606
 20
29.79310806185789
 30
0.0
 40
1.4308018224639436
  0
CIRCLE
  5
81
330
17
100
AcDbEntity
  8
Aridos
100
AcDbCircle
 10
12.815560370841242
 20
60.00312121254288
 30
0.0
 40
1.0164535764673208
  0
CIRCLE
  5
82
330
17
100
AcDbEntity
  8
Aridos
100
AcDbCircle
 10
44.754320527910714
 20
54.16740122478973
 30
0.0
 40
1.234993826734478
  0
CIRCLE
  5
83
330
17
100
AcDbEntity
  8
Aridos
100
AcDbCircle
 10
3.0564325683697104
 20
21.98874082457141
 30
0.0
 40
1.5111713111665135
  0
CIRCLE
  5
84
330
17
100
AcDbEntity
  8
Aridos
100
AcDbCircle
 10
44.035544428248954
 20
15.291510856601583
 30
0.0
 40
1.2920092404119057
  0
CIRCLE
  5
85
330
17
100
AcDbEntity
  8
Aridos
100
AcDbCircle
 10
14.771284334098686
 20
55.90945673853815
 30
0.0
 40
1.5018935081312759
  0
CIRCLE
  5
86
330
17
100
AcDbEntity
  8
Aridos
100
AcDbCircle
 10
55.07925283741491
 20
23.570655838294275
 30
0.0
 40
1.4982731299113143
  0
CIRCLE
  5
87
330
17
100
AcDbEntity
  8
Aridos
100
AcDbCircle
 10
41.79337821098202
 20
70.39510249662631
 30
0.0
 40
1.1037715241509942
  0
CIRCLE
  5
88
330
17
100
AcDbEntity
  8
Aridos
100
AcDbCircle
 10
58.934496855732526
 20
66.66701764014819
 30
0.0
 40
1.4464431154191333
  0
CIRCLE
  5
89
330
17
100
AcDbEntity
  8
Aridos
100
AcDbCircle
 10
13.384063074256403
 20
2.321792146027482
 30
0.0
 40
1.9691891684335365
  0
CIRCLE
  5
8A
330
17
100
AcDbEntity
  8
Aridos
100
AcDbCircle
 10
42.61887749058508
 20
58.6305570471743
 30
0.0
 40
1.7384711215708382
  0
CIRCLE
  5
8B
330
17
100
AcDbEntity
  8
Aridos
100
AcDbCircle
 10
58.18313479899476
 20
32.11241437205645
 30
0.0
 40
1.7195506077830376
  0
CIRCLE
  5
8C
330
17
100
AcDbEntity
  8
Aridos
100
AcDbCircle
 10
66.26720682981473
 20
46.58238922027167
 30
0.0
 40
1.893043386500937
  0
CIRCLE
  5
8D
330
17
100
AcDbEntity
  8
Aridos
100
AcDbCircle
 10
55.030770935878174
 20
44.25352687143305
 30
0.0
 40
1.9626746812565987
  0
CIRCLE
  5
8E
330
17
100
AcDbEntity
  8
Aridos
100
AcDbCircle
 10
56.828194116822864
 20
57.30228080381154
 30
0.0
 40
1.1970502278433983
  0
CIRCLE
  5
8F
330
17
100
AcDbEntity
  8
Aridos
100
AcDbCircle
 10
63.69873794027665
 20
21.072879382820105
 30
0.0
 40
1.7145899642194968
  0
CIRCLE
  5
90
330
17
100
AcDbEntity
  8
Aridos
100
AcDbCircle
 10
22.905224648571338
 20
36.612789981139564
 30
0.0
 40
1.161923939280378
  0
CIRCLE
  5
91
330
17
100
AcDbEntity
  8
Aridos
100
AcDbCircle
 10
24.343514566736875
 20
25.980285225867288
 30
0.0
 40
1.8662547717253928
  0
CIRCLE
  5
92
330
17
100
AcDbEntity
  8
Aridos
100
AcDbCircle
 10
44.46368998908507
 20
20.704377686264742
 30
0.0
 40
1.6238202472516101
  0
CIRCLE
  5
93
330
17
100
AcDbEntity
  8
Aridos
100
AcDbCircle
 10
30.14654167393196
 20
57.5114434236936
 30
0.0
 40
1.9594551235264692
  0
CIRCLE
  5
94
330
17
100
AcDbEntity
  8
Aridos
100
AcDbCircle
 10
27.469896957579593
 20
29.29293493403197
 30
0.0
 40
1.5241420422160412
  0
CIRCLE
  5
95
330
17
100
AcDbEntity
  8
Aridos
100
AcDbCircle
 10
29.874528842268585
 20
5.123570243266329
 30
0.0
 40
1.0364328781501015
  0
CIRCLE
  5
96
330
17
100
AcDbEntity
  8
Aridos
100
AcDbCircle
 10
34.307954757341136
 20
44.84311620244527
 30
0.0
 40
1.7268715785639464
  0
CIRCLE
  5
97
330
17
100
AcDbEntity
  8
Aridos
100
AcDbCircle
 10
26.67021768945853
 20
59.73927286948993
 30
0.0
 40
1.0039098438677776
  0
CIRCLE
  5
98
330
17
100
AcDbEntity
  8
Aridos
100
AcDbCircle
 10
31.221839965061953
 20
65.73478452489546
 30
0.0
 40
1.050294001174727
  0
CIRCLE
  5
99
330
17
100
AcDbEntity
  8
Aridos
100
AcDbCircle
 10
35.23695377697815
 20
63.04844887972359
 30
0.0
 40
1.9919923158752377
  0
CIRCLE
  5
9A
330
17
100
AcDbEntity
  8
Aridos
100
AcDbCircle
 10
67.9080044461418
 20
22.686846989124827
 30
0.0
 40
1.2122575003480613
  0
CIRCLE
  5
9B
330
17
100
AcDbEntity
  8
Aridos
100
AcDbCircle
 10
44.12421146327841
 20
50.41253516321645
 30
0.0
 40
1.9473706648743383
  0
CIRCLE
  5
9C
330
17
100
AcDbEntity
  8
Aridos
100
AcDbCircle
 10
41.02772716813216
 20
28.844682054208732
 30
0.0
 40
1.4515405488100233
  0
CIRCLE
  5
9D
330
17
100
AcDbEntity
  8
Aridos
100
AcDbCircle
 10
5.351328686533225
 20
18.469112108920072
 30
0.0
 40
1.6475014891424813
  0
CIRCLE
  5
9E
330
17
100
AcDbEntity
  8
Aridos
100
AcDbCircle
 10
59.794093530654706
 20
8.567686387771772
 30
0.0
 40
1.1021141858089494
  0
ENDSEC
  0
SECTION
  2
OBJECTS
  0
DICTIONARY
  5
A
330
0
100
AcDbDictionary
280
0
281
1
  3
ACAD_COLOR
350
B
  3
ACAD_GROUP
350
C
  3
ACAD_LAYOUT
350
D
  3
ACAD_MATERIAL
350
E
  3
ACAD_MLEADERSTYLE
350
F
  3
ACAD_MLINESTYLE
350
10
  3
ACAD_PLOTSETTINGS
350
11
  3
ACAD_PLOTSTYLENAME
350
12
  3
ACAD_SCALELIST
350
14
  3
ACAD_TABLESTYLE
350
15
  3
ACAD_VISUALSTYLE
350
16
  3
EZDXF_META
350
2D
  0
DICTIONARY
  5
B
330
A
100
AcDbDictionary
280
0
281
1
  0
DICTIONARY
  5
C
330
A
100
AcDbDictionary
280
0
281
1
  0
DICTIONARY
  5
D
330
A
100
AcDbDictionary
280
0
281
1
  3
Model
350
1A
  3
Layout1
350
1E
  0
DICTIONARY
  5
E
330
A
100
AcDbDictionary
280
0
281
1
  3
ByBlock
350
1F
  3
ByLayer
350
20
  3
Global
350
21
  0
DICTIONARY
  5
F
330
A
100
AcDbDictionary
280
0
281
1
  3
Standard
350
2C
  0
DICTIONARY
  5
10
330
A
100
AcDbDictionary
280
0
281
1
  3
Standard
350
22
  0
DICTIONARY
  5
11
330
A
100
AcDbDictionary
280
0
281
1
  0
ACDBDICTIONARYWDFLT
  5
12
330
A
100
AcDbDictionary
280
0
281
1
  3
Normal
350
13
100
AcDbDictionaryWithDefault
340
13
  0
ACDBPLACEHOLDER
  5
13
330
12
  0
DICTIONARY
  5
14
330
A
100
AcDbDictionary
280
0
281
1
  0
DICTIONARY
  5
15
330
A
100
AcDbDictionary
280
0
281
1
  0
DICTIONARY
  5
16
330
A
100
AcDbDictionary
280
0
281
1
  0
LAYOUT
  5
1A
330
D
100
AcDbPlotSettings
  1

  2
Adobe PDF
  4
A3
  6

 40
7.5
 41
20.0
 42
7.5
 43
20.0
 44
420.0
 45
297.0
 46
0.0
 47
0.0
 48
0.0
 49
0.0
140
0.0
141
0.0
142
1.0
143
1.0
 70
1024
 72
1
 73
0
 74
5
  7

 75
16
 76
0
 77
2
 78
300
147
1.0
148
0.0
149
0.0
100
AcDbLayout
  1
Model
 70
1
 71
0
 10
0.0
 20
0.0
 11
420.0
 21
297.0
 12
0.0
 22
0.0
 32
0.0
 14
1e+20
 24
1e+20
 34
1e+20
 15
-1e+20
 25
-1e+20
 35
-1e+20
146
0.0
 13
0.0
 23
0.0
 33
0.0
 16
1.0
 26
0.0
 36
0.0
 17
0.0
 27
1.0
 37
0.0
 76
1
330
17
  0
LAYOUT
  5
1E
330
D
100
AcDbPlotSettings
  1

  2
Adobe PDF
  4
A3
  6

 40
7.5
 41
20.0
 42
7.5
 43
20.0
 44
420.0
 45
297.0
 46
0.0
 47
0.0
 48
0.0
 49
0.0
140
0.0
141
0.0
142
1.0
143
1.0
 70
0
 72
1
 73
0
 74
5
  7

 75
16
 76
0
 77
2
 78
300
147
1.0
148
0.0
149
0.0
100
AcDbLayout
  1
Layout1
 70
1
 71
1
 10
0.0
 20
0.0
 11
420.0
 21
297.0
 12
0.0
 22
0.0
 32
0.0
 14
1e+20
 24
1e+20
 34
1e+20
 15
-1e+20
 25
-1e+20
 35
-1e+20
146
0.0
 13
0.0
 23
0.0
 33
0.0
 16
1.0
 26
0.0
 36
0.0
 17
0.0
 27
1.0
 37
0.0
 76
1
330
1B
  0
MATERIAL
  5
1F
102
{ACAD_REACTORS
330
E
102
}
330
E
100
AcDbMaterial
  1
ByBlock
  2

 70
0
 40
1.0
 71
1
 41
1.0
 91
-1023410177
 42
1.0
 72
1
  3

 73
1
 74
1
 75
1
 44
0.5
 73
0
 45
1.0
 46
1.0
 77
1
  4

 78
1
 79
1
170
1
 48
1.0
171
1
  6

172
1
173
1
174
1
140
1.0
141
1.0
175
1
  7

176
1
177
1
178
1
143
1.0
179
1
  8

270
1
271
1
272
1
145
1.0
146
1.0
273
1
  9

274
1
275
1
276
1
 42
1.0
 72
1
  3

 73
1
 74
1
 75
1
 94
63
  0
MATERIAL
  5
20
102
{ACAD_REACTORS
330
E
102
}
330
E
100
AcDbMaterial
  1
ByLayer
  2

 70
0
 40
1.0
 71
1
 41
1.0
 91
-1023410177
 42
1.0
 72
1
  3

 73
1
 74
1
 75
1
 44
0.5
 73
0
 45
1.0
 46
1.0
 77
1
  4

 78
1
 79
1
170
1
 48
1.0
171
1
  6

172
1
173
1
174
1
140
1.0
141
1.0
175
1
  7

176
1
177
1
178
1
143
1.0
179
1
  8

270
1
271
1
272
1
145
1.0
146
1.0
273
1
  9

274
1
275
1
276
1
 42
1.0
 72
1
  3

 73
1
 74
1
 75
1
 94
63
  0
MATERIAL
  5
21
102
{ACAD_REACTORS
330
E
102
}
330
E
100
AcDbMaterial
  1
Global
  2

 70
0
 40
1.0
 71
1
 41
1.0
 91
-1023410177
 42
1.0
 72
1
  3

 73
1
 74
1
 75
1
 44
0.5
 73
0
 45
1.0
 46
1.0
 77
1
  4

 78
1
 79
1
170
1
 48
1.0
171
1
  6

172
1
173
1
174
1
140
1.0
141
1.0
175
1
  7

176
1
177
1
178
1
143
1.0
179
1
  8

270
1
271
1
272
1
145
1.0
146
1.0
273
1
  9

274
1
275
1
276
1
 42
1.0
 72
1
  3

 73
1
 74
1
 75
1
 94
63
  0
MLINESTYLE
  5
22
102
{ACAD_REACTORS
330
10
102
}
330
10
100
AcDbMlineStyle
  2
Standard
 70
0
  3

 62
256
 51
90.0
 52
90.0
 71
2
 49
0.5
 62
256
  6
BYLAYER
 49
-0.5
 62
256
  6
BYLAYER
  0
MLEADERSTYLE
  5
2C
102
{ACAD_REACTORS
330
F
102
}
330
F
100
AcDbMLeaderStyle
179
2
170
2
171
1
172
0
 90
2
 40
0.0
 41
0.0
173
1
 91
-1056964608
 92
-2
290
1
 42
2.0
291
1
 43
8.0
  3
Standard
 44
4.0
300

342
29
174
1
175
1
176
0
178
1
 93
-1056964608
 45
4.0
292
0
297
0
 46
4.0
 94
-1056964608
 47
1.0
 49
1.0
140
1.0
294
1
141
0.0
177
0
142
1.0
295
0
296
0
143
3.75
271
0
272
9
273
9
  0
DICTIONARY
  5
2D
330
A
100
AcDbDictionary
281
1
  3
CREATED_BY_EZDXF
350
2E
  3
WRITTEN_BY_EZDXF
350
A1
  0
DICTIONARYVAR
  5
2E
330
2D
100
DictionaryVariables
280
0
  1
1.0.3 @ 2024-09-13T08:33:47.326014+00:00
  0
DICTIONARYVAR
  5
A1
330
2D
100
DictionaryVariables
280
0
  1
1.0.3 @ 2024-09-13T08:33:47.349000+00:00
  0
ENDSEC
  0
EOF
