  0
SECTION
  2
HEADER
  9
$ACADVER
  1
AC1027
  9
$ACADMAINTVER
 70
105
  9
$DWGCODEPAGE
  3
ANSI_1252
  9
$LASTSAVEDBY
  1
ezdxf
  9
$REQUIREDVERSIONS
160
0
  9
$INSBASE
 10
0.0
 20
0.0
 30
0.0
  9
$EXTMIN
 10
1e+20
 20
1e+20
 30
1e+20
  9
$EXTMAX
 10
-1e+20
 20
-1e+20
 30
-1e+20
  9
$LIMMIN
 10
0.0
 20
0.0
  9
$LIMMAX
 10
420.0
 20
297.0
  9
$ORTHOMODE
 70
0
  9
$REGENMODE
 70
1
  9
$FILLMODE
 70
1
  9
$QTEXTMODE
 70
0
  9
$MIRRTEXT
 70
1
  9
$LTSCALE
 40
1.0
  9
$ATTMODE
 70
1
  9
$TEXTSIZE
 40
2.5
  9
$TRACEWID
 40
1.0
  9
$TEXTSTYLE
  7
Standard
  9
$CLAYER
  8
0
  9
$CELTYPE
  6
ByLayer
  9
$CECOLOR
 62
256
  9
$CELTSCALE
 40
1.0
  9
$DISPSILH
 70
0
  9
$DIMSCALE
 40
1.0
  9
$DIMASZ
 40
2.5
  9
$DIMEXO
 40
0.625
  9
$DIMDLI
 40
3.75
  9
$DIMRND
 40
0.0
  9
$DIMDLE
 40
0.0
  9
$DIMEXE
 40
1.25
  9
$DIMTP
 40
0.0
  9
$DIMTM
 40
0.0
  9
$DIMTXT
 40
2.5
  9
$DIMCEN
 40
2.5
  9
$DIMTSZ
 40
0.0
  9
$DIMTOL
 70
0
  9
$DIMLIM
 70
0
  9
$DIMTIH
 70
0
  9
$DIMTOH
 70
0
  9
$DIMSE1
 70
0
  9
$DIMSE2
 70
0
  9
$DIMTAD
 70
1
  9
$DIMZIN
 70
8
  9
$DIMBLK
  1

  9
$DIMASO
 70
1
  9
$DIMSHO
 70
1
  9
$DIMPOST
  1

  9
$DIMAPOST
  1

  9
$DIMALT
 70
0
  9
$DIMALTD
 70
3
  9
$DIMALTF
 40
0.03937007874
  9
$DIMLFAC
 40
1.0
  9
$DIMTOFL
 70
1
  9
$DIMTVP
 40
0.0
  9
$DIMTIX
 70
0
  9
$DIMSOXD
 70
0
  9
$DIMSAH
 70
0
  9
$DIMBLK1
  1

  9
$DIMBLK2
  1

  9
$DIMSTYLE
  2
ISO-25
  9
$DIMCLRD
 70
0
  9
$DIMCLRE
 70
0
  9
$DIMCLRT
 70
0
  9
$DIMTFAC
 40
1.0
  9
$DIMGAP
 40
0.625
  9
$DIMJUST
 70
0
  9
$DIMSD1
 70
0
  9
$DIMSD2
 70
0
  9
$DIMTOLJ
 70
0
  9
$DIMTZIN
 70
8
  9
$DIMALTZ
 70
0
  9
$DIMALTTZ
 70
0
  9
$DIMUPT
 70
0
  9
$DIMDEC
 70
2
  9
$DIMTDEC
 70
2
  9
$DIMALTU
 70
2
  9
$DIMALTTD
 70
3
  9
$DIMTXSTY
  7
Standard
  9
$DIMAUNIT
 70
0
  9
$DIMADEC
 70
0
  9
$DIMALTRND
 40
0.0
  9
$DIMAZIN
 70
0
  9
$DIMDSEP
 70
44
  9
$DIMATFIT
 70
3
  9
$DIMFRAC
 70
0
  9
$DIMLDRBLK
  1

  9
$DIMLUNIT
 70
2
  9
$DIMLWD
 70
-2
  9
$DIMLWE
 70
-2
  9
$DIMTMOVE
 70
0
  9
$DIMFXL
 40
1.0
  9
$DIMFXLON
 70
0
  9
$DIMJOGANG
 40
0.785398163397
  9
$DIMTFILL
 70
0
  9
$DIMTFILLCLR
 70
0
  9
$DIMARCSYM
 70
0
  9
$DIMLTYPE
  6

  9
$DIMLTEX1
  6

  9
$DIMLTEX2
  6

  9
$DIMTXTDIRECTION
 70
0
  9
$LUNITS
 70
2
  9
$LUPREC
 70
4
  9
$SKETCHINC
 40
1.0
  9
$FILLETRAD
 40
10.0
  9
$AUNITS
 70
0
  9
$AUPREC
 70
2
  9
$MENU
  1
.
  9
$ELEVATION
 40
0.0
  9
$PELEVATION
 40
0.0
  9
$THICKNESS
 40
0.0
  9
$LIMCHECK
 70
0
  9
$CHAMFERA
 40
0.0
  9
$CHAMFERB
 40
0.0
  9
$CHAMFERC
 40
0.0
  9
$CHAMFERD
 40
0.0
  9
$SKPOLY
 70
0
  9
$TDCREATE
 40
2460567.497349537
  9
$TDUCREATE
 40
2458532.153996898
  9
$TDUPDATE
 40
2460567.497349537
  9
$TDUUPDATE
 40
2458532.1544311
  9
$TDINDWG
 40
0.0
  9
$TDUSRTIMER
 40
0.0
  9
$USRTIMER
 70
1
  9
$ANGBASE
 50
0.0
  9
$ANGDIR
 70
0
  9
$PDMODE
 70
0
  9
$PDSIZE
 40
0.0
  9
$PLINEWID
 40
0.0
  9
$SPLFRAME
 70
0
  9
$SPLINETYPE
 70
6
  9
$SPLINESEGS
 70
8
  9
$HANDSEED
  5
3CA
  9
$SURFTAB1
 70
6
  9
$SURFTAB2
 70
6
  9
$SURFTYPE
 70
6
  9
$SURFU
 70
6
  9
$SURFV
 70
6
  9
$UCSBASE
  2

  9
$UCSNAME
  2

  9
$UCSORG
 10
0.0
 20
0.0
 30
0.0
  9
$UCSXDIR
 10
1.0
 20
0.0
 30
0.0
  9
$UCSYDIR
 10
0.0
 20
1.0
 30
0.0
  9
$UCSORTHOREF
  2

  9
$UCSORTHOVIEW
 70
0
  9
$UCSORGTOP
 10
0.0
 20
0.0
 30
0.0
  9
$UCSORGBOTTOM
 10
0.0
 20
0.0
 30
0.0
  9
$UCSORGLEFT
 10
0.0
 20
0.0
 30
0.0
  9
$UCSORGRIGHT
 10
0.0
 20
0.0
 30
0.0
  9
$UCSORGFRONT
 10
0.0
 20
0.0
 30
0.0
  9
$UCSORGBACK
 10
0.0
 20
0.0
 30
0.0
  9
$PUCSBASE
  2

  9
$PUCSNAME
  2

  9
$PUCSORG
 10
0.0
 20
0.0
 30
0.0
  9
$PUCSXDIR
 10
1.0
 20
0.0
 30
0.0
  9
$PUCSYDIR
 10
0.0
 20
1.0
 30
0.0
  9
$PUCSORTHOREF
  2

  9
$PUCSORTHOVIEW
 70
0
  9
$PUCSORGTOP
 10
0.0
 20
0.0
 30
0.0
  9
$PUCSORGBOTTOM
 10
0.0
 20
0.0
 30
0.0
  9
$PUCSORGLEFT
 10
0.0
 20
0.0
 30
0.0
  9
$PUCSORGRIGHT
 10
0.0
 20
0.0
 30
0.0
  9
$PUCSORGFRONT
 10
0.0
 20
0.0
 30
0.0
  9
$PUCSORGBACK
 10
0.0
 20
0.0
 30
0.0
  9
$USERI1
 70
0
  9
$USERI2
 70
0
  9
$USERI3
 70
0
  9
$USERI4
 70
0
  9
$USERI5
 70
0
  9
$USERR1
 40
0.0
  9
$USERR2
 40
0.0
  9
$USERR3
 40
0.0
  9
$USERR4
 40
0.0
  9
$USERR5
 40
0.0
  9
$WORLDVIEW
 70
1
  9
$SHADEDGE
 70
3
  9
$SHADEDIF
 70
70
  9
$TILEMODE
 70
1
  9
$MAXACTVP
 70
64
  9
$PINSBASE
 10
0.0
 20
0.0
 30
0.0
  9
$PLIMCHECK
 70
0
  9
$PEXTMIN
 10
1e+20
 20
1e+20
 30
1e+20
  9
$PEXTMAX
 10
-1e+20
 20
-1e+20
 30
-1e+20
  9
$PLIMMIN
 10
0.0
 20
0.0
  9
$PLIMMAX
 10
420.0
 20
297.0
  9
$UNITMODE
 70
0
  9
$VISRETAIN
 70
1
  9
$PLINEGEN
 70
0
  9
$PSLTSCALE
 70
1
  9
$TREEDEPTH
 70
3020
  9
$CMLSTYLE
  2
Standard
  9
$CMLJUST
 70
0
  9
$CMLSCALE
 40
20.0
  9
$PROXYGRAPHICS
 70
1
  9
$MEASUREMENT
 70
1
  9
$CELWEIGHT
370
-1
  9
$ENDCAPS
280
0
  9
$JOINSTYLE
280
0
  9
$LWDISPLAY
290
0
  9
$INSUNITS
 70
6
  9
$HYPERLINKBASE
  1

  9
$STYLESHEET
  1

  9
$XEDIT
290
1
  9
$CEPSNTYPE
380
0
  9
$PSTYLEMODE
290
1
  9
$FINGERPRINTGUID
  2
{353C786D-EA6D-4CDC-BC34-A61182E5856A}
  9
$VERSIONGUID
  2
{CCAA33CA-76DC-4E9B-84FA-CC5E8DE41683}
  9
$EXTNAMES
290
1
  9
$PSVPSCALE
 40
0.0
  9
$OLESTARTUP
290
0
  9
$SORTENTS
280
127
  9
$INDEXCTL
280
0
  9
$HIDETEXT
280
1
  9
$XCLIPFRAME
280
0
  9
$HALOGAP
280
0
  9
$OBSCOLOR
 70
257
  9
$OBSLTYPE
280
0
  9
$INTERSECTIONDISPLAY
280
0
  9
$INTERSECTIONCOLOR
 70
257
  9
$DIMASSOC
280
2
  9
$PROJECTNAME
  1

  9
$CAMERADISPLAY
290
0
  9
$LENSLENGTH
 40
50.0
  9
$CAMERAHEIGHT
 40
0.0
  9
$STEPSPERSEC
 40
24.0
  9
$STEPSIZE
 40
100.0
  9
$3DDWFPREC
 40
2.0
  9
$PSOLWIDTH
 40
0.005
  9
$PSOLHEIGHT
 40
0.08
  9
$LOFTANG1
 40
1.570796326795
  9
$LOFTANG2
 40
1.570796326795
  9
$LOFTMAG1
 40
0.0
  9
$LOFTMAG2
 40
0.0
  9
$LOFTPARAM
 70
7
  9
$LOFTNORMALS
280
1
  9
$LATITUDE
 40
37.795
  9
$LONGITUDE
 40
-122.394
  9
$NORTHDIRECTION
 40
0.0
  9
$TIMEZONE
 70
-8000
  9
$LIGHTGLYPHDISPLAY
280
1
  9
$TILEMODELIGHTSYNCH
280
1
  9
$CMATERIAL
347
20
  9
$SOLIDHIST
280
0
  9
$SHOWHIST
280
1
  9
$DWFFRAME
280
2
  9
$DGNFRAME
280
2
  9
$REALWORLDSCALE
290
1
  9
$INTERFERECOLOR
 62
256
  9
$CSHADOW
280
0
  9
$SHADOWPLANELOCATION
 40
0.0
  0
ENDSEC
  0
SECTION
  2
CLASSES
  0
CLASS
  1
ACDBDICTIONARYWDFLT
  2
AcDbDictionaryWithDefault
  3
ObjectDBX Classes
 90
0
 91
0
280
0
281
0
  0
CLASS
  1
SUN
  2
AcDbSun
  3
SCENEOE
 90
1153
 91
0
280
0
281
0
  0
CLASS
  1
VISUALSTYLE
  2
AcDbVisualStyle
  3
ObjectDBX Classes
 90
4095
 91
0
280
0
281
0
  0
CLASS
  1
MATERIAL
  2
AcDbMaterial
  3
ObjectDBX Classes
 90
1153
 91
0
280
0
281
0
  0
CLASS
  1
SCALE
  2
AcDbScale
  3
ObjectDBX Classes
 90
1153
 91
0
280
0
281
0
  0
CLASS
  1
TABLESTYLE
  2
AcDbTableStyle
  3
ObjectDBX Classes
 90
4095
 91
0
280
0
281
0
  0
CLASS
  1
MLEADERSTYLE
  2
AcDbMLeaderStyle
  3
ACDB_MLEADERSTYLE_CLASS
 90
4095
 91
0
280
0
281
0
  0
CLASS
  1
DICTIONARYVAR
  2
AcDbDictionaryVar
  3
ObjectDBX Classes
 90
0
 91
0
280
0
281
0
  0
CLASS
  1
CELLSTYLEMAP
  2
AcDbCellStyleMap
  3
ObjectDBX Classes
 90
1152
 91
0
280
0
281
0
  0
CLASS
  1
MENTALRAYRENDERSETTINGS
  2
AcDbMentalRayRenderSettings
  3
SCENEOE
 90
1024
 91
0
280
0
281
0
  0
CLASS
  1
ACDBDETAILVIEWSTYLE
  2
AcDbDetailViewStyle
  3
ObjectDBX Classes
 90
1025
 91
0
280
0
281
0
  0
CLASS
  1
ACDBSECTIONVIEWSTYLE
  2
AcDbSectionViewStyle
  3
ObjectDBX Classes
 90
1025
 91
0
280
0
281
0
  0
CLASS
  1
RASTERVARIABLES
  2
AcDbRasterVariables
  3
ISM
 90
0
 91
0
280
0
281
0
  0
CLASS
  1
LAYOUT
  2
AcDbLayout
  3
ObjectDBX Classes
 90
0
 91
0
280
0
281
0
  0
CLASS
  1
ACDBPLACEHOLDER
  2
AcDbPlaceHolder
  3
ObjectDBX Classes
 90
0
 91
0
280
0
281
0
  0
ENDSEC
  0
SECTION
  2
TABLES
  0
TABLE
  2
VPORT
  5
8
330
0
100
AcDbSymbolTable
 70
1
  0
VPORT
  5
23
330
8
100
AcDbSymbolTableRecord
100
AcDbViewportTableRecord
  2
*Active
 70
0
 10
0.0
 20
0.0
 11
1.0
 21
1.0
 12
0.0
 22
0.0
 13
0.0
 23
0.0
 14
0.5
 24
0.5
 15
0.5
 25
0.5
 16
0.0
 26
0.0
 36
1.0
 17
0.0
 27
0.0
 37
0.0
 40
1000.0
 41
1.34
 42
50.0
 43
0.0
 44
0.0
 50
0.0
 51
0.0
 71
0
 72
1000
 73
1
 74
3
 75
0
 76
0
 77
0
 78
0
281
0
 65
0
146
0.0
  0
ENDTAB
  0
TABLE
  2
LTYPE
  5
2
330
0
100
AcDbSymbolTable
 70
3
  0
LTYPE
  5
24
330
2
100
AcDbSymbolTableRecord
100
AcDbLinetypeTableRecord
  2
ByBlock
 70
0
  3

 72
65
 73
0
 40
0.0
  0
LTYPE
  5
25
330
2
100
AcDbSymbolTableRecord
100
AcDbLinetypeTableRecord
  2
ByLayer
 70
0
  3

 72
65
 73
0
 40
0.0
  0
LTYPE
  5
26
330
2
100
AcDbSymbolTableRecord
100
AcDbLinetypeTableRecord
  2
Continuous
 70
0
  3

 72
65
 73
0
 40
0.0
  0
ENDTAB
  0
TABLE
  2
LAYER
  5
1
330
0
100
AcDbSymbolTable
 70
5
  0
LAYER
  5
27
330
1
100
AcDbSymbolTableRecord
100
AcDbLayerTableRecord
  2
0
 70
0
 62
7
  6
Continuous
370
-3
390
13
347
21
  0
LAYER
  5
28
330
1
100
AcDbSymbolTableRecord
100
AcDbLayerTableRecord
  2
Defpoints
 70
0
 62
7
  6
Continuous
290
0
370
-3
390
13
347
21
  0
LAYER
  5
2F
330
1
100
AcDbSymbolTableRecord
100
AcDbLayerTableRecord
  2
Poros
 70
0
 62
7
  6
Continuous
370
-3
390
13
347
21
  0
LAYER
  5
30
330
1
100
AcDbSymbolTableRecord
100
AcDbLayerTableRecord
  2
Aridos
 70
0
 62
7
  6
Continuous
370
-3
390
13
347
21
  0
LAYER
  5
31
330
1
100
AcDbSymbolTableRecord
100
AcDbLayerTableRecord
  2
Ptos_reactivos
 70
0
 62
7
  6
Continuous
370
-3
390
13
347
21
  0
ENDTAB
  0
TABLE
  2
STYLE
  5
5
330
0
100
AcDbSymbolTable
 70
1
  0
STYLE
  5
29
330
5
100
AcDbSymbolTableRecord
100
AcDbTextStyleTableRecord
  2
Standard
 70
0
 40
0.0
 41
1.0
 50
0.0
 71
0
 42
2.5
  3
txt
  4

  0
ENDTAB
  0
TABLE
  2
VIEW
  5
7
330
0
100
AcDbSymbolTable
 70
0
  0
ENDTAB
  0
TABLE
  2
UCS
  5
6
330
0
100
AcDbSymbolTable
 70
0
  0
ENDTAB
  0
TABLE
  2
APPID
  5
3
330
0
100
AcDbSymbolTable
 70
3
  0
APPID
  5
2A
330
3
100
AcDbSymbolTableRecord
100
AcDbRegAppTableRecord
  2
ACAD
 70
0
  0
APPID
  5
3C7
330
3
100
AcDbSymbolTableRecord
100
AcDbRegAppTableRecord
  2
HATCHBACKGROUNDCOLOR
 70
0
  0
APPID
  5
3C8
330
3
100
AcDbSymbolTableRecord
100
AcDbRegAppTableRecord
  2
EZDXF
 70
0
  0
ENDTAB
  0
TABLE
  2
DIMSTYLE
  5
4
330
0
100
AcDbSymbolTable
 70
1
100
AcDbDimStyleTable
  0
DIMSTYLE
105
2B
330
4
100
AcDbSymbolTableRecord
100
AcDbDimStyleTableRecord
  2
Standard
 70
0
 40
1.0
 41
2.5
 42
0.625
 43
3.75
 44
1.25
 45
0.0
 46
0.0
 47
0.0
 48
0.0
 49
2.5
140
2.5
141
2.5
142
0.0
143
0.03937007874
144
1.0
145
0.0
146
1.0
147
0.625
148
0.0
 69
0
 70
0
 71
0
 72
0
 73
0
 74
0
 75
0
 76
0
 77
1
 78
8
 79
3
170
0
171
3
172
1
173
0
174
0
175
0
176
0
177
0
178
0
179
2
271
2
272
2
273
2
274
3
275
0
276
0
277
2
278
44
279
0
280
0
281
0
282
0
283
0
284
8
285
0
286
0
288
0
289
3
290
0
371
-2
372
-2
  0
ENDTAB
  0
TABLE
  2
BLOCK_RECORD
  5
9
330
0
100
AcDbSymbolTable
 70
2
  0
BLOCK_RECORD
  5
17
330
9
100
AcDbSymbolTableRecord
100
AcDbBlockTableRecord
  2
*Model_Space
340
1A
 70
0
280
1
281
0
  0
BLOCK_RECORD
  5
1B
330
9
100
AcDbSymbolTableRecord
100
AcDbBlockTableRecord
  2
*Paper_Space
340
1E
 70
0
280
1
281
0
  0
ENDTAB
  0
ENDSEC
  0
SECTION
  2
BLOCKS
  0
BLOCK
  5
18
330
17
100
AcDbEntity
  8
0
100
AcDbBlockBegin
  2
*Model_Space
 70
0
 10
0.0
 20
0.0
 30
0.0
  3
*Model_Space
  1

  0
ENDBLK
  5
19
330
17
100
AcDbEntity
  8
0
100
AcDbBlockEnd
  0
BLOCK
  5
1C
330
1B
100
AcDbEntity
  8
0
100
AcDbBlockBegin
  2
*Paper_Space
 70
0
 10
0.0
 20
0.0
 30
0.0
  3
*Paper_Space
  1

  0
ENDBLK
  5
1D
330
1B
100
AcDbEntity
  8
0
100
AcDbBlockEnd
  0
ENDSEC
  0
SECTION
  2
ENTITIES
  0
CIRCLE
  5
32
330
17
100
AcDbEntity
  8
Poros
100
AcDbCircle
 10
41.65201823926461
 20
52.389555466484424
 30
0.0
 40
0.8785634039306183
  0
CIRCLE
  5
33
330
17
100
AcDbEntity
  8
Poros
100
AcDbCircle
 10
73.48847254413026
 20
30.581856228759253
 30
0.0
 40
0.8679943469396678
  0
CIRCLE
  5
34
330
17
100
AcDbEntity
  8
Poros
100
AcDbCircle
 10
61.98794571254354
 20
242.84921919070837
 30
0.0
 40
1.6172189615532955
  0
CIRCLE
  5
35
330
17
100
AcDbEntity
  8
Poros
100
AcDbCircle
 10
21.347699432461066
 20
185.18225764113356
 30
0.0
 40
1.140657000717795
  0
CIRCLE
  5
36
330
17
100
AcDbEntity
  8
Poros
100
AcDbCircle
 10
46.810842441064864
 20
39.93924478978745
 30
0.0
 40
1.8902810685144062
  0
CIRCLE
  5
37
330
17
100
AcDbEntity
  8
Poros
100
AcDbCircle
 10
50.868677024359904
 20
176.08150640740746
 30
0.0
 40
0.7281915973178013
  0
CIRCLE
  5
38
330
17
100
AcDbEntity
  8
Poros
100
AcDbCircle
 10
14.986897966361457
 20
262.8300236562101
 30
0.0
 40
0.9003037395491167
  0
CIRCLE
  5
39
330
17
100
AcDbEntity
  8
Poros
100
AcDbCircle
 10
41.370491151613535
 20
246.79339384710156
 30
0.0
 40
1.5795607233462827
  0
CIRCLE
  5
3A
330
17
100
AcDbEntity
  8
Poros
100
AcDbCircle
 10
36.025073447932634
 20
155.91064920146368
 30
0.0
 40
1.0356774302668503
  0
CIRCLE
  5
3B
330
17
100
AcDbEntity
  8
Poros
100
AcDbCircle
 10
59.695299076749514
 20
184.1704523544812
 30
0.0
 40
1.4935731725448138
  0
CIRCLE
  5
3C
330
17
100
AcDbEntity
  8
Poros
100
AcDbCircle
 10
18.87831783357255
 20
21.761959359234115
 30
0.0
 40
1.9808987253443247
  0
CIRCLE
  5
3D
330
17
100
AcDbEntity
  8
Poros
100
AcDbCircle
 10
53.6211966720708
 20
89.26672547148026
 30
0.0
 40
0.9257299220643622
  0
CIRCLE
  5
3E
330
17
100
AcDbEntity
  8
Poros
100
AcDbCircle
 10
3.402194633108377
 20
5.716890730788885
 30
0.0
 40
1.8491602354756778
  0
CIRCLE
  5
3F
330
17
100
AcDbEntity
  8
Poros
100
AcDbCircle
 10
48.41207723243495
 20
202.07556331646026
 30
0.0
 40
1.3597157040331376
  0
CIRCLE
  5
40
330
17
100
AcDbEntity
  8
Poros
100
AcDbCircle
 10
54.26586588288789
 20
19.26813407152843
 30
0.0
 40
1.0871507267145981
  0
CIRCLE
  5
41
330
17
100
AcDbEntity
  8
Poros
100
AcDbCircle
 10
15.426669221528233
 20
210.65424934705769
 30
0.0
 40
1.597470107576832
  0
CIRCLE
  5
42
330
17
100
AcDbEntity
  8
Poros
100
AcDbCircle
 10
22.585565615804896
 20
247.9855791750701
 30
0.0
 40
1.0860813531630553
  0
CIRCLE
  5
43
330
17
100
AcDbEntity
  8
Poros
100
AcDbCircle
 10
42.68641915496237
 20
76.53199444813266
 30
0.0
 40
1.608821459255855
  0
CIRCLE
  5
44
330
17
100
AcDbEntity
  8
Poros
100
AcDbCircle
 10
60.658993513312204
 20
133.8815302291209
 30
0.0
 40
0.6887127479522581
  0
CIRCLE
  5
45
330
17
100
AcDbEntity
  8
Poros
100
AcDbCircle
 10
32.92044655459722
 20
69.95790962114765
 30
0.0
 40
1.6087075774199744
  0
CIRCLE
  5
46
330
17
100
AcDbEntity
  8
Poros
100
AcDbCircle
 10
39.79677082602109
 20
232.4643493196655
 30
0.0
 40
1.1577218224112502
  0
CIRCLE
  5
47
330
17
100
AcDbEntity
  8
Poros
100
AcDbCircle
 10
13.80609391958208
 20
259.09854381344906
 30
0.0
 40
0.8642753162938723
  0
CIRCLE
  5
48
330
17
100
AcDbEntity
  8
Poros
100
AcDbCircle
 10
6.005630701291781
 20
120.65165214842222
 30
0.0
 40
0.8139558758564325
  0
CIRCLE
  5
49
330
17
100
AcDbEntity
  8
Poros
100
AcDbCircle
 10
70.00191552826621
 20
23.05046367810865
 30
0.0
 40
1.805507334312312
  0
CIRCLE
  5
4A
330
17
100
AcDbEntity
  8
Poros
100
AcDbCircle
 10
73.20571930247306
 20
3.488188704423151
 30
0.0
 40
1.473600568693211
  0
CIRCLE
  5
4B
330
17
100
AcDbEntity
  8
Poros
100
AcDbCircle
 10
2.1794760000251823
 20
77.47194116238879
 30
0.0
 40
1.822869214095538
  0
CIRCLE
  5
4C
330
17
100
AcDbEntity
  8
Poros
100
AcDbCircle
 10
25.84002571251432
 20
155.77565171158943
 30
0.0
 40
1.1754328573342758
  0
CIRCLE
  5
4D
330
17
100
AcDbEntity
  8
Poros
100
AcDbCircle
 10
56.3649904089876
 20
177.6491313847135
 30
0.0
 40
0.6880955438281415
  0
CIRCLE
  5
4E
330
17
100
AcDbEntity
  8
Poros
100
AcDbCircle
 10
2.459110578667145
 20
120.84610541762844
 30
0.0
 40
0.7088943195397894
  0
CIRCLE
  5
4F
330
17
100
AcDbEntity
  8
Poros
100
AcDbCircle
 10
73.67449112839815
 20
143.22792105297398
 30
0.0
 40
1.0969472100309692
  0
CIRCLE
  5
50
330
17
100
AcDbEntity
  8
Poros
100
AcDbCircle
 10
54.93346094896671
 20
166.70308166602013
 30
0.0
 40
0.6139844836448767
  0
CIRCLE
  5
51
330
17
100
AcDbEntity
  8
Poros
100
AcDbCircle
 10
69.74555003869666
 20
264.8736386308657
 30
0.0
 40
1.5346510978931809
  0
CIRCLE
  5
52
330
17
100
AcDbEntity
  8
Poros
100
AcDbCircle
 10
37.81625135760362
 20
3.0308895454750964
 30
0.0
 40
1.9962962260204227
  0
CIRCLE
  5
53
330
17
100
AcDbEntity
  8
Poros
100
AcDbCircle
 10
26.123839412886475
 20
225.4811852078459
 30
0.0
 40
0.6028559844161886
  0
CIRCLE
  5
54
330
17
100
AcDbEntity
  8
Poros
100
AcDbCircle
 10
35.189230773358
 20
66.67121575891113
 30
0.0
 40
1.6690578916426795
  0
CIRCLE
  5
55
330
17
100
AcDbEntity
  8
Poros
100
AcDbCircle
 10
26.835025874065515
 20
232.79268289380005
 30
0.0
 40
0.6815804443560107
  0
CIRCLE
  5
56
330
17
100
AcDbEntity
  8
Poros
100
AcDbCircle
 10
8.20534506069901
 20
256.0801810657823
 30
0.0
 40
0.8707932750930288
  0
CIRCLE
  5
57
330
17
100
AcDbEntity
  8
Poros
100
AcDbCircle
 10
43.409744809942666
 20
57.47366188090173
 30
0.0
 40
0.5541363072787524
  0
CIRCLE
  5
58
330
17
100
AcDbEntity
  8
Poros
100
AcDbCircle
 10
74.02315245424415
 20
15.189057859772001
 30
0.0
 40
0.7757887449881615
  0
CIRCLE
  5
59
330
17
100
AcDbEntity
  8
Poros
100
AcDbCircle
 10
29.071679969377506
 20
226.16896533252714
 30
0.0
 40
0.6685309622707154
  0
CIRCLE
  5
5A
330
17
100
AcDbEntity
  8
Poros
100
AcDbCircle
 10
60.4223569830896
 20
40.48185888351121
 30
0.0
 40
1.2622946032401694
  0
CIRCLE
  5
5B
330
17
100
AcDbEntity
  8
Poros
100
AcDbCircle
 10
65.59829015886453
 20
118.10956784459385
 30
0.0
 40
1.9307744158722453
  0
CIRCLE
  5
5C
330
17
100
AcDbEntity
  8
Poros
100
AcDbCircle
 10
22.987480798282807
 20
52.96835481766853
 30
0.0
 40
1.556536840958651
  0
CIRCLE
  5
5D
330
17
100
AcDbEntity
  8
Poros
100
AcDbCircle
 10
4.557250285762676
 20
207.17958357202795
 30
0.0
 40
0.8305162618144837
  0
CIRCLE
  5
5E
330
17
100
AcDbEntity
  8
Poros
100
AcDbCircle
 10
13.681626150885748
 20
103.81637753428907
 30
0.0
 40
0.5425968719396805
  0
CIRCLE
  5
5F
330
17
100
AcDbEntity
  8
Poros
100
AcDbCircle
 10
37.949113677804164
 20
49.20510987368614
 30
0.0
 40
1.8696379567661536
  0
CIRCLE
  5
60
330
17
100
AcDbEntity
  8
Poros
100
AcDbCircle
 10
49.97104213010482
 20
138.6599858787884
 30
0.0
 40
1.6731569535541941
  0
CIRCLE
  5
61
330
17
100
AcDbEntity
  8
Poros
100
AcDbCircle
 10
8.629212045280143
 20
224.5452354387898
 30
0.0
 40
0.7925623314192018
  0
CIRCLE
  5
62
330
17
100
AcDbEntity
  8
Poros
100
AcDbCircle
 10
46.29580042993729
 20
234.4590160438744
 30
0.0
 40
1.688545460900504
  0
CIRCLE
  5
63
330
17
100
AcDbEntity
  8
Poros
100
AcDbCircle
 10
7.760198927486578
 20
175.43501297590728
 30
0.0
 40
1.046639869927986
  0
CIRCLE
  5
64
330
17
100
AcDbEntity
  8
Poros
100
AcDbCircle
 10
12.013031388701725
 20
117.54108370069888
 30
0.0
 40
1.8025641274672262
  0
CIRCLE
  5
65
330
17
100
AcDbEntity
  8
Poros
100
AcDbCircle
 10
3.4075444379114583
 20
143.59943821697195
 30
0.0
 40
1.376445662479617
  0
CIRCLE
  5
66
330
17
100
AcDbEntity
  8
Poros
100
AcDbCircle
 10
5.9829448287983364
 20
211.30677752074683
 30
0.0
 40
0.6616291125613095
  0
CIRCLE
  5
67
330
17
100
AcDbEntity
  8
Poros
100
AcDbCircle
 10
27.368888897201565
 20
170.08865948706753
 30
0.0
 40
0.7646960628815505
  0
CIRCLE
  5
68
330
17
100
AcDbEntity
  8
Poros
100
AcDbCircle
 10
48.62110466168825
 20
61.11340255101247
 30
0.0
 40
1.8468592093828136
  0
CIRCLE
  5
69
330
17
100
AcDbEntity
  8
Poros
100
AcDbCircle
 10
53.80507021241677
 20
272.26516972876004
 30
0.0
 40
1.1996786872084573
  0
CIRCLE
  5
6A
330
17
100
AcDbEntity
  8
Poros
100
AcDbCircle
 10
23.243528291147193
 20
3.9151636118039903
 30
0.0
 40
1.5564295565028892
  0
CIRCLE
  5
6B
330
17
100
AcDbEntity
  8
Poros
100
AcDbCircle
 10
64.94999244859173
 20
71.69948412430237
 30
0.0
 40
1.0683554730995075
  0
CIRCLE
  5
6C
330
17
100
AcDbEntity
  8
Poros
100
AcDbCircle
 10
53.10244144284486
 20
48.56588385396273
 30
0.0
 40
1.2859171328743875
  0
CIRCLE
  5
6D
330
17
100
AcDbEntity
  8
Poros
100
AcDbCircle
 10
67.05753107108173
 20
193.00518875805278
 30
0.0
 40
1.177608395345302
  0
CIRCLE
  5
6E
330
17
100
AcDbEntity
  8
Poros
100
AcDbCircle
 10
22.42734139813776
 20
1.2870501707369169
 30
0.0
 40
1.0826884958602305
  0
CIRCLE
  5
6F
330
17
100
AcDbEntity
  8
Poros
100
AcDbCircle
 10
37.37605570268322
 20
132.6034592012027
 30
0.0
 40
0.8454570192346718
  0
CIRCLE
  5
70
330
17
100
AcDbEntity
  8
Poros
100
AcDbCircle
 10
42.8465503238916
 20
47.45431060952129
 30
0.0
 40
1.2435036866137992
  0
CIRCLE
  5
71
330
17
100
AcDbEntity
  8
Poros
100
AcDbCircle
 10
31.697449066538017
 20
11.280728931191778
 30
0.0
 40
1.3894628035096523
  0
CIRCLE
  5
72
330
17
100
AcDbEntity
  8
Poros
100
AcDbCircle
 10
3.42874130012073
 20
270.63920997865233
 30
0.0
 40
1.760548582251212
  0
CIRCLE
  5
73
330
17
100
AcDbEntity
  8
Poros
100
AcDbCircle
 10
20.92466202944923
 20
50.78839959031014
 30
0.0
 40
1.4266352441510821
  0
CIRCLE
  5
74
330
17
100
AcDbEntity
  8
Poros
100
AcDbCircle
 10
61.21772076051387
 20
46.73382848110236
 30
0.0
 40
1.2450643699768933
  0
CIRCLE
  5
75
330
17
100
AcDbEntity
  8
Poros
100
AcDbCircle
 10
50.635981796889716
 20
115.68778708899832
 30
0.0
 40
1.950414028535796
  0
CIRCLE
  5
76
330
17
100
AcDbEntity
  8
Poros
100
AcDbCircle
 10
73.22136764704896
 20
235.27604282606302
 30
0.0
 40
1.6475579849075357
  0
CIRCLE
  5
77
330
17
100
AcDbEntity
  8
Poros
100
AcDbCircle
 10
61.90559834327135
 20
215.47522007283146
 30
0.0
 40
0.8152326534094536
  0
CIRCLE
  5
78
330
17
100
AcDbEntity
  8
Poros
100
AcDbCircle
 10
2.3943600072731135
 20
1.678345823631175
 30
0.0
 40
1.4210547593579625
  0
CIRCLE
  5
79
330
17
100
AcDbEntity
  8
Poros
100
AcDbCircle
 10
12.474902849911192
 20
37.56284371908309
 30
0.0
 40
1.5941281035506938
  0
CIRCLE
  5
7A
330
17
100
AcDbEntity
  8
Poros
100
AcDbCircle
 10
60.17618788145489
 20
187.4024644698198
 30
0.0
 40
1.6689752413680874
  0
CIRCLE
  5
7B
330
17
100
AcDbEntity
  8
Poros
100
AcDbCircle
 10
44.17833202545597
 20
181.64246394767366
 30
0.0
 40
1.6336958645261999
  0
CIRCLE
  5
7C
330
17
100
AcDbEntity
  8
Poros
100
AcDbCircle
 10
26.716701380803173
 20
51.39175469065639
 30
0.0
 40
1.8537227501607805
  0
CIRCLE
  5
7D
330
17
100
AcDbEntity
  8
Aridos
100
AcDbCircle
 10
24.885331509048868
 20
119.96823593787236
 30
0.0
 40
8.45152992650242
  0
CIRCLE
  5
7E
330
17
100
AcDbEntity
  8
Aridos
100
AcDbCircle
 10
32.51504107103581
 20
89.68156950596747
 30
0.0
 40
5.766279964275652
  0
CIRCLE
  5
7F
330
17
100
AcDbEntity
  8
Aridos
100
AcDbCircle
 10
59.40410720041275
 20
142.7105813795137
 30
0.0
 40
5.514771503906438
  0
CIRCLE
  5
80
330
17
100
AcDbEntity
  8
Aridos
100
AcDbCircle
 10
16.45781970877902
 20
178.0936123048255
 30
0.0
 40
5.591787085872112
  0
CIRCLE
  5
81
330
17
100
AcDbEntity
  8
Aridos
100
AcDbCircle
 10
60.81250976782646
 20
103.3828593451494
 30
0.0
 40
5.927186936169509
  0
CIRCLE
  5
82
330
17
100
AcDbEntity
  8
Aridos
100
AcDbCircle
 10
11.877097391943872
 20
204.67926542917724
 30
0.0
 40
4.519054795552152
  0
CIRCLE
  5
83
330
17
100
AcDbEntity
  8
Aridos
100
AcDbCircle
 10
44.47903145372717
 20
29.838665484913687
 30
0.0
 40
5.120381548179785
  0
CIRCLE
  5
84
330
17
100
AcDbEntity
  8
Aridos
100
AcDbCircle
 10
70.3511279127537
 20
188.00124549390708
 30
0.0
 40
4.5732191907
  0
CIRCLE
  5
85
330
17
100
AcDbEntity
  8
Aridos
100
AcDbCircle
 10
38.99988279348732
 20
211.0796603902101
 30
0.0
 40
4.649892841981817
  0
CIRCLE
  5
86
330
17
100
AcDbEntity
  8
Aridos
100
AcDbCircle
 10
7.572836705227082
 20
262.3822682443568
 30
0.0
 40
5.26209945865051
  0
CIRCLE
  5
87
330
17
100
AcDbEntity
  8
Aridos
100
AcDbCircle
 10
37.94703609336916
 20
186.9595771279386
 30
0.0
 40
4.800371309001716
  0
CIRCLE
  5
88
330
17
100
AcDbEntity
  8
Aridos
100
AcDbCircle
 10
10.383481916461529
 20
12.616422556420778
 30
0.0
 40
5.616231253221145
  0
CIRCLE
  5
89
330
17
100
AcDbEntity
  8
Aridos
100
AcDbCircle
 10
69.50820683285197
 20
43.497946617758004
 30
0.0
 40
4.789338004560876
  0
CIRCLE
  5
8A
330
17
100
AcDbEntity
  8
Aridos
100
AcDbCircle
 10
17.609543862179727
 20
60.017693923162774
 30
0.0
 40
5.551267128248972
  0
CIRCLE
  5
8B
330
17
100
AcDbEntity
  8
Aridos
100
AcDbCircle
 10
37.375517484844465
 20
238.25508968159016
 30
0.0
 40
4.939842158803851
  0
CIRCLE
  5
8C
330
17
100
AcDbEntity
  8
Aridos
100
AcDbCircle
 10
29.045984711505817
 20
19.065989103788063
 30
0.0
 40
5.6617191814028835
  0
CIRCLE
  5
8D
330
17
100
AcDbEntity
  8
Aridos
100
AcDbCircle
 10
42.815229457718274
 20
113.39443554886775
 30
0.0
 40
4.5076632581456995
  0
CIRCLE
  5
8E
330
17
100
AcDbEntity
  8
Aridos
100
AcDbCircle
 10
17.813179304446905
 20
81.31464111909258
 30
0.0
 40
4.669286480447562
  0
CIRCLE
  5
8F
330
17
100
AcDbEntity
  8
Aridos
100
AcDbCircle
 10
11.905551941965811
 20
188.79284527793519
 30
0.0
 40
4.66643050798117
  0
CIRCLE
  5
90
330
17
100
AcDbEntity
  8
Aridos
100
AcDbCircle
 10
67.2782868577787
 20
152.45159778595112
 30
0.0
 40
4.871502343042545
  0
CIRCLE
  5
91
330
17
100
AcDbEntity
  8
Aridos
100
AcDbCircle
 10
51.63693417128754
 20
240.68498196572781
 30
0.0
 40
4.534854448858356
  0
CIRCLE
  5
92
330
17
100
AcDbEntity
  8
Aridos
100
AcDbCircle
 10
27.076371778016643
 20
36.67356181567482
 30
0.0
 40
5.590981731352754
  0
CIRCLE
  5
93
330
17
100
AcDbEntity
  8
Aridos
100
AcDbCircle
 10
36.87767106774173
 20
262.32991933497556
 30
0.0
 40
5.01005241293194
  0
CIRCLE
  5
94
330
17
100
AcDbEntity
  8
Aridos
100
AcDbCircle
 10
56.799112078043606
 20
122.1223689139037
 30
0.0
 40
4.796254734589498
  0
CIRCLE
  5
95
330
17
100
AcDbEntity
  8
Aridos
100
AcDbCircle
 10
38.321019931611744
 20
40.442089890031276
 30
0.0
 40
5.863769389259382
  0
CIRCLE
  5
96
330
17
100
AcDbEntity
  8
Aridos
100
AcDbCircle
 10
63.53224562099465
 20
33.53814249176537
 30
0.0
 40
5.967520477522693
  0
CIRCLE
  5
97
330
17
100
AcDbEntity
  8
Aridos
100
AcDbCircle
 10
38.65570622872628
 20
11.285985336656035
 30
0.0
 40
5.299203816159133
  0
CIRCLE
  5
98
330
17
100
AcDbEntity
  8
Aridos
100
AcDbCircle
 10
36.29598789763057
 20
220.4032398573707
 30
0.0
 40
4.888697774053433
  0
CIRCLE
  5
99
330
17
100
AcDbEntity
  8
Aridos
100
AcDbCircle
 10
13.959230549083696
 20
135.93661427931877
 30
0.0
 40
5.375718928237958
  0
CIRCLE
  5
9A
330
17
100
AcDbEntity
  8
Aridos
100
AcDbCircle
 10
68.70822292332602
 20
55.13085961989122
 30
0.0
 40
4.988535979400413
  0
CIRCLE
  5
9B
330
17
100
AcDbEntity
  8
Aridos
100
AcDbCircle
 10
67.83033373699406
 20
207.69795997641674
 30
0.0
 40
5.8333489706644635
  0
CIRCLE
  5
9C
330
17
100
AcDbEntity
  8
Aridos
100
AcDbCircle
 10
51.71044798880561
 20
183.0542858408253
 30
0.0
 40
5.439606790134637
  0
CIRCLE
  5
9D
330
17
100
AcDbEntity
  8
Aridos
100
AcDbCircle
 10
60.24669905280596
 20
80.24435083502983
 30
0.0
 40
5.7283105358667274
  0
CIRCLE
  5
9E
330
17
100
AcDbEntity
  8
Aridos
100
AcDbCircle
 10
40.147368585527445
 20
199.28467396808475
 30
0.0
 40
5.321018130559443
  0
CIRCLE
  5
9F
330
17
100
AcDbEntity
  8
Aridos
100
AcDbCircle
 10
42.06980352303384
 20
153.8324930744665
 30
0.0
 40
5.12506800890048
  0
CIRCLE
  5
A0
330
17
100
AcDbEntity
  8
Aridos
100
AcDbCircle
 10
6.573279977016233
 20
233.24547835631222
 30
0.0
 40
5.614570787618453
  0
CIRCLE
  5
A1
330
17
100
AcDbEntity
  8
Aridos
100
AcDbCircle
 10
49.91315341471125
 20
83.88352468821603
 30
0.0
 40
5.054394571346386
  0
CIRCLE
  5
A2
330
17
100
AcDbEntity
  8
Aridos
100
AcDbCircle
 10
12.6903942187861
 20
218.03424680147344
 30
0.0
 40
4.612749815920788
  0
CIRCLE
  5
A3
330
17
100
AcDbEntity
  8
Aridos
100
AcDbCircle
 10
7.234889022970919
 20
95.27006780859179
 30
0.0
 40
5.662789467678245
  0
CIRCLE
  5
A4
330
17
100
AcDbEntity
  8
Aridos
100
AcDbCircle
 10
47.86095300752578
 20
170.62575013586414
 30
0.0
 40
4.829113866664119
  0
CIRCLE
  5
A5
330
17
100
AcDbEntity
  8
Aridos
100
AcDbCircle
 10
20.092048260237238
 20
107.52772323977544
 30
0.0
 40
4.61901319028105
  0
CIRCLE
  5
A6
330
17
100
AcDbEntity
  8
Aridos
100
AcDbCircle
 10
6.045988579289238
 20
113.3215839315738
 30
0.0
 40
5.230170782314759
  0
CIRCLE
  5
A7
330
17
100
AcDbEntity
  8
Aridos
100
AcDbCircle
 10
20.5060449869748
 20
9.742147841388727
 30
0.0
 40
4.73051085300001
  0
CIRCLE
  5
A8
330
17
100
AcDbEntity
  8
Aridos
100
AcDbCircle
 10
64.76875098126442
 20
231.4897500874825
 30
0.0
 40
5.742697699878693
  0
CIRCLE
  5
A9
330
17
100
AcDbEntity
  8
Aridos
100
AcDbCircle
 10
7.316005061237088
 20
159.39217937510182
 30
0.0
 40
4.787052851906996
  0
CIRCLE
  5
AA
330
17
100
AcDbEntity
  8
Aridos
100
AcDbCircle
 10
55.85586524228514
 20
65.13565688313399
 30
0.0
 40
4.905613430625526
  0
CIRCLE
  5
AB
330
17
100
AcDbEntity
  8
Aridos
100
AcDbCircle
 10
23.403053438113773
 20
132.40326422452608
 30
0.0
 40
3.402586052837769
  0
CIRCLE
  5
AC
330
17
100
AcDbEntity
  8
Aridos
100
AcDbCircle
 10
67.42251607469404
 20
256.05413588296204
 30
0.0
 40
4.25595097473015
  0
CIRCLE
  5
AD
330
17
100
AcDbEntity
  8
Aridos
100
AcDbCircle
 10
26.937456774925238
 20
262.27723440835126
 30
0.0
 40
4.129470854407728
  0
CIRCLE
  5
AE
330
17
100
AcDbEntity
  8
Aridos
100
AcDbCircle
 10
46.61294193668426
 20
16.71864867256063
 30
0.0
 40
3.0452049014654907
  0
CIRCLE
  5
AF
330
17
100
AcDbEntity
  8
Aridos
100
AcDbCircle
 10
37.85506414126832
 20
82.3942822877267
 30
0.0
 40
2.9836906714594966
  0
CIRCLE
  5
B0
330
17
100
AcDbEntity
  8
Aridos
100
AcDbCircle
 10
33.21255058754003
 20
105.65128077599137
 30
0.0
 40
2.040551283293607
  0
CIRCLE
  5
B1
330
17
100
AcDbEntity
  8
Aridos
100
AcDbCircle
 10
54.70709565175974
 20
152.65240962558434
 30
0.0
 40
2.7480334296113162
  0
CIRCLE
  5
B2
330
17
100
AcDbEntity
  8
Aridos
100
AcDbCircle
 10
39.66297008326133
 20
55.845719986416505
 30
0.0
 40
2.8844455468195225
  0
CIRCLE
  5
B3
330
17
100
AcDbEntity
  8
Aridos
100
AcDbCircle
 10
27.816712720014912
 20
61.2481987429775
 30
0.0
 40
4.233756663503171
  0
CIRCLE
  5
B4
330
17
100
AcDbEntity
  8
Aridos
100
AcDbCircle
 10
18.71165782276578
 20
269.8852203722542
 30
0.0
 40
3.9653414235024638
  0
CIRCLE
  5
B5
330
17
100
AcDbEntity
  8
Aridos
100
AcDbCircle
 10
70.7547301651759
 20
217.4364681714734
 30
0.0
 40
3.9284673141396924
  0
CIRCLE
  5
B6
330
17
100
AcDbEntity
  8
Aridos
100
AcDbCircle
 10
33.055439242738245
 20
28.863272577423192
 30
0.0
 40
3.0501371431673694
  0
CIRCLE
  5
B7
330
17
100
AcDbEntity
  8
Aridos
100
AcDbCircle
 10
29.476560055211948
 20
80.37241068070848
 30
0.0
 40
3.9400628449907242
  0
CIRCLE
  5
B8
330
17
100
AcDbEntity
  8
Aridos
100
AcDbCircle
 10
63.689103338403015
 20
195.84482564121367
 30
0.0
 40
3.1607703589161007
  0
CIRCLE
  5
B9
330
17
100
AcDbEntity
  8
Aridos
100
AcDbCircle
 10
32.1581766554114
 20
167.3377046243232
 30
0.0
 40
2.4544254142947257
  0
CIRCLE
  5
BA
330
17
100
AcDbEntity
  8
Aridos
100
AcDbCircle
 10
26.701046385189127
 20
162.6259350654459
 30
0.0
 40
4.210064011897756
  0
CIRCLE
  5
BB
330
17
100
AcDbEntity
  8
Aridos
100
AcDbCircle
 10
61.73431859727785
 20
178.99129165276352
 30
0.0
 40
3.7969806696168775
  0
CIRCLE
  5
BC
330
17
100
AcDbEntity
  8
Aridos
100
AcDbCircle
 10
43.205871894473304
 20
138.354022797108
 30
0.0
 40
3.679703250296682
  0
CIRCLE
  5
BD
330
17
100
AcDbEntity
  8
Aridos
100
AcDbCircle
 10
7.443539548410633
 20
74.97608862900053
 30
0.0
 40
2.6414090815958464
  0
CIRCLE
  5
BE
330
17
100
AcDbEntity
  8
Aridos
100
AcDbCircle
 10
55.87640012255918
 20
254.15256552590833
 30
0.0
 40
3.077004556159859
  0
CIRCLE
  5
BF
330
17
100
AcDbEntity
  8
Aridos
100
AcDbCircle
 10
8.01164967793509
 20
49.263111040045175
 30
0.0
 40
2.041133941168302
  0
CIRCLE
  5
C0
330
17
100
AcDbEntity
  8
Aridos
100
AcDbCircle
 10
36.51568074124729
 20
138.39578465128673
 30
0.0
 40
2.5874845668361948
  0
CIRCLE
  5
C1
330
17
100
AcDbEntity
  8
Aridos
100
AcDbCircle
 10
28.3636524579632
 20
148.982129871638
 30
0.0
 40
3.277928277916284
  0
CIRCLE
  5
C2
330
17
100
AcDbEntity
  8
Aridos
100
AcDbCircle
 10
30.00790918955952
 20
209.66262632093301
 30
0.0
 40
2.730023101029764
  0
CIRCLE
  5
C3
330
17
100
AcDbEntity
  8
Aridos
100
AcDbCircle
 10
18.481733054590933
 20
253.6858260149377
 30
0.0
 40
3.2547337703281896
  0
CIRCLE
  5
C4
330
17
100
AcDbEntity
  8
Aridos
100
AcDbCircle
 10
47.41939938761431
 20
258.81467789660655
 30
0.0
 40
3.2456828247782856
  0
CIRCLE
  5
C5
330
17
100
AcDbEntity
  8
Aridos
100
AcDbCircle
 10
61.51733105327659
 20
72.34465941527613
 30
0.0
 40
2.2594288103774858
  0
CIRCLE
  5
C6
330
17
100
AcDbEntity
  8
Aridos
100
AcDbCircle
 10
49.501676670753355
 20
267.43523914492874
 30
0.0
 40
3.1161077885478337
  0
CIRCLE
  5
C7
330
17
100
AcDbEntity
  8
Aridos
100
AcDbCircle
 10
7.080830380895398
 20
83.77885708314123
 30
0.0
 40
4.422972921083842
  0
CIRCLE
  5
C8
330
17
100
AcDbEntity
  8
Aridos
100
AcDbCircle
 10
53.677233856808705
 20
42.95042131776304
 30
0.0
 40
3.8461778039270955
  0
CIRCLE
  5
C9
330
17
100
AcDbEntity
  8
Aridos
100
AcDbCircle
 10
23.825544084033268
 20
211.807963371017
 30
0.0
 40
3.798876519457594
  0
CIRCLE
  5
CA
330
17
100
AcDbEntity
  8
Aridos
100
AcDbCircle
 10
16.932865771630993
 20
164.55817807116858
 30
0.0
 40
4.232608466252342
  0
CIRCLE
  5
CB
330
17
100
AcDbEntity
  8
Aridos
100
AcDbCircle
 10
58.20260818532263
 20
13.929641129601528
 30
0.0
 40
4.406686703141497
  0
CIRCLE
  5
CC
330
17
100
AcDbEntity
  8
Aridos
100
AcDbCircle
 10
5.599307952722824
 20
246.6007920941654
 30
0.0
 40
2.492625569608496
  0
CIRCLE
  5
CD
330
17
100
AcDbEntity
  8
Aridos
100
AcDbCircle
 10
49.36751924657694
 20
160.32515848472354
 30
0.0
 40
3.7864749105487423
  0
CIRCLE
  5
CE
330
17
100
AcDbEntity
  8
Aridos
100
AcDbCircle
 10
26.126717561270986
 20
181.46188418022757
 30
0.0
 40
2.404809848200945
  0
CIRCLE
  5
CF
330
17
100
AcDbEntity
  8
Aridos
100
AcDbCircle
 10
24.495385929317894
 20
190.20716979329595
 30
0.0
 40
4.165636929313482
  0
CIRCLE
  5
D0
330
17
100
AcDbEntity
  8
Aridos
100
AcDbCircle
 10
29.62462285579048
 20
45.728756740132766
 30
0.0
 40
3.5595506181290255
  0
CIRCLE
  5
D1
330
17
100
AcDbEntity
  8
Aridos
100
AcDbCircle
 10
37.23942157881515
 20
125.12558168748974
 30
0.0
 40
4.398637808816172
  0
CIRCLE
  5
D2
330
17
100
AcDbEntity
  8
Aridos
100
AcDbCircle
 10
44.94643267662374
 20
71.9850011924528
 30
0.0
 40
3.310355105540103
  0
CIRCLE
  5
D3
330
17
100
AcDbEntity
  8
Aridos
100
AcDbCircle
 10
64.75647616433714
 20
112.43963726378652
 30
0.0
 40
2.0910821953752534
  0
CIRCLE
  5
D4
330
17
100
AcDbEntity
  8
Aridos
100
AcDbCircle
 10
54.14338299651252
 20
203.60395788864054
 30
0.0
 40
3.8171789464098658
  0
CIRCLE
  5
D5
330
17
100
AcDbEntity
  8
Aridos
100
AcDbCircle
 10
34.630031120864075
 20
175.1711306957237
 30
0.0
 40
2.0097746096694435
  0
CIRCLE
  5
D6
330
17
100
AcDbEntity
  8
Aridos
100
AcDbCircle
 10
69.04708506992534
 20
161.68994056618453
 30
0.0
 40
2.1257350029368176
  0
CIRCLE
  5
D7
330
17
100
AcDbEntity
  8
Aridos
100
AcDbCircle
 10
44.37008060220574
 20
104.37931631877596
 30
0.0
 40
4.479980789688094
  0
CIRCLE
  5
D8
330
17
100
AcDbEntity
  8
Aridos
100
AcDbCircle
 10
50.14061454540141
 20
248.0944402936278
 30
0.0
 40
2.530643750870153
  0
CIRCLE
  5
D9
330
17
100
AcDbEntity
  8
Aridos
100
AcDbCircle
 10
17.888062481637437
 20
243.6479120066988
 30
0.0
 40
4.368426662185845
  0
CIRCLE
  5
DA
330
17
100
AcDbEntity
  8
Aridos
100
AcDbCircle
 10
55.23514061334049
 20
25.231907053480473
 30
0.0
 40
3.1288513720250584
  0
CIRCLE
  5
DB
330
17
100
AcDbEntity
  8
Aridos
100
AcDbCircle
 10
15.276899356864671
 20
31.822908993728063
 30
0.0
 40
4.496986681904231
  0
CIRCLE
  5
DC
330
17
100
AcDbEntity
  8
Aridos
100
AcDbCircle
 10
48.66262956915617
 20
214.26201562972517
 30
0.0
 40
3.6187537228562032
  0
CIRCLE
  5
DD
330
17
100
AcDbEntity
  8
Aridos
100
AcDbCircle
 10
14.561259575503385
 20
73.34924159506824
 30
0.0
 40
3.7556017746449974
  0
CIRCLE
  5
DE
330
17
100
AcDbEntity
  8
Aridos
100
AcDbCircle
 10
64.8276963518914
 20
131.1707910153217
 30
0.0
 40
3.0739544136002452
  0
CIRCLE
  5
DF
330
17
100
AcDbEntity
  8
Aridos
100
AcDbCircle
 10
70.3304820721931
 20
128.82829866670005
 30
0.0
 40
2.419436899605639
  0
CIRCLE
  5
E0
330
17
100
AcDbEntity
  8
Aridos
100
AcDbCircle
 10
21.873209433253166
 20
225.43819115769915
 30
0.0
 40
2.2953327337005995
  0
CIRCLE
  5
E1
330
17
100
AcDbEntity
  8
Aridos
100
AcDbCircle
 10
11.48809391540613
 20
147.71152164727303
 30
0.0
 40
4.344706554562814
  0
CIRCLE
  5
E2
330
17
100
AcDbEntity
  8
Aridos
100
AcDbCircle
 10
61.787320561407775
 20
249.290052868912
 30
0.0
 40
4.2774936095194676
  0
CIRCLE
  5
E3
330
17
100
AcDbEntity
  8
Aridos
100
AcDbCircle
 10
43.188984623276
 20
251.36264960828956
 30
0.0
 40
2.994983842127189
  0
CIRCLE
  5
E4
330
17
100
AcDbEntity
  8
Aridos
100
AcDbCircle
 10
18.75229443685098
 20
199.0399861799691
 30
0.0
 40
4.313258165078332
  0
CIRCLE
  5
E5
330
17
100
AcDbEntity
  8
Aridos
100
AcDbCircle
 10
19.921118432557332
 20
43.18965632242306
 30
0.0
 40
3.863748042979574
  0
CIRCLE
  5
E6
330
17
100
AcDbEntity
  8
Aridos
100
AcDbCircle
 10
20.675406328434946
 20
152.24325388140394
 30
0.0
 40
3.9745659111026757
  0
CIRCLE
  5
E7
330
17
100
AcDbEntity
  8
Aridos
100
AcDbCircle
 10
59.08137302615927
 20
164.91904894687593
 30
0.0
 40
3.5942712944998156
  0
CIRCLE
  5
E8
330
17
100
AcDbEntity
  8
Aridos
100
AcDbCircle
 10
56.33693979969615
 20
55.28435640784319
 30
0.0
 40
4.481853416364915
  0
CIRCLE
  5
E9
330
17
100
AcDbEntity
  8
Aridos
100
AcDbCircle
 10
39.93994214740258
 20
176.40996219148968
 30
0.0
 40
3.190263842142888
  0
CIRCLE
  5
EA
330
17
100
AcDbEntity
  8
Aridos
100
AcDbCircle
 10
45.54787990684159
 20
49.96938080904102
 30
0.0
 40
2.255285464522373
  0
CIRCLE
  5
EB
330
17
100
AcDbEntity
  8
Aridos
100
AcDbCircle
 10
30.803928357202988
 20
134.42202737448432
 30
0.0
 40
4.181408312076959
  0
CIRCLE
  5
EC
330
17
100
AcDbEntity
  8
Aridos
100
AcDbCircle
 10
62.83454839863204
 20
6.00003185776887
 30
0.0
 40
3.89031760965151
  0
CIRCLE
  5
ED
330
17
100
AcDbEntity
  8
Aridos
100
AcDbCircle
 10
55.1762810916813
 20
262.89602267327007
 30
0.0
 40
2.747997091188947
  0
CIRCLE
  5
EE
330
17
100
AcDbEntity
  8
Aridos
100
AcDbCircle
 10
29.94629091463628
 20
245.413133041733
 30
0.0
 40
2.465641298536378
  0
CIRCLE
  5
EF
330
17
100
AcDbEntity
  8
Aridos
100
AcDbCircle
 10
43.42689970224137
 20
63.33371577224751
 30
0.0
 40
3.235883785639824
  0
CIRCLE
  5
F0
330
17
100
AcDbEntity
  8
Aridos
100
AcDbCircle
 10
26.47907628104628
 20
139.16905258176027
 30
0.0
 40
2.1022387484303637
  0
CIRCLE
  5
F1
330
17
100
AcDbEntity
  8
Aridos
100
AcDbCircle
 10
10.208625129643453
 20
251.06340546903655
 30
0.0
 40
3.1958807053622955
  0
CIRCLE
  5
F2
330
17
100
AcDbEntity
  8
Aridos
100
AcDbCircle
 10
26.89638761212911
 20
72.03937533803587
 30
0.0
 40
2.772475498747519
  0
CIRCLE
  5
F3
330
17
100
AcDbEntity
  8
Aridos
100
AcDbCircle
 10
32.038029043720776
 20
230.59501086320236
 30
0.0
 40
4.30145065621668
  0
CIRCLE
  5
F4
330
17
100
AcDbEntity
  8
Aridos
100
AcDbCircle
 10
67.99411256154295
 20
168.32346435761562
 30
0.0
 40
4.294864211811564
  0
CIRCLE
  5
F5
330
17
100
AcDbEntity
  8
Aridos
100
AcDbCircle
 10
41.26757005650792
 20
145.268912147054
 30
0.0
 40
3.1712223283682213
  0
CIRCLE
  5
F6
330
17
100
AcDbEntity
  8
Aridos
100
AcDbCircle
 10
5.3000734681952935
 20
215.68703647525405
 30
0.0
 40
2.5857827079631073
  0
CIRCLE
  5
F7
330
17
100
AcDbEntity
  8
Aridos
100
AcDbCircle
 10
30.04314648372604
 20
98.65080334614845
 30
0.0
 40
2.2245623588591634
  0
CIRCLE
  5
F8
330
17
100
AcDbEntity
  8
Aridos
100
AcDbCircle
 10
53.782403833816986
 20
133.37398338559063
 30
0.0
 40
3.6985089359229777
  0
CIRCLE
  5
F9
330
17
100
AcDbEntity
  8
Aridos
100
AcDbCircle
 10
70.39859760174224
 20
113.67195785517565
 30
0.0
 40
3.639820805637986
  0
CIRCLE
  5
FA
330
17
100
AcDbEntity
  8
Aridos
100
AcDbCircle
 10
61.402798766376954
 20
23.804610848490483
 30
0.0
 40
2.009860998176619
  0
CIRCLE
  5
FB
330
17
100
AcDbEntity
  8
Aridos
100
AcDbCircle
 10
70.30094666559935
 20
6.693391817762184
 30
0.0
 40
2.166353348086848
  0
CIRCLE
  5
FC
330
17
100
AcDbEntity
  8
Aridos
100
AcDbCircle
 10
46.009474441889324
 20
129.6772408946417
 30
0.0
 40
2.0028027280891245
  0
CIRCLE
  5
FD
330
17
100
AcDbEntity
  8
Aridos
100
AcDbCircle
 10
70.36968688879506
 20
104.59966063716624
 30
0.0
 40
3.6652095422595785
  0
CIRCLE
  5
FE
330
17
100
AcDbEntity
  8
Aridos
100
AcDbCircle
 10
41.33158465439208
 20
20.608869648993817
 30
0.0
 40
2.964127899410164
  0
CIRCLE
  5
FF
330
17
100
AcDbEntity
  8
Aridos
100
AcDbCircle
 10
32.93113615790844
 20
111.41089779877157
 30
0.0
 40
2.235145684344095
  0
CIRCLE
  5
100
330
17
100
AcDbEntity
  8
Aridos
100
AcDbCircle
 10
37.171834239087964
 20
162.9083088116288
 30
0.0
 40
3.1464189325897993
  0
CIRCLE
  5
101
330
17
100
AcDbEntity
  8
Aridos
100
AcDbCircle
 10
12.812290080676506
 20
21.531266799589837
 30
0.0
 40
3.610854321033334
  0
CIRCLE
  5
102
330
17
100
AcDbEntity
  8
Aridos
100
AcDbCircle
 10
53.32526739352721
 20
110.9218724179065
 30
0.0
 40
3.4874943473980364
  0
CIRCLE
  5
103
330
17
100
AcDbEntity
  8
Aridos
100
AcDbCircle
 10
6.267430600534094
 20
58.041168486963684
 30
0.0
 40
3.976507684561391
  0
CIRCLE
  5
104
330
17
100
AcDbEntity
  8
Aridos
100
AcDbCircle
 10
47.808998732177066
 20
227.83139822745247
 30
0.0
 40
3.9999226729933377
  0
CIRCLE
  5
105
330
17
100
AcDbEntity
  8
Aridos
100
AcDbCircle
 10
20.768349601199336
 20
234.3833100983449
 30
0.0
 40
3.6992447973622853
  0
CIRCLE
  5
106
330
17
100
AcDbEntity
  8
Aridos
100
AcDbCircle
 10
60.970846863921935
 20
220.13257872293715
 30
0.0
 40
3.0968796304122446
  0
CIRCLE
  5
107
330
17
100
AcDbEntity
  8
Aridos
100
AcDbCircle
 10
13.4168989234545
 20
50.71915777210192
 30
0.0
 40
2.6558972318937553
  0
CIRCLE
  5
108
330
17
100
AcDbEntity
  8
Aridos
100
AcDbCircle
 10
6.698251248652381
 20
167.67696648385626
 30
0.0
 40
2.5913047087235617
  0
CIRCLE
  5
109
330
17
100
AcDbEntity
  8
Aridos
100
AcDbCircle
 10
63.310907584402344
 20
268.9024731290401
 30
0.0
 40
4.097505191080861
  0
CIRCLE
  5
10A
330
17
100
AcDbEntity
  8
Aridos
100
AcDbCircle
 10
47.98437996737183
 20
56.292071784120964
 30
0.0
 40
2.9218583475560775
  0
CIRCLE
  5
10B
330
17
100
AcDbEntity
  8
Aridos
100
AcDbCircle
 10
4.024388698320546
 20
192.7890682520667
 30
0.0
 40
3.5479709542025244
  0
CIRCLE
  5
10C
330
17
100
AcDbEntity
  8
Aridos
100
AcDbCircle
 10
56.37861671054175
 20
224.43706281539866
 30
0.0
 40
3.16641082128957
  0
CIRCLE
  5
10D
330
17
100
AcDbEntity
  8
Aridos
100
AcDbCircle
 10
68.98584942838514
 20
244.30400715007326
 30
0.0
 40
3.231251577166441
  0
CIRCLE
  5
10E
330
17
100
AcDbEntity
  8
Aridos
100
AcDbCircle
 10
33.878061355594035
 20
251.55458128490073
 30
0.0
 40
3.7965552840942345
  0
CIRCLE
  5
10F
330
17
100
AcDbEntity
  8
Aridos
100
AcDbCircle
 10
66.76212971172644
 20
17.658297787265294
 30
0.0
 40
3.6353970338424393
  0
CIRCLE
  5
110
330
17
100
AcDbEntity
  8
Aridos
100
AcDbCircle
 10
11.63689885403263
 20
124.9086514177263
 30
0.0
 40
4.416254241553556
  0
CIRCLE
  5
111
330
17
100
AcDbEntity
  8
Aridos
100
AcDbCircle
 10
10.080750181813599
 20
41.596129501499526
 30
0.0
 40
2.9739308353801404
  0
CIRCLE
  5
112
330
17
100
AcDbEntity
  8
Aridos
100
AcDbCircle
 10
70.02171150179687
 20
177.8032861166137
 30
0.0
 40
4.425430480147474
  0
CIRCLE
  5
113
330
17
100
AcDbEntity
  8
Aridos
100
AcDbCircle
 10
71.21701974998362
 20
139.154441662322
 30
0.0
 40
2.901449013435848
  0
CIRCLE
  5
114
330
17
100
AcDbEntity
  8
Aridos
100
AcDbCircle
 10
69.56801983466895
 20
66.83381308261188
 30
0.0
 40
3.404605845928043
  0
CIRCLE
  5
115
330
17
100
AcDbEntity
  8
Aridos
100
AcDbCircle
 10
49.09344920566823
 20
196.97641692336208
 30
0.0
 40
2.0783389450675367
  0
CIRCLE
  5
116
330
17
100
AcDbEntity
  8
Aridos
100
AcDbCircle
 10
38.689490292632506
 20
270.1348051134425
 30
0.0
 40
2.7620006948713334
  0
CIRCLE
  5
117
330
17
100
AcDbEntity
  8
Aridos
100
AcDbCircle
 10
65.39013402662407
 20
124.27383295762263
 30
0.0
 40
2.1817366269901437
  0
CIRCLE
  5
118
330
17
100
AcDbEntity
  8
Aridos
100
AcDbCircle
 10
59.23924275722623
 20
210.45550518537192
 30
0.0
 40
3.168049813928899
  0
CIRCLE
  5
119
330
17
100
AcDbEntity
  8
Aridos
100
AcDbCircle
 10
59.409705727177695
 20
157.95980865686022
 30
0.0
 40
3.0336267345119503
  0
CIRCLE
  5
11A
330
17
100
AcDbEntity
  8
Aridos
100
AcDbCircle
 10
15.95294758513289
 20
228.37567680613788
 30
0.0
 40
3.055706780699568
  0
CIRCLE
  5
11B
330
17
100
AcDbEntity
  8
Aridos
100
AcDbCircle
 10
30.207029316809106
 20
199.41789431752863
 30
0.0
 40
3.9872757718547622
  0
CIRCLE
  5
11C
330
17
100
AcDbEntity
  8
Aridos
100
AcDbCircle
 10
46.957688416913236
 20
6.187218035777733
 30
0.0
 40
2.1412963713870266
  0
CIRCLE
  5
11D
330
17
100
AcDbEntity
  8
Aridos
100
AcDbCircle
 10
32.935789912437436
 20
53.178821583513525
 30
0.0
 40
4.242955028220954
  0
CIRCLE
  5
11E
330
17
100
AcDbEntity
  8
Aridos
100
AcDbCircle
 10
35.89158126854115
 20
60.13259999402557
 30
0.0
 40
2.796740938538697
  0
CIRCLE
  5
11F
330
17
100
AcDbEntity
  8
Aridos
100
AcDbCircle
 10
3.6514855718725814
 20
181.59037430870546
 30
0.0
 40
2.9099669593531057
  0
CIRCLE
  5
120
330
17
100
AcDbEntity
  8
Aridos
100
AcDbCircle
 10
25.838020710945372
 20
252.72453279538888
 30
0.0
 40
3.76372010641296
  0
CIRCLE
  5
121
330
17
100
AcDbEntity
  8
Aridos
100
AcDbCircle
 10
71.53363102464297
 20
86.30821792637109
 30
0.0
 40
2.5775874245551003
  0
CIRCLE
  5
122
330
17
100
AcDbEntity
  8
Aridos
100
AcDbCircle
 10
46.367790750197315
 20
124.2530264418018
 30
0.0
 40
3.3706760783383256
  0
CIRCLE
  5
123
330
17
100
AcDbEntity
  8
Aridos
100
AcDbCircle
 10
5.556515989046567
 20
137.97914228020903
 30
0.0
 40
2.798900498945037
  0
CIRCLE
  5
124
330
17
100
AcDbEntity
  8
Aridos
100
AcDbCircle
 10
66.81871321628931
 20
92.92948886957366
 30
0.0
 40
3.8255282520696374
  0
CIRCLE
  5
125
330
17
100
AcDbEntity
  8
Aridos
100
AcDbCircle
 10
19.073058898000653
 20
92.74789609102726
 30
0.0
 40
4.356430813998584
  0
CIRCLE
  5
126
330
17
100
AcDbEntity
  8
Aridos
100
AcDbCircle
 10
5.674767881012868
 20
34.68646936368115
 30
0.0
 40
3.936056306873661
  0
CIRCLE
  5
127
330
17
100
AcDbEntity
  8
Aridos
100
AcDbCircle
 10
54.500202606250895
 20
4.848998347800301
 30
0.0
 40
4.15947691488469
  0
CIRCLE
  5
128
330
17
100
AcDbEntity
  8
Aridos
100
AcDbCircle
 10
56.56224957621489
 20
192.66305184710976
 30
0.0
 40
4.072590379699852
  0
CIRCLE
  5
129
330
17
100
AcDbEntity
  8
Aridos
100
AcDbCircle
 10
30.29333702147521
 20
4.137285762557152
 30
0.0
 40
4.034491166766259
  0
CIRCLE
  5
12A
330
17
100
AcDbEntity
  8
Aridos
100
AcDbCircle
 10
37.42047157872933
 20
74.40756372762043
 30
0.0
 40
3.579155845833582
  0
CIRCLE
  5
12B
330
17
100
AcDbEntity
  8
Aridos
100
AcDbCircle
 10
42.20925753863059
 20
92.16600473869121
 30
0.0
 40
3.7202606402795313
  0
CIRCLE
  5
12C
330
17
100
AcDbEntity
  8
Aridos
100
AcDbCircle
 10
48.581682599485454
 20
146.88518085624042
 30
0.0
 40
2.2376385432021064
  0
CIRCLE
  5
12D
330
17
100
AcDbEntity
  8
Aridos
100
AcDbCircle
 10
6.032143942667084
 20
26.25497348561561
 30
0.0
 40
4.1909317760210865
  0
CIRCLE
  5
12E
330
17
100
AcDbEntity
  8
Aridos
100
AcDbCircle
 10
50.05087081582594
 20
93.06426807939484
 30
0.0
 40
4.082012707468999
  0
CIRCLE
  5
12F
330
17
100
AcDbEntity
  8
Aridos
100
AcDbCircle
 10
10.370473702459183
 20
241.43524281366444
 30
0.0
 40
3.051683717359661
  0
CIRCLE
  5
130
330
17
100
AcDbEntity
  8
Aridos
100
AcDbCircle
 10
7.133748296658854
 20
66.42362600073554
 30
0.0
 40
3.9395639513832923
  0
CIRCLE
  5
131
330
17
100
AcDbEntity
  8
Aridos
100
AcDbCircle
 10
26.71385382922281
 20
175.5940648433961
 30
0.0
 40
3.2274448069517807
  0
CIRCLE
  5
132
330
17
100
AcDbEntity
  8
Aridos
100
AcDbCircle
 10
3.683707870846295
 20
130.32182982747523
 30
0.0
 40
3.315086093157708
  0
CIRCLE
  5
133
330
17
100
AcDbEntity
  8
Aridos
100
AcDbCircle
 10
20.69765522738353
 20
142.3900622217997
 30
0.0
 40
3.7845433404908126
  0
CIRCLE
  5
134
330
17
100
AcDbEntity
  8
Aridos
100
AcDbCircle
 10
32.574074557185945
 20
143.96675079676402
 30
0.0
 40
2.307930924149467
  0
CIRCLE
  5
135
330
17
100
AcDbEntity
  8
Aridos
100
AcDbCircle
 10
54.13939210071081
 20
33.89093832012577
 30
0.0
 40
3.1319963660296515
  0
CIRCLE
  5
136
330
17
100
AcDbEntity
  8
Aridos
100
AcDbCircle
 10
70.70391733398394
 20
28.50187981777864
 30
0.0
 40
2.3534010803464094
  0
CIRCLE
  5
137
330
17
100
AcDbEntity
  8
Aridos
100
AcDbCircle
 10
53.22710626466111
 20
233.24756768776786
 30
0.0
 40
2.850190054004592
  0
CIRCLE
  5
138
330
17
100
AcDbEntity
  8
Aridos
100
AcDbCircle
 10
21.40787260206246
 20
26.37892387189427
 30
0.0
 40
2.583863704714469
  0
CIRCLE
  5
139
330
17
100
AcDbEntity
  8
Aridos
100
AcDbCircle
 10
3.44401952390668
 20
252.9648879553983
 30
0.0
 40
3.268610687139316
  0
CIRCLE
  5
13A
330
17
100
AcDbEntity
  8
Aridos
100
AcDbCircle
 10
3.639156050046294
 20
103.56718030876954
 30
0.0
 40
3.068536781972474
  0
CIRCLE
  5
13B
330
17
100
AcDbEntity
  8
Aridos
100
AcDbCircle
 10
26.72267580339259
 20
271.12997305051874
 30
0.0
 40
3.341180909377975
  0
CIRCLE
  5
13C
330
17
100
AcDbEntity
  8
Aridos
100
AcDbCircle
 10
36.718988061710654
 20
99.150286389813
 30
0.0
 40
4.172710497424564
  0
CIRCLE
  5
13D
330
17
100
AcDbEntity
  8
Aridos
100
AcDbCircle
 10
26.293266247029386
 20
220.4301874232817
 30
0.0
 40
4.108372123697096
  0
CIRCLE
  5
13E
330
17
100
AcDbEntity
  8
Aridos
100
AcDbCircle
 10
41.58038385898181
 20
119.67520241712775
 30
0.0
 40
1.041360667621316
  0
CIRCLE
  5
13F
330
17
100
AcDbEntity
  8
Aridos
100
AcDbCircle
 10
60.090928319282675
 20
92.98519729130241
 30
0.0
 40
1.077536994831732
  0
CIRCLE
  5
140
330
17
100
AcDbEntity
  8
Aridos
100
AcDbCircle
 10
41.66083665103222
 20
161.1558043091005
 30
0.0
 40
1.3680050792084093
  0
CIRCLE
  5
141
330
17
100
AcDbEntity
  8
Aridos
100
AcDbCircle
 10
31.64759175128094
 20
172.69287201235633
 30
0.0
 40
1.7443133193330707
  0
CIRCLE
  5
142
330
17
100
AcDbEntity
  8
Aridos
100
AcDbCircle
 10
19.382284793284416
 20
219.34015670555198
 30
0.0
 40
1.3884428735526604
  0
CIRCLE
  5
143
330
17
100
AcDbEntity
  8
Aridos
100
AcDbCircle
 10
27.05817265221502
 20
143.49366992593386
 30
0.0
 40
1.1463509167229082
  0
CIRCLE
  5
144
330
17
100
AcDbEntity
  8
Aridos
100
AcDbCircle
 10
16.796873042126155
 20
223.50408893275133
 30
0.0
 40
1.3773290886129015
  0
CIRCLE
  5
145
330
17
100
AcDbEntity
  8
Aridos
100
AcDbCircle
 10
71.69264176063668
 20
198.65319861507245
 30
0.0
 40
1.3714627803552513
  0
CIRCLE
  5
146
330
17
100
AcDbEntity
  8
Aridos
100
AcDbCircle
 10
32.37612827612762
 20
193.1461871358949
 30
0.0
 40
1.9326339783127584
  0
CIRCLE
  5
147
330
17
100
AcDbEntity
  8
Aridos
100
AcDbCircle
 10
41.31995388816267
 20
168.76117799627096
 30
0.0
 40
1.878709335861582
  0
CIRCLE
  5
148
330
17
100
AcDbEntity
  8
Aridos
100
AcDbCircle
 10
73.31961973616347
 20
121.74286174746169
 30
0.0
 40
1.6354028906563363
  0
CIRCLE
  5
149
330
17
100
AcDbEntity
  8
Aridos
100
AcDbCircle
 10
34.1766482150349
 20
46.88609815431348
 30
0.0
 40
1.0731118219787514
  0
CIRCLE
  5
14A
330
17
100
AcDbEntity
  8
Aridos
100
AcDbCircle
 10
67.79235094535639
 20
75.76227887327862
 30
0.0
 40
1.8473103626003158
  0
CIRCLE
  5
14B
330
17
100
AcDbEntity
  8
Aridos
100
AcDbCircle
 10
71.929076510869
 20
194.93642262599607
 30
0.0
 40
1.8506322881344337
  0
CIRCLE
  5
14C
330
17
100
AcDbEntity
  8
Aridos
100
AcDbCircle
 10
67.40124315203661
 20
82.6477112081548
 30
0.0
 40
1.3373024799382778
  0
CIRCLE
  5
14D
330
17
100
AcDbEntity
  8
Aridos
100
AcDbCircle
 10
45.6614725651773
 20
192.11850153189494
 30
0.0
 40
1.6444964306975
  0
CIRCLE
  5
14E
330
17
100
AcDbEntity
  8
Aridos
100
AcDbCircle
 10
47.043400628514114
 20
221.0651992916379
 30
0.0
 40
1.833026097414485
  0
CIRCLE
  5
14F
330
17
100
AcDbEntity
  8
Aridos
100
AcDbCircle
 10
55.60934533233004
 20
245.65988098369164
 30
0.0
 40
1.5344452204076813
  0
CIRCLE
  5
150
330
17
100
AcDbEntity
  8
Aridos
100
AcDbCircle
 10
72.46218155190854
 20
251.88413519320085
 30
0.0
 40
1.6610823129304484
  0
CIRCLE
  5
151
330
17
100
AcDbEntity
  8
Aridos
100
AcDbCircle
 10
23.305763434588094
 20
206.39374904563317
 30
0.0
 40
1.5907996202506949
  0
CIRCLE
  5
152
330
17
100
AcDbEntity
  8
Aridos
100
AcDbCircle
 10
48.13619699510687
 20
76.31918510045264
 30
0.0
 40
1.4080680028821333
  0
CIRCLE
  5
153
330
17
100
AcDbEntity
  8
Aridos
100
AcDbCircle
 10
4.661058712836386
 20
198.50142173224478
 30
0.0
 40
1.2296783375672402
  0
CIRCLE
  5
154
330
17
100
AcDbEntity
  8
Aridos
100
AcDbCircle
 10
24.476894107091375
 20
89.5015901356035
 30
0.0
 40
1.6891540550475876
  0
CIRCLE
  5
155
330
17
100
AcDbEntity
  8
Aridos
100
AcDbCircle
 10
17.61308429195588
 20
48.59200366259211
 30
0.0
 40
1.979296649784469
  0
CIRCLE
  5
156
330
17
100
AcDbEntity
  8
Aridos
100
AcDbCircle
 10
18.680762519259233
 20
208.448276930122
 30
0.0
 40
1.8612482498657266
  0
CIRCLE
  5
157
330
17
100
AcDbEntity
  8
Aridos
100
AcDbCircle
 10
27.50002048396586
 20
107.28432176677633
 30
0.0
 40
1.8547068703483187
  0
CIRCLE
  5
158
330
17
100
AcDbEntity
  8
Aridos
100
AcDbCircle
 10
13.42532731118689
 20
89.00309207690572
 30
0.0
 40
1.5520280946035543
  0
CIRCLE
  5
159
330
17
100
AcDbEntity
  8
Aridos
100
AcDbCircle
 10
51.159725495121904
 20
253.35673886107793
 30
0.0
 40
1.423649246773142
  0
CIRCLE
  5
15A
330
17
100
AcDbEntity
  8
Aridos
100
AcDbCircle
 10
3.06787026838638
 20
200.53441057221826
 30
0.0
 40
1.183257876281739
  0
CIRCLE
  5
15B
330
17
100
AcDbEntity
  8
Aridos
100
AcDbCircle
 10
14.364429991497726
 20
67.96551421678535
 30
0.0
 40
1.4201860565669553
  0
CIRCLE
  5
15C
330
17
100
AcDbEntity
  8
Aridos
100
AcDbCircle
 10
35.802070803409855
 20
147.56390486635382
 30
0.0
 40
1.679105630455585
  0
CIRCLE
  5
15D
330
17
100
AcDbEntity
  8
Aridos
100
AcDbCircle
 10
71.05262703318883
 20
74.6732446197138
 30
0.0
 40
1.3229275361851132
  0
CIRCLE
  5
15E
330
17
100
AcDbEntity
  8
Aridos
100
AcDbCircle
 10
30.29107925470389
 20
240.91969322619093
 30
0.0
 40
1.8741007203200089
  0
CIRCLE
  5
15F
330
17
100
AcDbEntity
  8
Aridos
100
AcDbCircle
 10
58.96000498884377
 20
239.2673692052487
 30
0.0
 40
1.8318801729054845
  0
CIRCLE
  5
160
330
17
100
AcDbEntity
  8
Aridos
100
AcDbCircle
 10
9.727906799779998
 20
272.622267525036
 30
0.0
 40
1.0814592436680703
  0
CIRCLE
  5
161
330
17
100
AcDbEntity
  8
Aridos
100
AcDbCircle
 10
35.056425841889336
 20
181.19786821242164
 30
0.0
 40
1.6018495208010357
  0
CIRCLE
  5
162
330
17
100
AcDbEntity
  8
Aridos
100
AcDbCircle
 10
15.43286447963737
 20
101.36473085673168
 30
0.0
 40
1.8656263701636755
  0
CIRCLE
  5
163
330
17
100
AcDbEntity
  8
Aridos
100
AcDbCircle
 10
35.93121233866622
 20
23.546206209708934
 30
0.0
 40
1.7151208554122932
  0
CIRCLE
  5
164
330
17
100
AcDbEntity
  8
Aridos
100
AcDbCircle
 10
24.227563412891083
 20
49.14261669185477
 30
0.0
 40
1.0895175776741777
  0
CIRCLE
  5
165
330
17
100
AcDbEntity
  8
Aridos
100
AcDbCircle
 10
36.90554639097177
 20
116.5316118594227
 30
0.0
 40
1.9565405373741247
  0
CIRCLE
  5
166
330
17
100
AcDbEntity
  8
Aridos
100
AcDbCircle
 10
21.068645471089017
 20
221.44894047044482
 30
0.0
 40
1.0097052865940943
  0
CIRCLE
  5
167
330
17
100
AcDbEntity
  8
Aridos
100
AcDbCircle
 10
2.333665178950567
 20
70.45755688813414
 30
0.0
 40
1.8232837073680719
  0
CIRCLE
  5
168
330
17
100
AcDbEntity
  8
Aridos
100
AcDbCircle
 10
54.14239853511624
 20
163.0013920337699
 30
0.0
 40
1.519483690275083
  0
CIRCLE
  5
169
330
17
100
AcDbEntity
  8
Aridos
100
AcDbCircle
 10
11.688752541558426
 20
107.74521293180686
 30
0.0
 40
1.117821677940911
  0
CIRCLE
  5
16A
330
17
100
AcDbEntity
  8
Aridos
100
AcDbCircle
 10
68.75050307283405
 20
144.18378082474345
 30
0.0
 40
1.5286380883589898
  0
CIRCLE
  5
16B
330
17
100
AcDbEntity
  8
Aridos
100
AcDbCircle
 10
44.35654088391978
 20
3.1516597059013356
 30
0.0
 40
1.6703610564468512
  0
CIRCLE
  5
16C
330
17
100
AcDbEntity
  8
Aridos
100
AcDbCircle
 10
3.144644379806802
 20
18.663302300756694
 30
0.0
 40
1.2335525558698324
  0
CIRCLE
  5
16D
330
17
100
AcDbEntity
  8
Aridos
100
AcDbCircle
 10
13.570483198342508
 20
256.36495512601203
 30
0.0
 40
1.660006132875956
  0
CIRCLE
  5
16E
330
17
100
AcDbEntity
  8
Aridos
100
AcDbCircle
 10
56.81496986620399
 20
215.39908339468113
 30
0.0
 40
1.1165134507746264
  0
CIRCLE
  5
16F
330
17
100
AcDbEntity
  8
Aridos
100
AcDbCircle
 10
45.538569717987414
 20
46.26075025402176
 30
0.0
 40
1.383019596245528
  0
CIRCLE
  5
170
330
17
100
AcDbEntity
  8
Aridos
100
AcDbCircle
 10
58.059360685715205
 20
171.91576324492488
 30
0.0
 40
1.6243141481688452
  0
CIRCLE
  5
171
330
17
100
AcDbEntity
  8
Aridos
100
AcDbCircle
 10
52.92045329582802
 20
11.58174123036855
 30
0.0
 40
1.2945068443158436
  0
CIRCLE
  5
172
330
17
100
AcDbEntity
  8
Aridos
100
AcDbCircle
 10
73.60268512574434
 20
254.85578876323902
 30
0.0
 40
1.1483001100891552
  0
CIRCLE
  5
173
330
17
100
AcDbEntity
  8
Aridos
100
AcDbCircle
 10
71.2761747622547
 20
147.63782252428476
 30
0.0
 40
1.2356350677319088
  0
CIRCLE
  5
174
330
17
100
AcDbEntity
  8
Aridos
100
AcDbCircle
 10
73.2766488748695
 20
258.8626249477111
 30
0.0
 40
1.5641020327529898
  0
CIRCLE
  5
175
330
17
100
AcDbEntity
  8
Aridos
100
AcDbCircle
 10
20.623491399897954
 20
170.72312091136655
 30
0.0
 40
1.9209693814442614
  0
CIRCLE
  5
176
330
17
100
AcDbEntity
  8
Aridos
100
AcDbCircle
 10
27.098421657698033
 20
204.27874636056427
 30
0.0
 40
1.7231777801547312
  0
CIRCLE
  5
177
330
17
100
AcDbEntity
  8
Aridos
100
AcDbCircle
 10
19.03551108992569
 20
16.747099158447714
 30
0.0
 40
1.9535771385430054
  0
CIRCLE
  5
178
330
17
100
AcDbEntity
  8
Aridos
100
AcDbCircle
 10
11.010080847985693
 20
225.3818949638781
 30
0.0
 40
1.2559986013805506
  0
CIRCLE
  5
179
330
17
100
AcDbEntity
  8
Aridos
100
AcDbCircle
 10
14.073321712298577
 20
156.50297410706148
 30
0.0
 40
1.6437226463937642
  0
CIRCLE
  5
17A
330
17
100
AcDbEntity
  8
Aridos
100
AcDbCircle
 10
17.878342351670753
 20
3.6702718160846914
 30
0.0
 40
1.3605286969310368
  0
CIRCLE
  5
17B
330
17
100
AcDbEntity
  8
Aridos
100
AcDbCircle
 10
59.99712492404694
 20
201.79804636409483
 30
0.0
 40
1.420980556297028
  0
CIRCLE
  5
17C
330
17
100
AcDbEntity
  8
Aridos
100
AcDbCircle
 10
38.605773165643065
 20
64.51031599682389
 30
0.0
 40
1.4191379090801925
  0
CIRCLE
  5
17D
330
17
100
AcDbEntity
  8
Aridos
100
AcDbCircle
 10
3.3169922667894673
 20
125.05665675208823
 30
0.0
 40
1.323879053088767
  0
CIRCLE
  5
17E
330
17
100
AcDbEntity
  8
Aridos
100
AcDbCircle
 10
54.63263259863793
 20
267.57005187418224
 30
0.0
 40
1.8200770285421939
  0
CIRCLE
  5
17F
330
17
100
AcDbEntity
  8
Aridos
100
AcDbCircle
 10
39.426293046635614
 20
227.4449631563588
 30
0.0
 40
1.4958603592328001
  0
CIRCLE
  5
180
330
17
100
AcDbEntity
  8
Aridos
100
AcDbCircle
 10
35.257699470443285
 20
245.50538960966477
 30
0.0
 40
1.9384059406715015
  0
CIRCLE
  5
181
330
17
100
AcDbEntity
  8
Aridos
100
AcDbCircle
 10
73.20000850631823
 20
61.610073619891565
 30
0.0
 40
1.2610398592625573
  0
CIRCLE
  5
182
330
17
100
AcDbEntity
  8
Aridos
100
AcDbCircle
 10
6.769137325393229
 20
185.0830634892936
 30
0.0
 40
1.464913601948798
  0
CIRCLE
  5
183
330
17
100
AcDbEntity
  8
Aridos
100
AcDbCircle
 10
63.62649579040748
 20
160.74280167646987
 30
0.0
 40
1.9137581737244194
  0
CIRCLE
  5
184
330
17
100
AcDbEntity
  8
Aridos
100
AcDbCircle
 10
43.29050554608971
 20
193.6395894413428
 30
0.0
 40
1.099125576848901
  0
CIRCLE
  5
185
330
17
100
AcDbEntity
  8
Aridos
100
AcDbCircle
 10
3.5268177431857923
 20
150.112893858551
 30
0.0
 40
1.646237784214752
  0
CIRCLE
  5
186
330
17
100
AcDbEntity
  8
Aridos
100
AcDbCircle
 10
48.70266088056043
 20
152.0748131181928
 30
0.0
 40
1.420928404865624
  0
CIRCLE
  5
187
330
17
100
AcDbEntity
  8
Aridos
100
AcDbCircle
 10
46.97588633174375
 20
253.91962429250088
 30
0.0
 40
1.567943797209756
  0
CIRCLE
  5
188
330
17
100
AcDbEntity
  8
Aridos
100
AcDbCircle
 10
24.640958042789226
 20
239.32636760763904
 30
0.0
 40
1.846457301925664
  0
CIRCLE
  5
189
330
17
100
AcDbEntity
  8
Aridos
100
AcDbCircle
 10
11.931979434239478
 20
267.9905958171315
 30
0.0
 40
1.1713787188661282
  0
CIRCLE
  5
18A
330
17
100
AcDbEntity
  8
Aridos
100
AcDbCircle
 10
3.665104980619527
 20
46.460034618314964
 30
0.0
 40
1.642782007594722
  0
CIRCLE
  5
18B
330
17
100
AcDbEntity
  8
Aridos
100
AcDbCircle
 10
44.39042769606349
 20
247.3324718294962
 30
0.0
 40
1.0581646137166454
  0
CIRCLE
  5
18C
330
17
100
AcDbEntity
  8
Aridos
100
AcDbCircle
 10
73.02066949231026
 20
225.42398919916587
 30
0.0
 40
1.173924731586085
  0
CIRCLE
  5
18D
330
17
100
AcDbEntity
  8
Aridos
100
AcDbCircle
 10
54.36707656494425
 20
75.38171240119128
 30
0.0
 40
1.8008605568966485
  0
CIRCLE
  5
18E
330
17
100
AcDbEntity
  8
Aridos
100
AcDbCircle
 10
33.656051176607974
 20
152.58007262751389
 30
0.0
 40
1.9752442173580635
  0
CIRCLE
  5
18F
330
17
100
AcDbEntity
  8
Aridos
100
AcDbCircle
 10
44.13978678853639
 20
268.9066167651574
 30
0.0
 40
1.9176418491426879
  0
CIRCLE
  5
190
330
17
100
AcDbEntity
  8
Aridos
100
AcDbCircle
 10
4.488629382585333
 20
176.43746533711658
 30
0.0
 40
1.9300838446479367
  0
CIRCLE
  5
191
330
17
100
AcDbEntity
  8
Aridos
100
AcDbCircle
 10
20.13945474943837
 20
74.48183891569202
 30
0.0
 40
1.894253477368531
  0
CIRCLE
  5
192
330
17
100
AcDbEntity
  8
Aridos
100
AcDbCircle
 10
1.7998795847150668
 20
155.35781371461562
 30
0.0
 40
1.2635315009384698
  0
CIRCLE
  5
193
330
17
100
AcDbEntity
  8
Aridos
100
AcDbCircle
 10
47.882261142387115
 20
206.67543741937192
 30
0.0
 40
1.4992301921434925
  0
CIRCLE
  5
194
330
17
100
AcDbEntity
  8
Aridos
100
AcDbCircle
 10
29.164391945513042
 20
104.06131436234938
 30
0.0
 40
1.4611157189531054
  0
CIRCLE
  5
195
330
17
100
AcDbEntity
  8
Aridos
100
AcDbCircle
 10
1.3031633897639368
 20
138.94070999632083
 30
0.0
 40
1.282167858066918
  0
CIRCLE
  5
196
330
17
100
AcDbEntity
  8
Aridos
100
AcDbCircle
 10
31.422915957629336
 20
72.86195029451554
 30
0.0
 40
1.6213617088953414
  0
CIRCLE
  5
197
330
17
100
AcDbEntity
  8
Aridos
100
AcDbCircle
 10
17.85406937968804
 20
25.59089630233891
 30
0.0
 40
1.0170000086996651
  0
CIRCLE
  5
198
330
17
100
AcDbEntity
  8
Aridos
100
AcDbCircle
 10
62.08795080769832
 20
116.5521784513766
 30
0.0
 40
1.8825344686406884
  0
CIRCLE
  5
199
330
17
100
AcDbEntity
  8
Aridos
100
AcDbCircle
 10
71.15971464147577
 20
134.2158538146623
 30
0.0
 40
1.1465987698758533
  0
CIRCLE
  5
19A
330
17
100
AcDbEntity
  8
Aridos
100
AcDbCircle
 10
52.07535251989749
 20
71.91172575188692
 30
0.0
 40
1.4002517828835264
  0
CIRCLE
  5
19B
330
17
100
AcDbEntity
  8
Aridos
100
AcDbCircle
 10
20.600153085258857
 20
67.45215087092619
 30
0.0
 40
1.6161581298260632
  0
CIRCLE
  5
19C
330
17
100
AcDbEntity
  8
Aridos
100
AcDbCircle
 10
41.02726651129006
 20
255.80220984193318
 30
0.0
 40
1.5881819966386312
  0
CIRCLE
  5
19D
330
17
100
AcDbEntity
  8
Aridos
100
AcDbCircle
 10
66.07675938103338
 20
199.8427341607802
 30
0.0
 40
1.0540441615823832
  0
CIRCLE
  5
19E
330
17
100
AcDbEntity
  8
Aridos
100
AcDbCircle
 10
15.658336459989489
 20
114.62330067412073
 30
0.0
 40
1.7534884972348144
  0
CIRCLE
  5
19F
330
17
100
AcDbEntity
  8
Aridos
100
AcDbCircle
 10
64.14178040477144
 20
189.4684757179753
 30
0.0
 40
1.5490755050884186
  0
CIRCLE
  5
1A0
330
17
100
AcDbEntity
  8
Aridos
100
AcDbCircle
 10
13.680148362149158
 20
111.63612444802143
 30
0.0
 40
1.5604536573832695
  0
CIRCLE
  5
1A1
330
17
100
AcDbEntity
  8
Aridos
100
AcDbCircle
 10
13.654736532067732
 20
272.6509384874556
 30
0.0
 40
1.7671055032148038
  0
CIRCLE
  5
1A2
330
17
100
AcDbEntity
  8
Aridos
100
AcDbCircle
 10
48.22367766815564
 20
46.916830711112134
 30
0.0
 40
1.2107889717501585
  0
CIRCLE
  5
1A3
330
17
100
AcDbEntity
  8
Aridos
100
AcDbCircle
 10
51.57158186712476
 20
103.95173371925497
 30
0.0
 40
1.9736755018730419
  0
CIRCLE
  5
1A4
330
17
100
AcDbEntity
  8
Aridos
100
AcDbCircle
 10
18.4142900341828
 20
52.98865912382599
 30
0.0
 40
1.5077193661
  0
CIRCLE
  5
1A5
330
17
100
AcDbEntity
  8
Aridos
100
AcDbCircle
 10
23.74571087487773
 20
85.29900946657352
 30
0.0
 40
1.4909788857129218
  0
CIRCLE
  5
1A6
330
17
100
AcDbEntity
  8
Aridos
100
AcDbCircle
 10
28.46947039958684
 20
10.631191009689312
 30
0.0
 40
1.8491991192968267
  0
CIRCLE
  5
1A7
330
17
100
AcDbEntity
  8
Aridos
100
AcDbCircle
 10
49.315686644473516
 20
189.76901421955557
 30
0.0
 40
1.3165432167198943
  0
CIRCLE
  5
1A8
330
17
100
AcDbEntity
  8
Aridos
100
AcDbCircle
 10
11.120467565584082
 20
3.2696777639078385
 30
0.0
 40
1.79819362698814
  0
CIRCLE
  5
1A9
330
17
100
AcDbEntity
  8
Aridos
100
AcDbCircle
 10
68.98279838657336
 20
97.75936325809829
 30
0.0
 40
1.2089490073223246
  0
CIRCLE
  5
1AA
330
17
100
AcDbEntity
  8
Aridos
100
AcDbCircle
 10
1.1556832808877593
 20
14.708180554614794
 30
0.0
 40
1.0082829247436682
  0
CIRCLE
  5
1AB
330
17
100
AcDbEntity
  8
Aridos
100
AcDbCircle
 10
24.46340347855286
 20
101.3518920313098
 30
0.0
 40
1.6492825130268116
  0
CIRCLE
  5
1AC
330
17
100
AcDbEntity
  8
Aridos
100
AcDbCircle
 10
3.752955429161753
 20
40.79509318668919
 30
0.0
 40
1.782874264214997
  0
CIRCLE
  5
1AD
330
17
100
AcDbEntity
  8
Aridos
100
AcDbCircle
 10
65.03638444804321
 20
239.62780386111746
 30
0.0
 40
1.1060049343224647
  0
CIRCLE
  5
1AE
330
17
100
AcDbEntity
  8
Aridos
100
AcDbCircle
 10
59.08937163729661
 20
88.83598186821987
 30
0.0
 40
1.4396881563676065
  0
CIRCLE
  5
1AF
330
17
100
AcDbEntity
  8
Aridos
100
AcDbCircle
 10
48.22569295149887
 20
119.2103506382342
 30
0.0
 40
1.0916696819193539
  0
CIRCLE
  5
1B0
330
17
100
AcDbEntity
  8
Aridos
100
AcDbCircle
 10
64.11325438215411
 20
67.519306676224
 30
0.0
 40
1.2123580709301631
  0
CIRCLE
  5
1B1
330
17
100
AcDbEntity
  8
Aridos
100
AcDbCircle
 10
72.9642550822323
 20
162.3931732813208
 30
0.0
 40
1.648376158837715
  0
CIRCLE
  5
1B2
330
17
100
AcDbEntity
  8
Aridos
100
AcDbCircle
 10
49.03081094356048
 20
24.519337247014867
 30
0.0
 40
1.601796811412355
  0
CIRCLE
  5
1B3
330
17
100
AcDbEntity
  8
Aridos
100
AcDbCircle
 10
21.488375427429038
 20
216.84882246807155
 30
0.0
 40
1.4684202979838972
  0
CIRCLE
  5
1B4
330
17
100
AcDbEntity
  8
Aridos
100
AcDbCircle
 10
71.55080413595272
 20
36.73779700133555
 30
0.0
 40
1.1295974119636378
  0
CIRCLE
  5
1B5
330
17
100
AcDbEntity
  8
Aridos
100
AcDbCircle
 10
19.68228889947891
 20
36.563402351841674
 30
0.0
 40
1.2460138887914292
  0
CIRCLE
  5
1B6
330
17
100
AcDbEntity
  8
Aridos
100
AcDbCircle
 10
70.78006520788277
 20
12.265138128289363
 30
0.0
 40
1.7764458082906631
  0
CIRCLE
  5
1B7
330
17
100
AcDbEntity
  8
Aridos
100
AcDbCircle
 10
48.81438959273729
 20
99.33339342537312
 30
0.0
 40
1.9474733460479168
  0
CIRCLE
  5
1B8
330
17
100
AcDbEntity
  8
Aridos
100
AcDbCircle
 10
14.53929554163588
 20
238.63242694053116
 30
0.0
 40
1.188316732225991
  0
CIRCLE
  5
1B9
330
17
100
AcDbEntity
  8
Aridos
100
AcDbCircle
 10
36.48405412046228
 20
169.4393936985875
 30
0.0
 40
1.9520713116751742
  0
CIRCLE
  5
1BA
330
17
100
AcDbEntity
  8
Aridos
100
AcDbCircle
 10
10.512118759197698
 20
197.76732033474877
 30
0.0
 40
1.9745033130378498
  0
CIRCLE
  5
1BB
330
17
100
AcDbEntity
  8
Aridos
100
AcDbCircle
 10
57.41969729530422
 20
47.1940927466476
 30
0.0
 40
1.244033237979819
  0
CIRCLE
  5
1BC
330
17
100
AcDbEntity
  8
Ptos_reactivos
100
AcDbCircle
 10
65.02645207497564
 20
103.64742008764786
 30
0.0
 40
0.11427335519371243
  0
CIRCLE
  5
1BD
330
17
100
AcDbEntity
  8
Ptos_reactivos
100
AcDbCircle
 10
37.79844766496919
 20
215.09328527443722
 30
0.0
 40
0.13685916486203298
  0
CIRCLE
  5
1BE
330
17
100
AcDbEntity
  8
Ptos_reactivos
100
AcDbCircle
 10
32.5727815436676
 20
164.67596587494364
 30
0.0
 40
0.24033238851020144
  0
CIRCLE
  5
1BF
330
17
100
AcDbEntity
  8
Ptos_reactivos
100
AcDbCircle
 10
57.6942669214669
 20
144.54785840411103
 30
0.0
 40
0.17201586831680005
  0
CIRCLE
  5
1C0
330
17
100
AcDbEntity
  8
Ptos_reactivos
100
AcDbCircle
 10
57.96958079375879
 20
122.80070513833593
 30
0.0
 40
0.0825030322938817
  0
CIRCLE
  5
1C1
330
17
100
AcDbEntity
  8
Ptos_reactivos
100
AcDbCircle
 10
18.024558371753766
 20
6.727371968743992
 30
0.0
 40
0.0646667148614631
  0
CIRCLE
  5
1C2
330
17
100
AcDbEntity
  8
Ptos_reactivos
100
AcDbCircle
 10
4.362196993464382
 20
42.15252365482985
 30
0.0
 40
0.1452281671970176
  0
CIRCLE
  5
1C3
330
17
100
AcDbEntity
  8
Ptos_reactivos
100
AcDbCircle
 10
71.73133981770724
 20
46.5759487638569
 30
0.0
 40
0.20345554579474068
  0
CIRCLE
  5
1C4
330
17
100
AcDbEntity
  8
Ptos_reactivos
100
AcDbCircle
 10
72.32045480960777
 20
28.792144797255865
 30
0.0
 40
0.08628749954543247
  0
CIRCLE
  5
1C5
330
17
100
AcDbEntity
  8
Ptos_reactivos
100
AcDbCircle
 10
6.165218309632891
 20
31.04553209575046
 30
0.0
 40
0.14409709937276438
  0
CIRCLE
  5
1C6
330
17
100
AcDbEntity
  8
Ptos_reactivos
100
AcDbCircle
 10
47.15907149929473
 20
121.18995294914346
 30
0.0
 40
0.07153025034021353
  0
CIRCLE
  5
1C7
330
17
100
AcDbEntity
  8
Ptos_reactivos
100
AcDbCircle
 10
38.73256646499933
 20
163.0420247228277
 30
0.0
 40
0.1123563951017394
  0
CIRCLE
  5
1C8
330
17
100
AcDbEntity
  8
Ptos_reactivos
100
AcDbCircle
 10
28.57947177781859
 20
126.83461857951148
 30
0.0
 40
0.13212259727012993
  0
CIRCLE
  5
1C9
330
17
100
AcDbEntity
  8
Ptos_reactivos
100
AcDbCircle
 10
4.237196243079724
 20
58.09045366736181
 30
0.0
 40
0.1198214093476172
  0
CIRCLE
  5
1CA
330
17
100
AcDbEntity
  8
Ptos_reactivos
100
AcDbCircle
 10
37.457101375620894
 20
260.7329692449182
 30
0.0
 40
0.08012988102344408
  0
CIRCLE
  5
1CB
330
17
100
AcDbEntity
  8
Ptos_reactivos
100
AcDbCircle
 10
2.9765301866148897
 20
71.05596829691247
 30
0.0
 40
0.10004100801723177
  0
CIRCLE
  5
1CC
330
17
100
AcDbEntity
  8
Ptos_reactivos
100
AcDbCircle
 10
55.4470558261675
 20
81.93124534569708
 30
0.0
 40
0.14948074165177927
  0
CIRCLE
  5
1CD
330
17
100
AcDbEntity
  8
Ptos_reactivos
100
AcDbCircle
 10
20.978620100395364
 20
115.33095065787998
 30
0.0
 40
0.24265843465133247
  0
CIRCLE
  5
1CE
330
17
100
AcDbEntity
  8
Ptos_reactivos
100
AcDbCircle
 10
21.913376521620396
 20
94.03443629751744
 30
0.0
 40
0.1464426118761356
  0
CIRCLE
  5
1CF
330
17
100
AcDbEntity
  8
Ptos_reactivos
100
AcDbCircle
 10
44.90137600202584
 20
47.21898762357258
 30
0.0
 40
0.08101156906777823
  0
CIRCLE
  5
1D0
330
17
100
AcDbEntity
  8
Ptos_reactivos
100
AcDbCircle
 10
2.055343857875405
 20
178.9922772617183
 30
0.0
 40
0.24827830540335893
  0
CIRCLE
  5
1D1
330
17
100
AcDbEntity
  8
Ptos_reactivos
100
AcDbCircle
 10
70.57691602317932
 20
213.37430871781015
 30
0.0
 40
0.20249738178213023
  0
CIRCLE
  5
1D2
330
17
100
AcDbEntity
  8
Ptos_reactivos
100
AcDbCircle
 10
6.5451677536110555
 20
139.29655255154844
 30
0.0
 40
0.12624078021803914
  0
CIRCLE
  5
1D3
330
17
100
AcDbEntity
  8
Ptos_reactivos
100
AcDbCircle
 10
58.91258733852107
 20
5.792529742470936
 30
0.0
 40
0.0909592197516779
  0
CIRCLE
  5
1D4
330
17
100
AcDbEntity
  8
Ptos_reactivos
100
AcDbCircle
 10
63.98358282987327
 20
141.7916548802934
 30
0.0
 40
0.07884162012529344
  0
CIRCLE
  5
1D5
330
17
100
AcDbEntity
  8
Ptos_reactivos
100
AcDbCircle
 10
7.150400577331534
 20
24.684284079149162
 30
0.0
 40
0.06808663017694808
  0
CIRCLE
  5
1D6
330
17
100
AcDbEntity
  8
Ptos_reactivos
100
AcDbCircle
 10
57.55147726949722
 20
212.71100050064362
 30
0.0
 40
0.199466739584841
  0
CIRCLE
  5
1D7
330
17
100
AcDbEntity
  8
Ptos_reactivos
100
AcDbCircle
 10
54.45326070799587
 20
239.69284538829862
 30
0.0
 40
0.1416461319372866
  0
CIRCLE
  5
1D8
330
17
100
AcDbEntity
  8
Ptos_reactivos
100
AcDbCircle
 10
63.79759271899239
 20
150.18906105954827
 30
0.0
 40
0.1794289287212355
  0
CIRCLE
  5
1D9
330
17
100
AcDbEntity
  8
Ptos_reactivos
100
AcDbCircle
 10
57.11857438074983
 20
67.60402015670778
 30
0.0
 40
0.22237832801512014
  0
CIRCLE
  5
1DA
330
17
100
AcDbEntity
  8
Ptos_reactivos
100
AcDbCircle
 10
46.019124093628584
 20
55.17627320500509
 30
0.0
 40
0.15011381374790816
  0
CIRCLE
  5
1DB
330
17
100
AcDbEntity
  8
Ptos_reactivos
100
AcDbCircle
 10
48.01335455210207
 20
170.8547729050263
 30
0.0
 40
0.1046561088293573
  0
CIRCLE
  5
1DC
330
17
100
AcDbEntity
  8
Ptos_reactivos
100
AcDbCircle
 10
43.6360702948892
 20
146.35110667381616
 30
0.0
 40
0.1643215248112913
  0
CIRCLE
  5
1DD
330
17
100
AcDbEntity
  8
Ptos_reactivos
100
AcDbCircle
 10
56.64825496526017
 20
25.023691397211305
 30
0.0
 40
0.08266568797547125
  0
CIRCLE
  5
1DE
330
17
100
AcDbEntity
  8
Ptos_reactivos
100
AcDbCircle
 10
6.9546643242295785
 20
33.91311470979553
 30
0.0
 40
0.10488424836551247
  0
CIRCLE
  5
1DF
330
17
100
AcDbEntity
  8
Ptos_reactivos
100
AcDbCircle
 10
60.85538173765601
 20
230.24343273075002
 30
0.0
 40
0.20248918820056222
  0
CIRCLE
  5
1E0
330
17
100
AcDbEntity
  8
Ptos_reactivos
100
AcDbCircle
 10
13.358706014376235
 20
173.22139322232536
 30
0.0
 40
0.2068601811271159
  0
CIRCLE
  5
1E1
330
17
100
AcDbEntity
  8
Ptos_reactivos
100
AcDbCircle
 10
19.52267908090517
 20
233.03683403986017
 30
0.0
 40
0.23378496266537735
  0
CIRCLE
  5
1E2
330
17
100
AcDbEntity
  8
Ptos_reactivos
100
AcDbCircle
 10
48.81607078343654
 20
98.61640914589623
 30
0.0
 40
0.15529865571854823
  0
CIRCLE
  5
1E3
330
17
100
AcDbEntity
  8
Ptos_reactivos
100
AcDbCircle
 10
38.02222995753737
 20
13.850723323437123
 30
0.0
 40
0.23350221338293226
  0
CIRCLE
  5
1E4
330
17
100
AcDbEntity
  8
Ptos_reactivos
100
AcDbCircle
 10
8.553433716401795
 20
168.57511761482385
 30
0.0
 40
0.11522530192241527
  0
CIRCLE
  5
1E5
330
17
100
AcDbEntity
  8
Ptos_reactivos
100
AcDbCircle
 10
5.033011032063869
 20
24.605277306626505
 30
0.0
 40
0.22060924768557533
  0
CIRCLE
  5
1E6
330
17
100
AcDbEntity
  8
Ptos_reactivos
100
AcDbCircle
 10
40.64465153738544
 20
178.51352143840714
 30
0.0
 40
0.06900210651275054
  0
CIRCLE
  5
1E7
330
17
100
AcDbEntity
  8
Ptos_reactivos
100
AcDbCircle
 10
17.83867977382454
 20
256.5232461749686
 30
0.0
 40
0.14775268911993777
  0
CIRCLE
  5
1E8
330
17
100
AcDbEntity
  8
Ptos_reactivos
100
AcDbCircle
 10
5.699611857781156
 20
80.1222659562179
 30
0.0
 40
0.0908676282807651
  0
CIRCLE
  5
1E9
330
17
100
AcDbEntity
  8
Ptos_reactivos
100
AcDbCircle
 10
20.68802949077606
 20
94.23326496769596
 30
0.0
 40
0.07741611208969504
  0
CIRCLE
  5
1EA
330
17
100
AcDbEntity
  8
Ptos_reactivos
100
AcDbCircle
 10
14.589914672075457
 20
161.59243539500744
 30
0.0
 40
0.11550009103457347
  0
CIRCLE
  5
1EB
330
17
100
AcDbEntity
  8
Ptos_reactivos
100
AcDbCircle
 10
31.3279436317304
 20
0.6247856344492819
 30
0.0
 40
0.19600961978521259
  0
CIRCLE
  5
1EC
330
17
100
AcDbEntity
  8
Ptos_reactivos
100
AcDbCircle
 10
34.951430271055905
 20
84.55784035507989
 30
0.0
 40
0.1940637609462878
  0
CIRCLE
  5
1ED
330
17
100
AcDbEntity
  8
Ptos_reactivos
100
AcDbCircle
 10
11.125529611125929
 20
133.11939541944054
 30
0.0
 40
0.14121445598620014
  0
CIRCLE
  5
1EE
330
17
100
AcDbEntity
  8
Ptos_reactivos
100
AcDbCircle
 10
38.77146573097056
 20
223.51367589631573
 30
0.0
 40
0.15165799095644938
  0
CIRCLE
  5
1EF
330
17
100
AcDbEntity
  8
Ptos_reactivos
100
AcDbCircle
 10
56.124866759885066
 20
83.50302736412083
 30
0.0
 40
0.10407134920965116
  0
CIRCLE
  5
1F0
330
17
100
AcDbEntity
  8
Ptos_reactivos
100
AcDbCircle
 10
57.536804589667874
 20
7.653874737370309
 30
0.0
 40
0.18861255390040865
  0
CIRCLE
  5
1F1
330
17
100
AcDbEntity
  8
Ptos_reactivos
100
AcDbCircle
 10
15.910174527828177
 20
43.0364946949619
 30
0.0
 40
0.24958683722013275
  0
CIRCLE
  5
1F2
330
17
100
AcDbEntity
  8
Ptos_reactivos
100
AcDbCircle
 10
37.287535660412324
 20
40.30563044035027
 30
0.0
 40
0.09973088325055686
  0
CIRCLE
  5
1F3
330
17
100
AcDbEntity
  8
Ptos_reactivos
100
AcDbCircle
 10
63.91372265517247
 20
253.69515842749175
 30
0.0
 40
0.10203927125544508
  0
CIRCLE
  5
1F4
330
17
100
AcDbEntity
  8
Ptos_reactivos
100
AcDbCircle
 10
69.36064770161934
 20
217.75737009768056
 30
0.0
 40
0.21328988315881608
  0
CIRCLE
  5
1F5
330
17
100
AcDbEntity
  8
Ptos_reactivos
100
AcDbCircle
 10
7.962747196949857
 20
240.15585012971195
 30
0.0
 40
0.05396986742545684
  0
CIRCLE
  5
1F6
330
17
100
AcDbEntity
  8
Ptos_reactivos
100
AcDbCircle
 10
8.873775074752038
 20
189.79906425146945
 30
0.0
 40
0.14234716448326395
  0
CIRCLE
  5
1F7
330
17
100
AcDbEntity
  8
Ptos_reactivos
100
AcDbCircle
 10
66.90203160374672
 20
246.4652415921919
 30
0.0
 40
0.08633765238599592
  0
CIRCLE
  5
1F8
330
17
100
AcDbEntity
  8
Ptos_reactivos
100
AcDbCircle
 10
52.204399459600396
 20
130.14517746974775
 30
0.0
 40
0.10414503419044951
  0
CIRCLE
  5
1F9
330
17
100
AcDbEntity
  8
Ptos_reactivos
100
AcDbCircle
 10
68.00790907384958
 20
57.15270377602171
 30
0.0
 40
0.22382256203848994
  0
CIRCLE
  5
1FA
330
17
100
AcDbEntity
  8
Ptos_reactivos
100
AcDbCircle
 10
71.045837990603
 20
178.88023031086396
 30
0.0
 40
0.2485051287285026
  0
CIRCLE
  5
1FB
330
17
100
AcDbEntity
  8
Ptos_reactivos
100
AcDbCircle
 10
54.439296227126135
 20
123.0557534557653
 30
0.0
 40
0.16116294370200385
  0
CIRCLE
  5
1FC
330
17
100
AcDbEntity
  8
Ptos_reactivos
100
AcDbCircle
 10
56.463339550174105
 20
265.1195143918791
 30
0.0
 40
0.06680893310740843
  0
CIRCLE
  5
1FD
330
17
100
AcDbEntity
  8
Ptos_reactivos
100
AcDbCircle
 10
42.97314215545295
 20
201.73669411296254
 30
0.0
 40
0.16355700216670324
  0
CIRCLE
  5
1FE
330
17
100
AcDbEntity
  8
Ptos_reactivos
100
AcDbCircle
 10
58.31743906875656
 20
126.19236750651834
 30
0.0
 40
0.0962607714679361
  0
CIRCLE
  5
1FF
330
17
100
AcDbEntity
  8
Ptos_reactivos
100
AcDbCircle
 10
60.74991116455001
 20
78.93412901151505
 30
0.0
 40
0.12926289247422101
  0
CIRCLE
  5
200
330
17
100
AcDbEntity
  8
Ptos_reactivos
100
AcDbCircle
 10
26.11144894109406
 20
161.32800399660076
 30
0.0
 40
0.056296272484470916
  0
CIRCLE
  5
201
330
17
100
AcDbEntity
  8
Ptos_reactivos
100
AcDbCircle
 10
3.53108739074858
 20
117.01063465556919
 30
0.0
 40
0.16176611462844637
  0
CIRCLE
  5
202
330
17
100
AcDbEntity
  8
Ptos_reactivos
100
AcDbCircle
 10
63.32101887585208
 20
205.29277276665223
 30
0.0
 40
0.07669030939444442
  0
CIRCLE
  5
203
330
17
100
AcDbEntity
  8
Ptos_reactivos
100
AcDbCircle
 10
33.55809358757779
 20
111.7722481151713
 30
0.0
 40
0.15009756934772658
  0
CIRCLE
  5
204
330
17
100
AcDbEntity
  8
Ptos_reactivos
100
AcDbCircle
 10
21.289796247731203
 20
44.66333238334256
 30
0.0
 40
0.2188228558568847
  0
CIRCLE
  5
205
330
17
100
AcDbEntity
  8
Ptos_reactivos
100
AcDbCircle
 10
61.383223287218975
 20
226.8923474148392
 30
0.0
 40
0.1608543956392171
  0
CIRCLE
  5
206
330
17
100
AcDbEntity
  8
Ptos_reactivos
100
AcDbCircle
 10
17.91403150471669
 20
26.031161934480345
 30
0.0
 40
0.16754539020987913
  0
CIRCLE
  5
207
330
17
100
AcDbEntity
  8
Ptos_reactivos
100
AcDbCircle
 10
11.13017189341152
 20
224.8999875159378
 30
0.0
 40
0.08607511792438094
  0
CIRCLE
  5
208
330
17
100
AcDbEntity
  8
Ptos_reactivos
100
AcDbCircle
 10
19.416125907432473
 20
170.94436118831257
 30
0.0
 40
0.17516836456022022
  0
CIRCLE
  5
209
330
17
100
AcDbEntity
  8
Ptos_reactivos
100
AcDbCircle
 10
41.14697134453651
 20
177.33925710839551
 30
0.0
 40
0.2082786346552261
  0
CIRCLE
  5
20A
330
17
100
AcDbEntity
  8
Ptos_reactivos
100
AcDbCircle
 10
29.721394010617914
 20
259.8657595092199
 30
0.0
 40
0.10483148706180967
  0
CIRCLE
  5
20B
330
17
100
AcDbEntity
  8
Ptos_reactivos
100
AcDbCircle
 10
65.11875967664247
 20
231.263387704581
 30
0.0
 40
0.1292868483856235
  0
CIRCLE
  5
20C
330
17
100
AcDbEntity
  8
Ptos_reactivos
100
AcDbCircle
 10
63.05310094150646
 20
34.58606888492741
 30
0.0
 40
0.1460808190052292
  0
CIRCLE
  5
20D
330
17
100
AcDbEntity
  8
Ptos_reactivos
100
AcDbCircle
 10
2.870129931808413
 20
97.17758587567769
 30
0.0
 40
0.06404161997011915
  0
CIRCLE
  5
20E
330
17
100
AcDbEntity
  8
Ptos_reactivos
100
AcDbCircle
 10
24.36137493741218
 20
209.76739708437273
 30
0.0
 40
0.05917652701643015
  0
CIRCLE
  5
20F
330
17
100
AcDbEntity
  8
Ptos_reactivos
100
AcDbCircle
 10
11.064855885598494
 20
114.9994528938907
 30
0.0
 40
0.172288084846136
  0
CIRCLE
  5
210
330
17
100
AcDbEntity
  8
Ptos_reactivos
100
AcDbCircle
 10
3.2126699109526453
 20
253.49782988308988
 30
0.0
 40
0.13326941825129113
  0
CIRCLE
  5
211
330
17
100
AcDbEntity
  8
Ptos_reactivos
100
AcDbCircle
 10
69.23778373193642
 20
141.19704645315136
 30
0.0
 40
0.05763031469072349
  0
CIRCLE
  5
212
330
17
100
AcDbEntity
  8
Ptos_reactivos
100
AcDbCircle
 10
71.77076195178537
 20
174.01999327472865
 30
0.0
 40
0.08749883546521416
  0
CIRCLE
  5
213
330
17
100
AcDbEntity
  8
Ptos_reactivos
100
AcDbCircle
 10
49.77693750125662
 20
253.82471434673408
 30
0.0
 40
0.19648556061301775
  0
CIRCLE
  5
214
330
17
100
AcDbEntity
  8
Ptos_reactivos
100
AcDbCircle
 10
7.073987501947113
 20
108.20237505467335
 30
0.0
 40
0.1485844468231775
  0
CIRCLE
  5
215
330
17
100
AcDbEntity
  8
Ptos_reactivos
100
AcDbCircle
 10
13.843610099133432
 20
146.23426860787686
 30
0.0
 40
0.21248985158066347
  0
CIRCLE
  5
216
330
17
100
AcDbEntity
  8
Ptos_reactivos
100
AcDbCircle
 10
14.718143033142962
 20
92.28285505416055
 30
0.0
 40
0.12427110272467712
  0
CIRCLE
  5
217
330
17
100
AcDbEntity
  8
Ptos_reactivos
100
AcDbCircle
 10
32.09651694797439
 20
29.186266061306682
 30
0.0
 40
0.18414883795409587
  0
CIRCLE
  5
218
330
17
100
AcDbEntity
  8
Ptos_reactivos
100
AcDbCircle
 10
57.43460850195651
 20
224.4070532458335
 30
0.0
 40
0.1261318349114783
  0
CIRCLE
  5
219
330
17
100
AcDbEntity
  8
Ptos_reactivos
100
AcDbCircle
 10
56.02582926840249
 20
193.41330980973115
 30
0.0
 40
0.11914243742903462
  0
CIRCLE
  5
21A
330
17
100
AcDbEntity
  8
Ptos_reactivos
100
AcDbCircle
 10
54.560342881539356
 20
81.87989685453432
 30
0.0
 40
0.07222622024485055
  0
CIRCLE
  5
21B
330
17
100
AcDbEntity
  8
Ptos_reactivos
100
AcDbCircle
 10
40.379664924565965
 20
138.54400122834886
 30
0.0
 40
0.18774209950462367
  0
CIRCLE
  5
21C
330
17
100
AcDbEntity
  8
Ptos_reactivos
100
AcDbCircle
 10
21.87605826341895
 20
90.9066886894496
 30
0.0
 40
0.08371157307182078
  0
CIRCLE
  5
21D
330
17
100
AcDbEntity
  8
Ptos_reactivos
100
AcDbCircle
 10
39.91487826084784
 20
11.510469943248076
 30
0.0
 40
0.2219125363091709
  0
CIRCLE
  5
21E
330
17
100
AcDbEntity
  8
Ptos_reactivos
100
AcDbCircle
 10
56.88339477543955
 20
163.5602863254096
 30
0.0
 40
0.2074726917113921
  0
CIRCLE
  5
21F
330
17
100
AcDbEntity
  8
Ptos_reactivos
100
AcDbCircle
 10
7.486581791244104
 20
230.00729229594012
 30
0.0
 40
0.19025375800511563
  0
CIRCLE
  5
220
330
17
100
AcDbEntity
  8
Ptos_reactivos
100
AcDbCircle
 10
26.07263189190605
 20
249.4450324223208
 30
0.0
 40
0.16343812045035533
  0
CIRCLE
  5
221
330
17
100
AcDbEntity
  8
Ptos_reactivos
100
AcDbCircle
 10
61.27716059619308
 20
31.949134540390563
 30
0.0
 40
0.166773814665937
  0
CIRCLE
  5
222
330
17
100
AcDbEntity
  8
Ptos_reactivos
100
AcDbCircle
 10
25.194487639251985
 20
214.92131359879147
 30
0.0
 40
0.23565549234784522
  0
CIRCLE
  5
223
330
17
100
AcDbEntity
  8
Ptos_reactivos
100
AcDbCircle
 10
46.261360348691746
 20
80.55080235313395
 30
0.0
 40
0.1080254853670803
  0
CIRCLE
  5
224
330
17
100
AcDbEntity
  8
Ptos_reactivos
100
AcDbCircle
 10
55.8973660092762
 20
25.42014975152365
 30
0.0
 40
0.06895748349333397
  0
CIRCLE
  5
225
330
17
100
AcDbEntity
  8
Ptos_reactivos
100
AcDbCircle
 10
28.752780086407565
 20
272.32628808859886
 30
0.0
 40
0.08435013382664061
  0
CIRCLE
  5
226
330
17
100
AcDbEntity
  8
Ptos_reactivos
100
AcDbCircle
 10
3.1198563357284685
 20
175.67332679436592
 30
0.0
 40
0.17407046027827133
  0
CIRCLE
  5
227
330
17
100
AcDbEntity
  8
Ptos_reactivos
100
AcDbCircle
 10
71.40988481916584
 20
244.6848713914062
 30
0.0
 40
0.13142082683323913
  0
CIRCLE
  5
228
330
17
100
AcDbEntity
  8
Ptos_reactivos
100
AcDbCircle
 10
46.92705668739869
 20
121.38168598881988
 30
0.0
 40
0.09353000899658284
  0
CIRCLE
  5
229
330
17
100
AcDbEntity
  8
Ptos_reactivos
100
AcDbCircle
 10
56.06097663375762
 20
253.7711559688932
 30
0.0
 40
0.10364395685515673
  0
CIRCLE
  5
22A
330
17
100
AcDbEntity
  8
Ptos_reactivos
100
AcDbCircle
 10
45.08142672331137
 20
130.65708369368147
 30
0.0
 40
0.1154662808690012
  0
CIRCLE
  5
22B
330
17
100
AcDbEntity
  8
Ptos_reactivos
100
AcDbCircle
 10
46.05330199342709
 20
153.53903455682732
 30
0.0
 40
0.07823097349528559
  0
CIRCLE
  5
22C
330
17
100
AcDbEntity
  8
Ptos_reactivos
100
AcDbCircle
 10
56.361728337652366
 20
67.20795437938767
 30
0.0
 40
0.16920722087696782
  0
CIRCLE
  5
22D
330
17
100
AcDbEntity
  8
Ptos_reactivos
100
AcDbCircle
 10
67.6988497425795
 20
103.61518537327986
 30
0.0
 40
0.18013109757627066
  0
CIRCLE
  5
22E
330
17
100
AcDbEntity
  8
Ptos_reactivos
100
AcDbCircle
 10
21.198720596945307
 20
139.22593214177144
 30
0.0
 40
0.1496499999729918
  0
CIRCLE
  5
22F
330
17
100
AcDbEntity
  8
Ptos_reactivos
100
AcDbCircle
 10
9.93662408074775
 20
127.71475299581108
 30
0.0
 40
0.10397646407902124
  0
CIRCLE
  5
230
330
17
100
AcDbEntity
  8
Ptos_reactivos
100
AcDbCircle
 10
56.92927436141796
 20
64.80227813954764
 30
0.0
 40
0.058043166842485165
  0
CIRCLE
  5
231
330
17
100
AcDbEntity
  8
Ptos_reactivos
100
AcDbCircle
 10
45.50358465924037
 20
252.37702359695874
 30
0.0
 40
0.06081052968200933
  0
CIRCLE
  5
232
330
17
100
AcDbEntity
  8
Ptos_reactivos
100
AcDbCircle
 10
9.10411762022132
 20
135.36924735366532
 30
0.0
 40
0.0725798890986523
  0
CIRCLE
  5
233
330
17
100
AcDbEntity
  8
Ptos_reactivos
100
AcDbCircle
 10
40.94185544955721
 20
13.091446470365591
 30
0.0
 40
0.14408501183621525
  0
CIRCLE
  5
234
330
17
100
AcDbEntity
  8
Ptos_reactivos
100
AcDbCircle
 10
7.3108430243302465
 20
231.98218202432588
 30
0.0
 40
0.133524720068447
  0
CIRCLE
  5
235
330
17
100
AcDbEntity
  8
Ptos_reactivos
100
AcDbCircle
 10
60.76721183073045
 20
104.32877809806592
 30
0.0
 40
0.08283855981395491
  0
CIRCLE
  5
236
330
17
100
AcDbEntity
  8
Ptos_reactivos
100
AcDbCircle
 10
37.58693792184103
 20
263.7963911877034
 30
0.0
 40
0.2469137439229942
  0
CIRCLE
  5
237
330
17
100
AcDbEntity
  8
Ptos_reactivos
100
AcDbCircle
 10
44.62958317649879
 20
138.0903852033589
 30
0.0
 40
0.21785564109679456
  0
CIRCLE
  5
238
330
17
100
AcDbEntity
  8
Ptos_reactivos
100
AcDbCircle
 10
61.31144056188178
 20
6.970110440434074
 30
0.0
 40
0.12212389055975902
  0
CIRCLE
  5
239
330
17
100
AcDbEntity
  8
Ptos_reactivos
100
AcDbCircle
 10
2.984344018786972
 20
116.73605239893396
 30
0.0
 40
0.20542889086101107
  0
CIRCLE
  5
23A
330
17
100
AcDbEntity
  8
Ptos_reactivos
100
AcDbCircle
 10
23.41356175655667
 20
107.35252164963418
 30
0.0
 40
0.08645490850087015
  0
CIRCLE
  5
23B
330
17
100
AcDbEntity
  8
Ptos_reactivos
100
AcDbCircle
 10
31.035218423065007
 20
98.28885996798877
 30
0.0
 40
0.23595439816310526
  0
CIRCLE
  5
23C
330
17
100
AcDbEntity
  8
Ptos_reactivos
100
AcDbCircle
 10
71.96398905897806
 20
150.87565629308702
 30
0.0
 40
0.07404476990279568
  0
CIRCLE
  5
23D
330
17
100
AcDbEntity
  8
Ptos_reactivos
100
AcDbCircle
 10
14.990010573695667
 20
219.30272167547267
 30
0.0
 40
0.24693410374895258
  0
CIRCLE
  5
23E
330
17
100
AcDbEntity
  8
Ptos_reactivos
100
AcDbCircle
 10
34.92195307435375
 20
229.22134641064724
 30
0.0
 40
0.194964088034484
  0
CIRCLE
  5
23F
330
17
100
AcDbEntity
  8
Ptos_reactivos
100
AcDbCircle
 10
23.04729493071494
 20
9.135566541753803
 30
0.0
 40
0.06491678004482385
  0
CIRCLE
  5
240
330
17
100
AcDbEntity
  8
Ptos_reactivos
100
AcDbCircle
 10
24.263781502356206
 20
70.80506171152446
 30
0.0
 40
0.14116306242071533
  0
CIRCLE
  5
241
330
17
100
AcDbEntity
  8
Ptos_reactivos
100
AcDbCircle
 10
3.5185438338207002
 20
149.89086334918056
 30
0.0
 40
0.0729091900821741
  0
CIRCLE
  5
242
330
17
100
AcDbEntity
  8
Ptos_reactivos
100
AcDbCircle
 10
27.24013503982134
 20
138.53729725334975
 30
0.0
 40
0.081704941495369
  0
CIRCLE
  5
243
330
17
100
AcDbEntity
  8
Ptos_reactivos
100
AcDbCircle
 10
8.758595141605069
 20
238.10996484392308
 30
0.0
 40
0.11049238371738546
  0
CIRCLE
  5
244
330
17
100
AcDbEntity
  8
Ptos_reactivos
100
AcDbCircle
 10
61.383846550947716
 20
97.33539546664899
 30
0.0
 40
0.19705022809056172
  0
CIRCLE
  5
245
330
17
100
AcDbEntity
  8
Ptos_reactivos
100
AcDbCircle
 10
52.06735208208767
 20
42.083278850304445
 30
0.0
 40
0.09828399701357436
  0
CIRCLE
  5
246
330
17
100
AcDbEntity
  8
Ptos_reactivos
100
AcDbCircle
 10
55.25907634431299
 20
59.66257374615423
 30
0.0
 40
0.21381547132774587
  0
CIRCLE
  5
247
330
17
100
AcDbEntity
  8
Ptos_reactivos
100
AcDbCircle
 10
63.92763265292718
 20
112.08128658748139
 30
0.0
 40
0.2328642518682062
  0
CIRCLE
  5
248
330
17
100
AcDbEntity
  8
Ptos_reactivos
100
AcDbCircle
 10
51.583733272999595
 20
5.195959751045898
 30
0.0
 40
0.1352569188516947
  0
CIRCLE
  5
249
330
17
100
AcDbEntity
  8
Ptos_reactivos
100
AcDbCircle
 10
61.663241397548965
 20
109.1709293541773
 30
0.0
 40
0.09102307499982704
  0
CIRCLE
  5
24A
330
17
100
AcDbEntity
  8
Ptos_reactivos
100
AcDbCircle
 10
27.383390819971595
 20
127.49259163063125
 30
0.0
 40
0.15615013268611155
  0
CIRCLE
  5
24B
330
17
100
AcDbEntity
  8
Ptos_reactivos
100
AcDbCircle
 10
67.15769083755677
 20
17.53758548577171
 30
0.0
 40
0.22584087827089588
  0
CIRCLE
  5
24C
330
17
100
AcDbEntity
  8
Ptos_reactivos
100
AcDbCircle
 10
47.97038444899066
 20
13.823107372072608
 30
0.0
 40
0.1618744496602964
  0
CIRCLE
  5
24D
330
17
100
AcDbEntity
  8
Ptos_reactivos
100
AcDbCircle
 10
3.3402091653105286
 20
237.06638580026694
 30
0.0
 40
0.13306973807949798
  0
CIRCLE
  5
24E
330
17
100
AcDbEntity
  8
Ptos_reactivos
100
AcDbCircle
 10
24.88862796246503
 20
261.4695950249021
 30
0.0
 40
0.19838452025603598
  0
CIRCLE
  5
24F
330
17
100
AcDbEntity
  8
Ptos_reactivos
100
AcDbCircle
 10
52.709569334016216
 20
42.013315861563854
 30
0.0
 40
0.23322411797337278
  0
CIRCLE
  5
250
330
17
100
AcDbEntity
  8
Ptos_reactivos
100
AcDbCircle
 10
68.92270197842946
 20
69.83095379049053
 30
0.0
 40
0.1262027168340467
  0
CIRCLE
  5
251
330
17
100
AcDbEntity
  8
Ptos_reactivos
100
AcDbCircle
 10
39.569923786789595
 20
198.99238671029724
 30
0.0
 40
0.09685570493562633
  0
CIRCLE
  5
252
330
17
100
AcDbEntity
  8
Ptos_reactivos
100
AcDbCircle
 10
27.061138499275174
 20
269.0138852579437
 30
0.0
 40
0.17473111627732985
  0
CIRCLE
  5
253
330
17
100
AcDbEntity
  8
Ptos_reactivos
100
AcDbCircle
 10
10.073411197899231
 20
273.65978606268277
 30
0.0
 40
0.2320451505394912
  0
CIRCLE
  5
254
330
17
100
AcDbEntity
  8
Ptos_reactivos
100
AcDbCircle
 10
29.520217843346465
 20
21.397582067873206
 30
0.0
 40
0.1319321588207144
  0
CIRCLE
  5
255
330
17
100
AcDbEntity
  8
Ptos_reactivos
100
AcDbCircle
 10
32.31107272036254
 20
192.21431606062663
 30
0.0
 40
0.16472689293194379
  0
CIRCLE
  5
256
330
17
100
AcDbEntity
  8
Ptos_reactivos
100
AcDbCircle
 10
55.67740210266891
 20
142.844232673838
 30
0.0
 40
0.1345698097711217
  0
CIRCLE
  5
257
330
17
100
AcDbEntity
  8
Ptos_reactivos
100
AcDbCircle
 10
59.133277366340906
 20
190.41713391996038
 30
0.0
 40
0.11246229432767474
  0
CIRCLE
  5
258
330
17
100
AcDbEntity
  8
Ptos_reactivos
100
AcDbCircle
 10
48.01329990681712
 20
151.5825099755366
 30
0.0
 40
0.23116998687620383
  0
CIRCLE
  5
259
330
17
100
AcDbEntity
  8
Ptos_reactivos
100
AcDbCircle
 10
22.40544002327213
 20
110.93544066235316
 30
0.0
 40
0.07112935184383296
  0
CIRCLE
  5
25A
330
17
100
AcDbEntity
  8
Ptos_reactivos
100
AcDbCircle
 10
64.65690855669041
 20
189.5463994932345
 30
0.0
 40
0.1575909036769893
  0
CIRCLE
  5
25B
330
17
100
AcDbEntity
  8
Ptos_reactivos
100
AcDbCircle
 10
37.80207804128946
 20
139.52297070769475
 30
0.0
 40
0.22870689612606038
  0
CIRCLE
  5
25C
330
17
100
AcDbEntity
  8
Ptos_reactivos
100
AcDbCircle
 10
61.065814677131165
 20
77.82175948853278
 30
0.0
 40
0.13659845974198404
  0
CIRCLE
  5
25D
330
17
100
AcDbEntity
  8
Ptos_reactivos
100
AcDbCircle
 10
18.146197563746334
 20
16.007733654384495
 30
0.0
 40
0.14113834224286437
  0
CIRCLE
  5
25E
330
17
100
AcDbEntity
  8
Ptos_reactivos
100
AcDbCircle
 10
61.205517907434825
 20
248.69556276457024
 30
0.0
 40
0.06832569144535078
  0
CIRCLE
  5
25F
330
17
100
AcDbEntity
  8
Ptos_reactivos
100
AcDbCircle
 10
11.989380933153127
 20
225.65764767985456
 30
0.0
 40
0.10810907185523065
  0
CIRCLE
  5
260
330
17
100
AcDbEntity
  8
Ptos_reactivos
100
AcDbCircle
 10
68.4745437811563
 20
211.33824948157644
 30
0.0
 40
0.06880400931012445
  0
CIRCLE
  5
261
330
17
100
AcDbEntity
  8
Ptos_reactivos
100
AcDbCircle
 10
17.020500332675564
 20
163.3023692044862
 30
0.0
 40
0.20850967156069738
  0
CIRCLE
  5
262
330
17
100
AcDbEntity
  8
Ptos_reactivos
100
AcDbCircle
 10
23.324623172946293
 20
134.70384125057709
 30
0.0
 40
0.19194162460020153
  0
CIRCLE
  5
263
330
17
100
AcDbEntity
  8
Ptos_reactivos
100
AcDbCircle
 10
71.92204833159143
 20
35.847293989542614
 30
0.0
 40
0.09101922434582643
  0
CIRCLE
  5
264
330
17
100
AcDbEntity
  8
Ptos_reactivos
100
AcDbCircle
 10
4.032748958260421
 20
135.94919121882504
 30
0.0
 40
0.06543814271267434
  0
CIRCLE
  5
265
330
17
100
AcDbEntity
  8
Ptos_reactivos
100
AcDbCircle
 10
46.26331297631301
 20
28.6805953084528
 30
0.0
 40
0.18242144795483412
  0
CIRCLE
  5
266
330
17
100
AcDbEntity
  8
Ptos_reactivos
100
AcDbCircle
 10
32.3286461965785
 20
55.6444247523701
 30
0.0
 40
0.2472906436465992
  0
CIRCLE
  5
267
330
17
100
AcDbEntity
  8
Ptos_reactivos
100
AcDbCircle
 10
71.73266541313858
 20
211.42686479878742
 30
0.0
 40
0.05836555660534107
  0
CIRCLE
  5
268
330
17
100
AcDbEntity
  8
Ptos_reactivos
100
AcDbCircle
 10
67.72915239256785
 20
82.38977836041545
 30
0.0
 40
0.23076430549804738
  0
CIRCLE
  5
269
330
17
100
AcDbEntity
  8
Ptos_reactivos
100
AcDbCircle
 10
20.55217477329476
 20
180.0724889866501
 30
0.0
 40
0.18535739583972588
  0
CIRCLE
  5
26A
330
17
100
AcDbEntity
  8
Ptos_reactivos
100
AcDbCircle
 10
67.31702304873056
 20
190.77036916462325
 30
0.0
 40
0.10776744043260189
  0
CIRCLE
  5
26B
330
17
100
AcDbEntity
  8
Ptos_reactivos
100
AcDbCircle
 10
39.912762908552835
 20
81.26406906452105
 30
0.0
 40
0.13508292607369532
  0
CIRCLE
  5
26C
330
17
100
AcDbEntity
  8
Ptos_reactivos
100
AcDbCircle
 10
6.03758882045316
 20
77.35115017668781
 30
0.0
 40
0.1698067830096589
  0
CIRCLE
  5
26D
330
17
100
AcDbEntity
  8
Ptos_reactivos
100
AcDbCircle
 10
69.79950112772839
 20
258.9550172851349
 30
0.0
 40
0.16188650726302967
  0
CIRCLE
  5
26E
330
17
100
AcDbEntity
  8
Ptos_reactivos
100
AcDbCircle
 10
44.21053075940161
 20
27.754727576586046
 30
0.0
 40
0.09306860971923991
  0
CIRCLE
  5
26F
330
17
100
AcDbEntity
  8
Ptos_reactivos
100
AcDbCircle
 10
68.51133051748133
 20
212.6571776345928
 30
0.0
 40
0.15497223435634402
  0
CIRCLE
  5
270
330
17
100
AcDbEntity
  8
Ptos_reactivos
100
AcDbCircle
 10
66.22227638798523
 20
101.19764282353151
 30
0.0
 40
0.057937010838334094
  0
CIRCLE
  5
271
330
17
100
AcDbEntity
  8
Ptos_reactivos
100
AcDbCircle
 10
16.04223449957108
 20
253.96372206466341
 30
0.0
 40
0.23188134123817927
  0
CIRCLE
  5
272
330
17
100
AcDbEntity
  8
Ptos_reactivos
100
AcDbCircle
 10
23.26373178079802
 20
43.19579474960199
 30
0.0
 40
0.08430695785112971
  0
CIRCLE
  5
273
330
17
100
AcDbEntity
  8
Ptos_reactivos
100
AcDbCircle
 10
27.034121722311077
 20
181.82905314318867
 30
0.0
 40
0.24274678237545078
  0
CIRCLE
  5
274
330
17
100
AcDbEntity
  8
Ptos_reactivos
100
AcDbCircle
 10
62.80581890640594
 20
7.3958598293626086
 30
0.0
 40
0.09519686272281368
  0
CIRCLE
  5
275
330
17
100
AcDbEntity
  8
Ptos_reactivos
100
AcDbCircle
 10
22.145967593376366
 20
80.78358927787329
 30
0.0
 40
0.20556506638765443
  0
CIRCLE
  5
276
330
17
100
AcDbEntity
  8
Ptos_reactivos
100
AcDbCircle
 10
22.642883854128403
 20
198.0432016881652
 30
0.0
 40
0.2178991682863493
  0
CIRCLE
  5
277
330
17
100
AcDbEntity
  8
Ptos_reactivos
100
AcDbCircle
 10
47.48562721486545
 20
58.664951194770026
 30
0.0
 40
0.200015603747297
  0
CIRCLE
  5
278
330
17
100
AcDbEntity
  8
Ptos_reactivos
100
AcDbCircle
 10
26.379808880303532
 20
221.32233300092838
 30
0.0
 40
0.13730436358126877
  0
CIRCLE
  5
279
330
17
100
AcDbEntity
  8
Ptos_reactivos
100
AcDbCircle
 10
30.72052956479273
 20
208.81498369551082
 30
0.0
 40
0.08658822512560943
  0
CIRCLE
  5
27A
330
17
100
AcDbEntity
  8
Ptos_reactivos
100
AcDbCircle
 10
32.51867318620016
 20
238.93422000522077
 30
0.0
 40
0.07072962335194191
  0
CIRCLE
  5
27B
330
17
100
AcDbEntity
  8
Ptos_reactivos
100
AcDbCircle
 10
39.93300769106274
 20
112.2389912782447
 30
0.0
 40
0.18442273734291265
  0
CIRCLE
  5
27C
330
17
100
AcDbEntity
  8
Ptos_reactivos
100
AcDbCircle
 10
21.6672695416815
 20
92.01778921552743
 30
0.0
 40
0.20556817889717466
  0
CIRCLE
  5
27D
330
17
100
AcDbEntity
  8
Ptos_reactivos
100
AcDbCircle
 10
44.8649661275975
 20
168.0347740028704
 30
0.0
 40
0.14947241497088884
  0
CIRCLE
  5
27E
330
17
100
AcDbEntity
  8
Ptos_reactivos
100
AcDbCircle
 10
20.461299616181176
 20
182.0970680465077
 30
0.0
 40
0.09508797010088066
  0
CIRCLE
  5
27F
330
17
100
AcDbEntity
  8
Ptos_reactivos
100
AcDbCircle
 10
20.336770871108552
 20
60.57989582401842
 30
0.0
 40
0.14573654692721863
  0
CIRCLE
  5
280
330
17
100
AcDbEntity
  8
Ptos_reactivos
100
AcDbCircle
 10
14.819709082916368
 20
11.55493304855498
 30
0.0
 40
0.12841412363761606
  0
CIRCLE
  5
281
330
17
100
AcDbEntity
  8
Ptos_reactivos
100
AcDbCircle
 10
7.734235487597846
 20
124.09583221353374
 30
0.0
 40
0.18199336321590803
  0
CIRCLE
  5
282
330
17
100
AcDbEntity
  8
Ptos_reactivos
100
AcDbCircle
 10
28.205909566990666
 20
72.98597162370002
 30
0.0
 40
0.23033042246586727
  0
CIRCLE
  5
283
330
17
100
AcDbEntity
  8
Ptos_reactivos
100
AcDbCircle
 10
11.266917877629535
 20
214.70774979333314
 30
0.0
 40
0.11396060875059891
  0
CIRCLE
  5
284
330
17
100
AcDbEntity
  8
Ptos_reactivos
100
AcDbCircle
 10
56.278550511446305
 20
188.52688949817164
 30
0.0
 40
0.1325857555891447
  0
CIRCLE
  5
285
330
17
100
AcDbEntity
  8
Ptos_reactivos
100
AcDbCircle
 10
10.035437346345116
 20
19.366136785400272
 30
0.0
 40
0.07338801159692908
  0
CIRCLE
  5
286
330
17
100
AcDbEntity
  8
Ptos_reactivos
100
AcDbCircle
 10
55.77195353444807
 20
103.81023955770819
 30
0.0
 40
0.21421492311946316
  0
CIRCLE
  5
287
330
17
100
AcDbEntity
  8
Ptos_reactivos
100
AcDbCircle
 10
4.719786630485864
 20
127.39591524493491
 30
0.0
 40
0.13588692983790496
  0
CIRCLE
  5
288
330
17
100
AcDbEntity
  8
Ptos_reactivos
100
AcDbCircle
 10
47.433442052129024
 20
88.30376997061236
 30
0.0
 40
0.11822821680367022
  0
CIRCLE
  5
289
330
17
100
AcDbEntity
  8
Ptos_reactivos
100
AcDbCircle
 10
45.23832750620785
 20
28.32916528484968
 30
0.0
 40
0.09640140212353845
  0
CIRCLE
  5
28A
330
17
100
AcDbEntity
  8
Ptos_reactivos
100
AcDbCircle
 10
38.338934876774104
 20
124.48594877013396
 30
0.0
 40
0.1957533768609761
  0
CIRCLE
  5
28B
330
17
100
AcDbEntity
  8
Ptos_reactivos
100
AcDbCircle
 10
24.191259813567
 20
217.87889779217673
 30
0.0
 40
0.08957413818409075
  0
CIRCLE
  5
28C
330
17
100
AcDbEntity
  8
Ptos_reactivos
100
AcDbCircle
 10
29.544710405815003
 20
259.08223974434486
 30
0.0
 40
0.15055706495146087
  0
CIRCLE
  5
28D
330
17
100
AcDbEntity
  8
Ptos_reactivos
100
AcDbCircle
 10
56.4074191458612
 20
185.6595008501647
 30
0.0
 40
0.2263393216076695
  0
CIRCLE
  5
28E
330
17
100
AcDbEntity
  8
Ptos_reactivos
100
AcDbCircle
 10
30.432727739293036
 20
132.96959063809553
 30
0.0
 40
0.2333532177113204
  0
CIRCLE
  5
28F
330
17
100
AcDbEntity
  8
Ptos_reactivos
100
AcDbCircle
 10
19.513912751505007
 20
77.0898181323206
 30
0.0
 40
0.1490187825221182
  0
CIRCLE
  5
290
330
17
100
AcDbEntity
  8
Ptos_reactivos
100
AcDbCircle
 10
20.00859324764249
 20
14.932054229269658
 30
0.0
 40
0.12497427565000048
  0
CIRCLE
  5
291
330
17
100
AcDbEntity
  8
Ptos_reactivos
100
AcDbCircle
 10
10.076139949870822
 20
236.53841090299204
 30
0.0
 40
0.15810318242014382
  0
CIRCLE
  5
292
330
17
100
AcDbEntity
  8
Ptos_reactivos
100
AcDbCircle
 10
43.50103202346599
 20
88.67809922378004
 30
0.0
 40
0.10941968180096938
  0
CIRCLE
  5
293
330
17
100
AcDbEntity
  8
Ptos_reactivos
100
AcDbCircle
 10
29.751391765503207
 20
222.2670982330468
 30
0.0
 40
0.12711877292695983
  0
CIRCLE
  5
294
330
17
100
AcDbEntity
  8
Ptos_reactivos
100
AcDbCircle
 10
47.87265244755856
 20
172.6184313441994
 30
0.0
 40
0.14382805822009576
  0
CIRCLE
  5
295
330
17
100
AcDbEntity
  8
Ptos_reactivos
100
AcDbCircle
 10
7.0119326529973405
 20
167.31016335481476
 30
0.0
 40
0.1414890538308226
  0
CIRCLE
  5
296
330
17
100
AcDbEntity
  8
Ptos_reactivos
100
AcDbCircle
 10
48.632479599946166
 20
182.07886880018893
 30
0.0
 40
0.11802252004274488
  0
CIRCLE
  5
297
330
17
100
AcDbEntity
  8
Ptos_reactivos
100
AcDbCircle
 10
28.200248786994973
 20
266.3944065362997
 30
0.0
 40
0.223835463845919
  0
CIRCLE
  5
298
330
17
100
AcDbEntity
  8
Ptos_reactivos
100
AcDbCircle
 10
6.894697443027872
 20
67.96277999628377
 30
0.0
 40
0.1684771057621305
  0
CIRCLE
  5
299
330
17
100
AcDbEntity
  8
Ptos_reactivos
100
AcDbCircle
 10
56.19193723712422
 20
223.58384637781455
 30
0.0
 40
0.24986525528309111
  0
CIRCLE
  5
29A
330
17
100
AcDbEntity
  8
Ptos_reactivos
100
AcDbCircle
 10
31.331343829343492
 20
193.68344609276437
 30
0.0
 40
0.054177947752305715
  0
CIRCLE
  5
29B
330
17
100
AcDbEntity
  8
Ptos_reactivos
100
AcDbCircle
 10
25.90965983366353
 20
150.87643605192017
 30
0.0
 40
0.11168035768532876
  0
CIRCLE
  5
29C
330
17
100
AcDbEntity
  8
Ptos_reactivos
100
AcDbCircle
 10
6.622230527273929
 20
104.57267814029285
 30
0.0
 40
0.15712062567860777
  0
CIRCLE
  5
29D
330
17
100
AcDbEntity
  8
Ptos_reactivos
100
AcDbCircle
 10
7.7721814531546505
 20
40.12348960822176
 30
0.0
 40
0.133890003647037
  0
CIRCLE
  5
29E
330
17
100
AcDbEntity
  8
Ptos_reactivos
100
AcDbCircle
 10
50.44366058427729
 20
85.28582558168075
 30
0.0
 40
0.09699614115847457
  0
CIRCLE
  5
29F
330
17
100
AcDbEntity
  8
Ptos_reactivos
100
AcDbCircle
 10
41.59591638027741
 20
111.57042609462289
 30
0.0
 40
0.17098756985007763
  0
CIRCLE
  5
2A0
330
17
100
AcDbEntity
  8
Ptos_reactivos
100
AcDbCircle
 10
37.61104753001149
 20
154.61689285917637
 30
0.0
 40
0.18767248167535655
  0
CIRCLE
  5
2A1
330
17
100
AcDbEntity
  8
Ptos_reactivos
100
AcDbCircle
 10
29.608617078999437
 20
63.20974980024324
 30
0.0
 40
0.1371433217291147
  0
CIRCLE
  5
2A2
330
17
100
AcDbEntity
  8
Ptos_reactivos
100
AcDbCircle
 10
61.731824379561964
 20
268.5359262435463
 30
0.0
 40
0.12391170255442768
  0
CIRCLE
  5
2A3
330
17
100
AcDbEntity
  8
Ptos_reactivos
100
AcDbCircle
 10
27.99221819319828
 20
163.1347822529016
 30
0.0
 40
0.1034126989758156
  0
CIRCLE
  5
2A4
330
17
100
AcDbEntity
  8
Ptos_reactivos
100
AcDbCircle
 10
42.06848416897709
 20
145.80986439879035
 30
0.0
 40
0.11244514158563648
  0
CIRCLE
  5
2A5
330
17
100
AcDbEntity
  8
Ptos_reactivos
100
AcDbCircle
 10
27.154393682193703
 20
43.31571341745147
 30
0.0
 40
0.15656029996179838
  0
CIRCLE
  5
2A6
330
17
100
AcDbEntity
  8
Ptos_reactivos
100
AcDbCircle
 10
4.946875659543537
 20
24.342941329638805
 30
0.0
 40
0.05357669622090575
  0
CIRCLE
  5
2A7
330
17
100
AcDbEntity
  8
Ptos_reactivos
100
AcDbCircle
 10
52.1854155920048
 20
62.32067949166332
 30
0.0
 40
0.07360730356486692
  0
CIRCLE
  5
2A8
330
17
100
AcDbEntity
  8
Ptos_reactivos
100
AcDbCircle
 10
20.51047458848211
 20
17.99600031119665
 30
0.0
 40
0.06762785105010667
  0
CIRCLE
  5
2A9
330
17
100
AcDbEntity
  8
Ptos_reactivos
100
AcDbCircle
 10
53.27322467914425
 20
35.73745023380756
 30
0.0
 40
0.14566509200949312
  0
CIRCLE
  5
2AA
330
17
100
AcDbEntity
  8
Ptos_reactivos
100
AcDbCircle
 10
28.706363022535825
 20
176.19638245338706
 30
0.0
 40
0.21744241091890465
  0
CIRCLE
  5
2AB
330
17
100
AcDbEntity
  8
Ptos_reactivos
100
AcDbCircle
 10
54.45184429526785
 20
185.83062452192218
 30
0.0
 40
0.24094795167087207
  0
CIRCLE
  5
2AC
330
17
100
AcDbEntity
  8
Ptos_reactivos
100
AcDbCircle
 10
67.39032295430974
 20
34.23156348988676
 30
0.0
 40
0.1866878184700973
  0
CIRCLE
  5
2AD
330
17
100
AcDbEntity
  8
Ptos_reactivos
100
AcDbCircle
 10
63.16139913316249
 20
111.34805806949646
 30
0.0
 40
0.17428455124160983
  0
CIRCLE
  5
2AE
330
17
100
AcDbEntity
  8
Ptos_reactivos
100
AcDbCircle
 10
18.39541327444661
 20
120.79400994623654
 30
0.0
 40
0.14132835619597306
  0
CIRCLE
  5
2AF
330
17
100
AcDbEntity
  8
Ptos_reactivos
100
AcDbCircle
 10
28.006566136965162
 20
172.7891037989961
 30
0.0
 40
0.20342611283942091
  0
CIRCLE
  5
2B0
330
17
100
AcDbEntity
  8
Ptos_reactivos
100
AcDbCircle
 10
58.158261041721424
 20
15.474155466478
 30
0.0
 40
0.09652637078290174
  0
CIRCLE
  5
2B1
330
17
100
AcDbEntity
  8
Ptos_reactivos
100
AcDbCircle
 10
25.426599595099102
 20
219.0812966286065
 30
0.0
 40
0.2289060698271974
  0
CIRCLE
  5
2B2
330
17
100
AcDbEntity
  8
Ptos_reactivos
100
AcDbCircle
 10
27.5930235342132
 20
190.44213894075804
 30
0.0
 40
0.22177862433085455
  0
CIRCLE
  5
2B3
330
17
100
AcDbEntity
  8
Ptos_reactivos
100
AcDbCircle
 10
67.62822796549156
 20
114.02373708859785
 30
0.0
 40
0.2481251285962075
  0
CIRCLE
  5
2B4
330
17
100
AcDbEntity
  8
Ptos_reactivos
100
AcDbCircle
 10
2.5815188083600615
 20
19.746399472941818
 30
0.0
 40
0.07280339032652078
  0
CIRCLE
  5
2B5
330
17
100
AcDbEntity
  8
Ptos_reactivos
100
AcDbCircle
 10
52.55601277285103
 20
185.58014884243312
 30
0.0
 40
0.057757435564422525
  0
CIRCLE
  5
2B6
330
17
100
AcDbEntity
  8
Ptos_reactivos
100
AcDbCircle
 10
9.816285476862799
 20
50.589912466442506
 30
0.0
 40
0.20109624839594253
  0
CIRCLE
  5
2B7
330
17
100
AcDbEntity
  8
Ptos_reactivos
100
AcDbCircle
 10
58.86705423228028
 20
164.17419579136345
 30
0.0
 40
0.08065885588998932
  0
CIRCLE
  5
2B8
330
17
100
AcDbEntity
  8
Ptos_reactivos
100
AcDbCircle
 10
51.297972306226065
 20
110.52564937353057
 30
0.0
 40
0.1830779663615662
  0
CIRCLE
  5
2B9
330
17
100
AcDbEntity
  8
Ptos_reactivos
100
AcDbCircle
 10
9.386314739834035
 20
4.093185061447022
 30
0.0
 40
0.1746740395845171
  0
CIRCLE
  5
2BA
330
17
100
AcDbEntity
  8
Ptos_reactivos
100
AcDbCircle
 10
33.91023269691651
 20
194.20493396317488
 30
0.0
 40
0.2452240844460602
  0
CIRCLE
  5
2BB
330
17
100
AcDbEntity
  8
Ptos_reactivos
100
AcDbCircle
 10
18.578663328426266
 20
63.55102243701243
 30
0.0
 40
0.2073956799379716
  0
CIRCLE
  5
2BC
330
17
100
AcDbEntity
  8
Ptos_reactivos
100
AcDbCircle
 10
50.06435629632716
 20
190.26928922384482
 30
0.0
 40
0.1872786337656856
  0
CIRCLE
  5
2BD
330
17
100
AcDbEntity
  8
Ptos_reactivos
100
AcDbCircle
 10
67.12525128483728
 20
40.15626469695247
 30
0.0
 40
0.11991951467540958
  0
CIRCLE
  5
2BE
330
17
100
AcDbEntity
  8
Ptos_reactivos
100
AcDbCircle
 10
39.385434114046454
 20
237.25624631150635
 30
0.0
 40
0.1202937133233732
  0
CIRCLE
  5
2BF
330
17
100
AcDbEntity
  8
Ptos_reactivos
100
AcDbCircle
 10
61.88640469960639
 20
195.98060312027025
 30
0.0
 40
0.1306535248340283
  0
CIRCLE
  5
2C0
330
17
100
AcDbEntity
  8
Ptos_reactivos
100
AcDbCircle
 10
24.467343269056556
 20
71.3353439580023
 30
0.0
 40
0.06233362624529884
  0
CIRCLE
  5
2C1
330
17
100
AcDbEntity
  8
Ptos_reactivos
100
AcDbCircle
 10
2.8085664128725654
 20
111.19726745796612
 30
0.0
 40
0.152423368630356
  0
CIRCLE
  5
2C2
330
17
100
AcDbEntity
  8
Ptos_reactivos
100
AcDbCircle
 10
10.780469594727265
 20
220.9118245578321
 30
0.0
 40
0.17045392255036773
  0
CIRCLE
  5
2C3
330
17
100
AcDbEntity
  8
Ptos_reactivos
100
AcDbCircle
 10
57.54545147704015
 20
103.08791315672352
 30
0.0
 40
0.18174525867441998
  0
CIRCLE
  5
2C4
330
17
100
AcDbEntity
  8
Ptos_reactivos
100
AcDbCircle
 10
60.06167581896471
 20
211.69523223124116
 30
0.0
 40
0.13422995949391958
  0
CIRCLE
  5
2C5
330
17
100
AcDbEntity
  8
Ptos_reactivos
100
AcDbCircle
 10
60.34611510003272
 20
192.08631350448482
 30
0.0
 40
0.2343194975385643
  0
CIRCLE
  5
2C6
330
17
100
AcDbEntity
  8
Ptos_reactivos
100
AcDbCircle
 10
38.77837326601648
 20
197.05652371057096
 30
0.0
 40
0.0689764265286516
  0
CIRCLE
  5
2C7
330
17
100
AcDbEntity
  8
Ptos_reactivos
100
AcDbCircle
 10
63.66446631973385
 20
231.7278367129888
 30
0.0
 40
0.058185623745724696
  0
CIRCLE
  5
2C8
330
17
100
AcDbEntity
  8
Ptos_reactivos
100
AcDbCircle
 10
53.871530269540656
 20
8.912671442700864
 30
0.0
 40
0.12392682653345788
  0
CIRCLE
  5
2C9
330
17
100
AcDbEntity
  8
Ptos_reactivos
100
AcDbCircle
 10
74.47345354497988
 20
120.98654413258795
 30
0.0
 40
0.05448141825624875
  0
CIRCLE
  5
2CA
330
17
100
AcDbEntity
  8
Ptos_reactivos
100
AcDbCircle
 10
11.251531571755496
 20
71.69091196486627
 30
0.0
 40
0.06654652681971605
  0
CIRCLE
  5
2CB
330
17
100
AcDbEntity
  8
Ptos_reactivos
100
AcDbCircle
 10
69.85577283609538
 20
64.94308347710808
 30
0.0
 40
0.16596284918598236
  0
CIRCLE
  5
2CC
330
17
100
AcDbEntity
  8
Ptos_reactivos
100
AcDbCircle
 10
52.27885398300489
 20
95.8353237180284
 30
0.0
 40
0.15114620542190796
  0
CIRCLE
  5
2CD
330
17
100
AcDbEntity
  8
Ptos_reactivos
100
AcDbCircle
 10
65.92179987730958
 20
227.88919421122722
 30
0.0
 40
0.21642681854786644
  0
CIRCLE
  5
2CE
330
17
100
AcDbEntity
  8
Ptos_reactivos
100
AcDbCircle
 10
68.73356547197965
 20
178.57552637965082
 30
0.0
 40
0.1632338456036954
  0
CIRCLE
  5
2CF
330
17
100
AcDbEntity
  8
Ptos_reactivos
100
AcDbCircle
 10
64.983440886788
 20
228.61881109640942
 30
0.0
 40
0.1605708339856547
  0
CIRCLE
  5
2D0
330
17
100
AcDbEntity
  8
Ptos_reactivos
100
AcDbCircle
 10
8.374204850916309
 20
115.66962302543664
 30
0.0
 40
0.08039648654785916
  0
CIRCLE
  5
2D1
330
17
100
AcDbEntity
  8
Ptos_reactivos
100
AcDbCircle
 10
12.259354707795245
 20
19.323124027080816
 30
0.0
 40
0.23771155264929683
  0
CIRCLE
  5
2D2
330
17
100
AcDbEntity
  8
Ptos_reactivos
100
AcDbCircle
 10
24.211989417197568
 20
222.71544778356397
 30
0.0
 40
0.12144247713650554
  0
CIRCLE
  5
2D3
330
17
100
AcDbEntity
  8
Ptos_reactivos
100
AcDbCircle
 10
5.195692546456818
 20
27.188331190313157
 30
0.0
 40
0.09858706000713505
  0
CIRCLE
  5
2D4
330
17
100
AcDbEntity
  8
Ptos_reactivos
100
AcDbCircle
 10
49.27695658258571
 20
15.514175691889797
 30
0.0
 40
0.11100939610747594
  0
CIRCLE
  5
2D5
330
17
100
AcDbEntity
  8
Ptos_reactivos
100
AcDbCircle
 10
32.36611197160052
 20
208.402478498876
 30
0.0
 40
0.23136924876079795
  0
CIRCLE
  5
2D6
330
17
100
AcDbEntity
  8
Ptos_reactivos
100
AcDbCircle
 10
12.352012392441376
 20
129.05978764614778
 30
0.0
 40
0.19204869335581315
  0
CIRCLE
  5
2D7
330
17
100
AcDbEntity
  8
Ptos_reactivos
100
AcDbCircle
 10
28.000216245193325
 20
105.0390219462362
 30
0.0
 40
0.0927088306232244
  0
CIRCLE
  5
2D8
330
17
100
AcDbEntity
  8
Ptos_reactivos
100
AcDbCircle
 10
24.504862065373253
 20
205.45567127046914
 30
0.0
 40
0.15546027288201653
  0
CIRCLE
  5
2D9
330
17
100
AcDbEntity
  8
Ptos_reactivos
100
AcDbCircle
 10
16.8094357341628
 20
195.86375104926293
 30
0.0
 40
0.07273686308115834
  0
CIRCLE
  5
2DA
330
17
100
AcDbEntity
  8
Ptos_reactivos
100
AcDbCircle
 10
30.92705301603899
 20
44.54403879470311
 30
0.0
 40
0.07768961553244265
  0
CIRCLE
  5
2DB
330
17
100
AcDbEntity
  8
Ptos_reactivos
100
AcDbCircle
 10
56.14452144802954
 20
130.552289566125
 30
0.0
 40
0.23612975356211474
  0
CIRCLE
  5
2DC
330
17
100
AcDbEntity
  8
Ptos_reactivos
100
AcDbCircle
 10
20.942971731630276
 20
67.12947857502817
 30
0.0
 40
0.1744157753901427
  0
CIRCLE
  5
2DD
330
17
100
AcDbEntity
  8
Ptos_reactivos
100
AcDbCircle
 10
30.03728912896468
 20
11.113759826482097
 30
0.0
 40
0.1656859544530913
  0
CIRCLE
  5
2DE
330
17
100
AcDbEntity
  8
Ptos_reactivos
100
AcDbCircle
 10
54.37662557107499
 20
2.407066711739414
 30
0.0
 40
0.2150206603911281
  0
CIRCLE
  5
2DF
330
17
100
AcDbEntity
  8
Ptos_reactivos
100
AcDbCircle
 10
29.374625030923664
 20
108.05208031373438
 30
0.0
 40
0.19716441910076904
  0
CIRCLE
  5
2E0
330
17
100
AcDbEntity
  8
Ptos_reactivos
100
AcDbCircle
 10
19.572967698704797
 20
254.19517895098824
 30
0.0
 40
0.1463802212664873
  0
CIRCLE
  5
2E1
330
17
100
AcDbEntity
  8
Ptos_reactivos
100
AcDbCircle
 10
60.57004682958309
 20
218.11031918925664
 30
0.0
 40
0.12551702393668268
  0
CIRCLE
  5
2E2
330
17
100
AcDbEntity
  8
Ptos_reactivos
100
AcDbCircle
 10
65.68003577372698
 20
5.621544945736584
 30
0.0
 40
0.12597551691631342
  0
CIRCLE
  5
2E3
330
17
100
AcDbEntity
  8
Ptos_reactivos
100
AcDbCircle
 10
65.90630627082109
 20
149.14612957191173
 30
0.0
 40
0.05437033633031856
  0
CIRCLE
  5
2E4
330
17
100
AcDbEntity
  8
Ptos_reactivos
100
AcDbCircle
 10
30.74095387563901
 20
242.53286948922388
 30
0.0
 40
0.13814376273289058
  0
CIRCLE
  5
2E5
330
17
100
AcDbEntity
  8
Ptos_reactivos
100
AcDbCircle
 10
34.46182527999274
 20
89.44222321758812
 30
0.0
 40
0.13692127513717162
  0
CIRCLE
  5
2E6
330
17
100
AcDbEntity
  8
Ptos_reactivos
100
AcDbCircle
 10
3.6513065106038938
 20
255.4117760773618
 30
0.0
 40
0.0875612822647641
  0
CIRCLE
  5
2E7
330
17
100
AcDbEntity
  8
Ptos_reactivos
100
AcDbCircle
 10
21.749694801384464
 20
111.01739917991996
 30
0.0
 40
0.1460567310461589
  0
CIRCLE
  5
2E8
330
17
100
AcDbEntity
  8
Ptos_reactivos
100
AcDbCircle
 10
23.918739766268153
 20
250.0603099776428
 30
0.0
 40
0.06245329249772822
  0
CIRCLE
  5
2E9
330
17
100
AcDbEntity
  8
Ptos_reactivos
100
AcDbCircle
 10
46.07732636023692
 20
47.983399646684724
 30
0.0
 40
0.24066280486384917
  0
CIRCLE
  5
2EA
330
17
100
AcDbEntity
  8
Ptos_reactivos
100
AcDbCircle
 10
39.386763980689175
 20
207.92652348146248
 30
0.0
 40
0.237616260092178
  0
CIRCLE
  5
2EB
330
17
100
AcDbEntity
  8
Ptos_reactivos
100
AcDbCircle
 10
5.489388884082716
 20
184.39272498740917
 30
0.0
 40
0.12060593395245499
  0
CIRCLE
  5
2EC
330
17
100
AcDbEntity
  8
Ptos_reactivos
100
AcDbCircle
 10
59.328023860542764
 20
36.494252112524435
 30
0.0
 40
0.08883010490928289
  0
CIRCLE
  5
2ED
330
17
100
AcDbEntity
  8
Ptos_reactivos
100
AcDbCircle
 10
56.420018931030384
 20
55.604495222850076
 30
0.0
 40
0.18401574012929534
  0
CIRCLE
  5
2EE
330
17
100
AcDbEntity
  8
Ptos_reactivos
100
AcDbCircle
 10
19.816378131252616
 20
164.42902341966217
 30
0.0
 40
0.24951471588213125
  0
CIRCLE
  5
2EF
330
17
100
AcDbEntity
  8
Ptos_reactivos
100
AcDbCircle
 10
3.3378833342960963
 20
260.4675936343005
 30
0.0
 40
0.19761541000746569
  0
CIRCLE
  5
2F0
330
17
100
AcDbEntity
  8
Ptos_reactivos
100
AcDbCircle
 10
68.72324153104854
 20
64.85370465188994
 30
0.0
 40
0.12876446026636157
  0
CIRCLE
  5
2F1
330
17
100
AcDbEntity
  8
Ptos_reactivos
100
AcDbCircle
 10
34.491488415095226
 20
91.78241919192803
 30
0.0
 40
0.05942644118206493
  0
CIRCLE
  5
2F2
330
17
100
AcDbEntity
  8
Ptos_reactivos
100
AcDbCircle
 10
70.44251732962944
 20
10.584149830774003
 30
0.0
 40
0.15891948433400094
  0
CIRCLE
  5
2F3
330
17
100
AcDbEntity
  8
Ptos_reactivos
100
AcDbCircle
 10
15.560617881875533
 20
188.39194190484324
 30
0.0
 40
0.05754696680772445
  0
CIRCLE
  5
2F4
330
17
100
AcDbEntity
  8
Ptos_reactivos
100
AcDbCircle
 10
18.451186946545434
 20
145.55687643386682
 30
0.0
 40
0.19698915559344538
  0
CIRCLE
  5
2F5
330
17
100
AcDbEntity
  8
Ptos_reactivos
100
AcDbCircle
 10
16.32148875088029
 20
109.10622988307539
 30
0.0
 40
0.07189912723777472
  0
CIRCLE
  5
2F6
330
17
100
AcDbEntity
  8
Ptos_reactivos
100
AcDbCircle
 10
22.898972563307677
 20
154.51240439159088
 30
0.0
 40
0.1311271740779272
  0
CIRCLE
  5
2F7
330
17
100
AcDbEntity
  8
Ptos_reactivos
100
AcDbCircle
 10
65.14681994186398
 20
16.600293281597207
 30
0.0
 40
0.15759491207681758
  0
CIRCLE
  5
2F8
330
17
100
AcDbEntity
  8
Ptos_reactivos
100
AcDbCircle
 10
60.5707421181429
 20
146.71878643928807
 30
0.0
 40
0.239212463194324
  0
CIRCLE
  5
2F9
330
17
100
AcDbEntity
  8
Ptos_reactivos
100
AcDbCircle
 10
21.632791661325783
 20
197.2409950818107
 30
0.0
 40
0.12364081840497927
  0
CIRCLE
  5
2FA
330
17
100
AcDbEntity
  8
Ptos_reactivos
100
AcDbCircle
 10
7.725208632127356
 20
215.7621755445259
 30
0.0
 40
0.12155125370839658
  0
CIRCLE
  5
2FB
330
17
100
AcDbEntity
  8
Ptos_reactivos
100
AcDbCircle
 10
40.061305839085605
 20
12.933105301432299
 30
0.0
 40
0.10989150220074076
  0
CIRCLE
  5
2FC
330
17
100
AcDbEntity
  8
Ptos_reactivos
100
AcDbCircle
 10
15.170511709072601
 20
67.60884766266808
 30
0.0
 40
0.20936053389033327
  0
CIRCLE
  5
2FD
330
17
100
AcDbEntity
  8
Ptos_reactivos
100
AcDbCircle
 10
55.51308083252136
 20
60.86577763401924
 30
0.0
 40
0.0828629930999128
  0
CIRCLE
  5
2FE
330
17
100
AcDbEntity
  8
Ptos_reactivos
100
AcDbCircle
 10
39.43817261523007
 20
183.36972732760862
 30
0.0
 40
0.10014968251180863
  0
CIRCLE
  5
2FF
330
17
100
AcDbEntity
  8
Ptos_reactivos
100
AcDbCircle
 10
60.06940803404894
 20
154.88423520363256
 30
0.0
 40
0.1572884111235937
  0
CIRCLE
  5
300
330
17
100
AcDbEntity
  8
Ptos_reactivos
100
AcDbCircle
 10
36.23461347906646
 20
215.49214879000178
 30
0.0
 40
0.21214124337134088
  0
CIRCLE
  5
301
330
17
100
AcDbEntity
  8
Ptos_reactivos
100
AcDbCircle
 10
25.36223854676814
 20
149.47915690049322
 30
0.0
 40
0.07003453719566502
  0
CIRCLE
  5
302
330
17
100
AcDbEntity
  8
Ptos_reactivos
100
AcDbCircle
 10
43.49887626020429
 20
111.084835433304
 30
0.0
 40
0.10547136580573371
  0
CIRCLE
  5
303
330
17
100
AcDbEntity
  8
Ptos_reactivos
100
AcDbCircle
 10
55.43789063050084
 20
82.97272578677249
 30
0.0
 40
0.06431223432400078
  0
CIRCLE
  5
304
330
17
100
AcDbEntity
  8
Ptos_reactivos
100
AcDbCircle
 10
3.5917832520571484
 20
65.82040005076722
 30
0.0
 40
0.12543087541125147
  0
CIRCLE
  5
305
330
17
100
AcDbEntity
  8
Ptos_reactivos
100
AcDbCircle
 10
37.35814848727949
 20
208.543270835562
 30
0.0
 40
0.12157146825601628
  0
CIRCLE
  5
306
330
17
100
AcDbEntity
  8
Ptos_reactivos
100
AcDbCircle
 10
52.40804074899025
 20
152.50415630606963
 30
0.0
 40
0.2498957329878682
  0
CIRCLE
  5
307
330
17
100
AcDbEntity
  8
Ptos_reactivos
100
AcDbCircle
 10
37.56999057550595
 20
171.10579892906276
 30
0.0
 40
0.19624796576180042
  0
CIRCLE
  5
308
330
17
100
AcDbEntity
  8
Ptos_reactivos
100
AcDbCircle
 10
61.50749293383626
 20
11.350531667008724
 30
0.0
 40
0.1702119179914477
  0
CIRCLE
  5
309
330
17
100
AcDbEntity
  8
Ptos_reactivos
100
AcDbCircle
 10
17.427598475116998
 20
46.769479444291434
 30
0.0
 40
0.22682492982485059
  0
CIRCLE
  5
30A
330
17
100
AcDbEntity
  8
Ptos_reactivos
100
AcDbCircle
 10
14.520287647776648
 20
216.02464532930784
 30
0.0
 40
0.1748463583790746
  0
CIRCLE
  5
30B
330
17
100
AcDbEntity
  8
Ptos_reactivos
100
AcDbCircle
 10
52.65101521369185
 20
112.03481351365973
 30
0.0
 40
0.16775561459421323
  0
CIRCLE
  5
30C
330
17
100
AcDbEntity
  8
Ptos_reactivos
100
AcDbCircle
 10
34.451302399283506
 20
111.44580843199242
 30
0.0
 40
0.2030704581936033
  0
CIRCLE
  5
30D
330
17
100
AcDbEntity
  8
Ptos_reactivos
100
AcDbCircle
 10
28.67893129137098
 20
21.466083533890647
 30
0.0
 40
0.061881331372871995
  0
CIRCLE
  5
30E
330
17
100
AcDbEntity
  8
Ptos_reactivos
100
AcDbCircle
 10
55.25447874948956
 20
103.767044308979
 30
0.0
 40
0.1261120270362659
  0
CIRCLE
  5
30F
330
17
100
AcDbEntity
  8
Ptos_reactivos
100
AcDbCircle
 10
25.939477251033843
 20
190.3613609340754
 30
0.0
 40
0.06636423461288979
  0
CIRCLE
  5
310
330
17
100
AcDbEntity
  8
Ptos_reactivos
100
AcDbCircle
 10
49.77684880904128
 20
187.63234914675917
 30
0.0
 40
0.10567020883981451
  0
CIRCLE
  5
311
330
17
100
AcDbEntity
  8
Ptos_reactivos
100
AcDbCircle
 10
69.05108567713759
 20
42.84969518549536
 30
0.0
 40
0.1443489566324998
  0
CIRCLE
  5
312
330
17
100
AcDbEntity
  8
Ptos_reactivos
100
AcDbCircle
 10
59.76190481001012
 20
207.65255258550053
 30
0.0
 40
0.22609066168310016
  0
CIRCLE
  5
313
330
17
100
AcDbEntity
  8
Ptos_reactivos
100
AcDbCircle
 10
4.001874776069539
 20
60.00236974858881
 30
0.0
 40
0.16943715427405204
  0
CIRCLE
  5
314
330
17
100
AcDbEntity
  8
Ptos_reactivos
100
AcDbCircle
 10
47.04513057858876
 20
91.68835265434777
 30
0.0
 40
0.10470785088936443
  0
CIRCLE
  5
315
330
17
100
AcDbEntity
  8
Ptos_reactivos
100
AcDbCircle
 10
21.332736922115675
 20
95.00802830219753
 30
0.0
 40
0.21159635499765256
  0
CIRCLE
  5
316
330
17
100
AcDbEntity
  8
Ptos_reactivos
100
AcDbCircle
 10
58.192421693952504
 20
189.59744875090485
 30
0.0
 40
0.17653998033300922
  0
CIRCLE
  5
317
330
17
100
AcDbEntity
  8
Ptos_reactivos
100
AcDbCircle
 10
10.331496962385678
 20
10.894374505208509
 30
0.0
 40
0.12118804951457128
  0
CIRCLE
  5
318
330
17
100
AcDbEntity
  8
Ptos_reactivos
100
AcDbCircle
 10
50.49957983627122
 20
102.05874457719985
 30
0.0
 40
0.24621926665384386
  0
CIRCLE
  5
319
330
17
100
AcDbEntity
  8
Ptos_reactivos
100
AcDbCircle
 10
43.281964878259025
 20
116.61973123064487
 30
0.0
 40
0.16568345200129542
  0
CIRCLE
  5
31A
330
17
100
AcDbEntity
  8
Ptos_reactivos
100
AcDbCircle
 10
69.03699452088387
 20
93.49277708894229
 30
0.0
 40
0.12520486313811063
  0
CIRCLE
  5
31B
330
17
100
AcDbEntity
  8
Ptos_reactivos
100
AcDbCircle
 10
65.81144539622814
 20
202.72519598710994
 30
0.0
 40
0.0694704982448709
  0
CIRCLE
  5
31C
330
17
100
AcDbEntity
  8
Ptos_reactivos
100
AcDbCircle
 10
5.6862578951604155
 20
117.73440847310623
 30
0.0
 40
0.13081637173431931
  0
CIRCLE
  5
31D
330
17
100
AcDbEntity
  8
Ptos_reactivos
100
AcDbCircle
 10
47.97103432080744
 20
55.149135703664825
 30
0.0
 40
0.08816975200605975
  0
CIRCLE
  5
31E
330
17
100
AcDbEntity
  8
Ptos_reactivos
100
AcDbCircle
 10
7.025402764072694
 20
93.44237942808753
 30
0.0
 40
0.1808856726383415
  0
CIRCLE
  5
31F
330
17
100
AcDbEntity
  8
Ptos_reactivos
100
AcDbCircle
 10
1.8493165802601963
 20
71.43456823826699
 30
0.0
 40
0.1397601239349503
  0
CIRCLE
  5
320
330
17
100
AcDbEntity
  8
Ptos_reactivos
100
AcDbCircle
 10
5.219729519849073
 20
82.68391262758281
 30
0.0
 40
0.1920116286911771
  0
CIRCLE
  5
321
330
17
100
AcDbEntity
  8
Ptos_reactivos
100
AcDbCircle
 10
13.593023765232221
 20
180.85326164977403
 30
0.0
 40
0.243674597706995
  0
CIRCLE
  5
322
330
17
100
AcDbEntity
  8
Ptos_reactivos
100
AcDbCircle
 10
58.294663523269456
 20
35.57588085208047
 30
0.0
 40
0.13520058132724358
  0
CIRCLE
  5
323
330
17
100
AcDbEntity
  8
Ptos_reactivos
100
AcDbCircle
 10
49.507685214822466
 20
186.9155234475065
 30
0.0
 40
0.15818491159968345
  0
CIRCLE
  5
324
330
17
100
AcDbEntity
  8
Ptos_reactivos
100
AcDbCircle
 10
5.895846732548785
 20
13.053718843888873
 30
0.0
 40
0.12182354237279652
  0
CIRCLE
  5
325
330
17
100
AcDbEntity
  8
Ptos_reactivos
100
AcDbCircle
 10
67.09706886515784
 20
33.22520340389573
 30
0.0
 40
0.23023920229378025
  0
CIRCLE
  5
326
330
17
100
AcDbEntity
  8
Ptos_reactivos
100
AcDbCircle
 10
64.544169658045
 20
100.85296284169449
 30
0.0
 40
0.2341674166995697
  0
CIRCLE
  5
327
330
17
100
AcDbEntity
  8
Ptos_reactivos
100
AcDbCircle
 10
52.73978801177141
 20
130.86288556930992
 30
0.0
 40
0.18879539602230344
  0
CIRCLE
  5
328
330
17
100
AcDbEntity
  8
Ptos_reactivos
100
AcDbCircle
 10
46.40501727436692
 20
260.8266027983831
 30
0.0
 40
0.22101036224234616
  0
CIRCLE
  5
329
330
17
100
AcDbEntity
  8
Ptos_reactivos
100
AcDbCircle
 10
8.10968759121972
 20
54.74138925877095
 30
0.0
 40
0.24085385832981243
  0
CIRCLE
  5
32A
330
17
100
AcDbEntity
  8
Ptos_reactivos
100
AcDbCircle
 10
32.84884816090897
 20
150.73847404681237
 30
0.0
 40
0.06569234418375468
  0
CIRCLE
  5
32B
330
17
100
AcDbEntity
  8
Ptos_reactivos
100
AcDbCircle
 10
28.390952714877727
 20
36.886240367168824
 30
0.0
 40
0.18386841717652558
  0
CIRCLE
  5
32C
330
17
100
AcDbEntity
  8
Ptos_reactivos
100
AcDbCircle
 10
3.2050775662892885
 20
36.42305463330244
 30
0.0
 40
0.08399336465048518
  0
CIRCLE
  5
32D
330
17
100
AcDbEntity
  8
Ptos_reactivos
100
AcDbCircle
 10
34.63425446990192
 20
41.37024230753997
 30
0.0
 40
0.09100512787219346
  0
CIRCLE
  5
32E
330
17
100
AcDbEntity
  8
Ptos_reactivos
100
AcDbCircle
 10
16.35626310272715
 20
227.43884174177768
 30
0.0
 40
0.1294343056453128
  0
CIRCLE
  5
32F
330
17
100
AcDbEntity
  8
Ptos_reactivos
100
AcDbCircle
 10
32.793992295663
 20
110.9211618798505
 30
0.0
 40
0.11000991743174604
  0
CIRCLE
  5
330
330
17
100
AcDbEntity
  8
Ptos_reactivos
100
AcDbCircle
 10
11.178533587944624
 20
259.75798309395424
 30
0.0
 40
0.10014215595527842
  0
CIRCLE
  5
331
330
17
100
AcDbEntity
  8
Ptos_reactivos
100
AcDbCircle
 10
12.178709569298004
 20
189.39067407699696
 30
0.0
 40
0.20867966136073574
  0
CIRCLE
  5
332
330
17
100
AcDbEntity
  8
Ptos_reactivos
100
AcDbCircle
 10
12.091556237604784
 20
267.07296325510464
 30
0.0
 40
0.08992646009003201
  0
CIRCLE
  5
333
330
17
100
AcDbEntity
  8
Ptos_reactivos
100
AcDbCircle
 10
22.84417784359705
 20
225.78985601033241
 30
0.0
 40
0.20894286607198537
  0
CIRCLE
  5
334
330
17
100
AcDbEntity
  8
Ptos_reactivos
100
AcDbCircle
 10
2.437266001522462
 20
101.48446411045244
 30
0.0
 40
0.109731549625279
  0
CIRCLE
  5
335
330
17
100
AcDbEntity
  8
Ptos_reactivos
100
AcDbCircle
 10
32.34818858554455
 20
249.65219386329946
 30
0.0
 40
0.21666054761668002
  0
CIRCLE
  5
336
330
17
100
AcDbEntity
  8
Ptos_reactivos
100
AcDbCircle
 10
4.536367099813521
 20
101.88124854165318
 30
0.0
 40
0.06576159988172647
  0
CIRCLE
  5
337
330
17
100
AcDbEntity
  8
Ptos_reactivos
100
AcDbCircle
 10
69.61337208590439
 20
187.53554991621363
 30
0.0
 40
0.2097925865685532
  0
CIRCLE
  5
338
330
17
100
AcDbEntity
  8
Ptos_reactivos
100
AcDbCircle
 10
45.92947777584041
 20
150.9437881071885
 30
0.0
 40
0.11173573156544231
  0
CIRCLE
  5
339
330
17
100
AcDbEntity
  8
Ptos_reactivos
100
AcDbCircle
 10
64.89908602711768
 20
113.70848711884749
 30
0.0
 40
0.23877767538633266
  0
CIRCLE
  5
33A
330
17
100
AcDbEntity
  8
Ptos_reactivos
100
AcDbCircle
 10
50.56478093419599
 20
203.2818432922926
 30
0.0
 40
0.22627216652739662
  0
CIRCLE
  5
33B
330
17
100
AcDbEntity
  8
Ptos_reactivos
100
AcDbCircle
 10
17.92946710721635
 20
138.83307786509394
 30
0.0
 40
0.20864672190292233
  0
CIRCLE
  5
33C
330
17
100
AcDbEntity
  8
Ptos_reactivos
100
AcDbCircle
 10
41.739301681333444
 20
38.51183211399301
 30
0.0
 40
0.2417089672489599
  0
CIRCLE
  5
33D
330
17
100
AcDbEntity
  8
Ptos_reactivos
100
AcDbCircle
 10
55.31872912116034
 20
23.25918353505981
 30
0.0
 40
0.14108149885072258
  0
CIRCLE
  5
33E
330
17
100
AcDbEntity
  8
Ptos_reactivos
100
AcDbCircle
 10
72.47181119240756
 20
175.76885334297464
 30
0.0
 40
0.09622013783792534
  0
CIRCLE
  5
33F
330
17
100
AcDbEntity
  8
Ptos_reactivos
100
AcDbCircle
 10
64.30217455307917
 20
95.1102179877441
 30
0.0
 40
0.17345097090227457
  0
CIRCLE
  5
340
330
17
100
AcDbEntity
  8
Ptos_reactivos
100
AcDbCircle
 10
55.15367900352774
 20
75.8829413217517
 30
0.0
 40
0.1750393636398377
  0
CIRCLE
  5
341
330
17
100
AcDbEntity
  8
Ptos_reactivos
100
AcDbCircle
 10
28.826842192293768
 20
259.7569713888648
 30
0.0
 40
0.15183895393225455
  0
CIRCLE
  5
342
330
17
100
AcDbEntity
  8
Ptos_reactivos
100
AcDbCircle
 10
11.922143884433076
 20
259.115271021238
 30
0.0
 40
0.21615840022711136
  0
CIRCLE
  5
343
330
17
100
AcDbEntity
  8
Ptos_reactivos
100
AcDbCircle
 10
28.247276016513062
 20
140.27344324598582
 30
0.0
 40
0.22942273854782264
  0
CIRCLE
  5
344
330
17
100
AcDbEntity
  8
Ptos_reactivos
100
AcDbCircle
 10
69.21579689372246
 20
11.392831809820713
 30
0.0
 40
0.19006021680858154
  0
CIRCLE
  5
345
330
17
100
AcDbEntity
  8
Ptos_reactivos
100
AcDbCircle
 10
60.32570505584653
 20
232.85707869813967
 30
0.0
 40
0.12837440047407706
  0
CIRCLE
  5
346
330
17
100
AcDbEntity
  8
Ptos_reactivos
100
AcDbCircle
 10
43.163449151869294
 20
88.99701214881287
 30
0.0
 40
0.1404437421263811
  0
CIRCLE
  5
347
330
17
100
AcDbEntity
  8
Ptos_reactivos
100
AcDbCircle
 10
54.65212968349476
 20
201.73090640204657
 30
0.0
 40
0.24540679600243137
  0
CIRCLE
  5
348
330
17
100
AcDbEntity
  8
Ptos_reactivos
100
AcDbCircle
 10
71.65722692739507
 20
194.63505594791116
 30
0.0
 40
0.16501843908387437
  0
CIRCLE
  5
349
330
17
100
AcDbEntity
  8
Ptos_reactivos
100
AcDbCircle
 10
46.29645224853328
 20
212.427187331156
 30
0.0
 40
0.1898412707658898
  0
CIRCLE
  5
34A
330
17
100
AcDbEntity
  8
Ptos_reactivos
100
AcDbCircle
 10
6.226297788383873
 20
247.8103816569245
 30
0.0
 40
0.14892667810490617
  0
CIRCLE
  5
34B
330
17
100
AcDbEntity
  8
Ptos_reactivos
100
AcDbCircle
 10
64.6465270211421
 20
123.31632938328353
 30
0.0
 40
0.22507885847000514
  0
CIRCLE
  5
34C
330
17
100
AcDbEntity
  8
Ptos_reactivos
100
AcDbCircle
 10
47.902789662471434
 20
77.63118495280337
 30
0.0
 40
0.13987340212870186
  0
CIRCLE
  5
34D
330
17
100
AcDbEntity
  8
Ptos_reactivos
100
AcDbCircle
 10
61.833024864594385
 20
2.2101021749524192
 30
0.0
 40
0.05073391355715234
  0
CIRCLE
  5
34E
330
17
100
AcDbEntity
  8
Ptos_reactivos
100
AcDbCircle
 10
36.5380193249292
 20
263.5767280521455
 30
0.0
 40
0.056066404585930464
  0
CIRCLE
  5
34F
330
17
100
AcDbEntity
  8
Ptos_reactivos
100
AcDbCircle
 10
38.41629032597852
 20
259.48302756124485
 30
0.0
 40
0.16737152826524326
  0
CIRCLE
  5
350
330
17
100
AcDbEntity
  8
Ptos_reactivos
100
AcDbCircle
 10
26.40570613725704
 20
209.77112905899196
 30
0.0
 40
0.06117451664109497
  0
CIRCLE
  5
351
330
17
100
AcDbEntity
  8
Ptos_reactivos
100
AcDbCircle
 10
28.372805651527685
 20
43.44336030084687
 30
0.0
 40
0.22630781836917774
  0
CIRCLE
  5
352
330
17
100
AcDbEntity
  8
Ptos_reactivos
100
AcDbCircle
 10
33.52248964838651
 20
222.7196974713856
 30
0.0
 40
0.05898288948781519
  0
CIRCLE
  5
353
330
17
100
AcDbEntity
  8
Ptos_reactivos
100
AcDbCircle
 10
39.91023979767659
 20
100.22446674918599
 30
0.0
 40
0.08592383511448781
  0
CIRCLE
  5
354
330
17
100
AcDbEntity
  8
Ptos_reactivos
100
AcDbCircle
 10
50.79904624568136
 20
239.71880276556723
 30
0.0
 40
0.09692327165970452
  0
CIRCLE
  5
355
330
17
100
AcDbEntity
  8
Ptos_reactivos
100
AcDbCircle
 10
65.06312901540198
 20
167.930515768707
 30
0.0
 40
0.18428824953940898
  0
CIRCLE
  5
356
330
17
100
AcDbEntity
  8
Ptos_reactivos
100
AcDbCircle
 10
41.55722100418966
 20
35.849735253483395
 30
0.0
 40
0.13421915291739972
  0
CIRCLE
  5
357
330
17
100
AcDbEntity
  8
Ptos_reactivos
100
AcDbCircle
 10
56.4225008405673
 20
180.8560774542928
 30
0.0
 40
0.12275679338558239
  0
CIRCLE
  5
358
330
17
100
AcDbEntity
  8
Ptos_reactivos
100
AcDbCircle
 10
27.754552304142646
 20
132.7289556271569
 30
0.0
 40
0.1843204127095343
  0
CIRCLE
  5
359
330
17
100
AcDbEntity
  8
Ptos_reactivos
100
AcDbCircle
 10
32.815920928086776
 20
120.29264695396108
 30
0.0
 40
0.07648681299391767
  0
CIRCLE
  5
35A
330
17
100
AcDbEntity
  8
Ptos_reactivos
100
AcDbCircle
 10
72.02497919194671
 20
46.11970607476314
 30
0.0
 40
0.20362473887109223
  0
CIRCLE
  5
35B
330
17
100
AcDbEntity
  8
Ptos_reactivos
100
AcDbCircle
 10
45.22162686889467
 20
107.5877965104836
 30
0.0
 40
0.09226242962090221
  0
CIRCLE
  5
35C
330
17
100
AcDbEntity
  8
Ptos_reactivos
100
AcDbCircle
 10
60.32698309343599
 20
31.42640536186331
 30
0.0
 40
0.17933565093598852
  0
CIRCLE
  5
35D
330
17
100
AcDbEntity
  8
Ptos_reactivos
100
AcDbCircle
 10
3.7377433883495623
 20
139.84982834537269
 30
0.0
 40
0.0591727784007581
  0
CIRCLE
  5
35E
330
17
100
AcDbEntity
  8
Ptos_reactivos
100
AcDbCircle
 10
42.931243835479734
 20
33.27361133203005
 30
0.0
 40
0.14443260392292617
  0
CIRCLE
  5
35F
330
17
100
AcDbEntity
  8
Ptos_reactivos
100
AcDbCircle
 10
59.89013693701572
 20
221.1616328756826
 30
0.0
 40
0.22820299679754041
  0
CIRCLE
  5
360
330
17
100
AcDbEntity
  8
Ptos_reactivos
100
AcDbCircle
 10
49.36442622660307
 20
269.3579384221847
 30
0.0
 40
0.08049149784605375
  0
CIRCLE
  5
361
330
17
100
AcDbEntity
  8
Ptos_reactivos
100
AcDbCircle
 10
36.811935623734215
 20
187.1603816170417
 30
0.0
 40
0.15043925358342575
  0
CIRCLE
  5
362
330
17
100
AcDbEntity
  8
Ptos_reactivos
100
AcDbCircle
 10
8.792391926820809
 20
217.94060407858726
 30
0.0
 40
0.18155443666653953
  0
CIRCLE
  5
363
330
17
100
AcDbEntity
  8
Ptos_reactivos
100
AcDbCircle
 10
3.3115822904347696
 20
138.92047939072896
 30
0.0
 40
0.23322718749442262
  0
CIRCLE
  5
364
330
17
100
AcDbEntity
  8
Ptos_reactivos
100
AcDbCircle
 10
52.262081187493386
 20
267.6093684949053
 30
0.0
 40
0.08546994482142647
  0
CIRCLE
  5
365
330
17
100
AcDbEntity
  8
Ptos_reactivos
100
AcDbCircle
 10
65.13807955831831
 20
124.34753875848648
 30
0.0
 40
0.112871510769406
  0
CIRCLE
  5
366
330
17
100
AcDbEntity
  8
Ptos_reactivos
100
AcDbCircle
 10
37.10662172496141
 20
129.063533714079
 30
0.0
 40
0.14745281399467552
  0
CIRCLE
  5
367
330
17
100
AcDbEntity
  8
Ptos_reactivos
100
AcDbCircle
 10
33.037966247701796
 20
6.147454867380028
 30
0.0
 40
0.227465530579738
  0
CIRCLE
  5
368
330
17
100
AcDbEntity
  8
Ptos_reactivos
100
AcDbCircle
 10
19.960912671363708
 20
181.73410144951353
 30
0.0
 40
0.23879223399246902
  0
CIRCLE
  5
369
330
17
100
AcDbEntity
  8
Ptos_reactivos
100
AcDbCircle
 10
18.485196251229297
 20
46.83189384626766
 30
0.0
 40
0.19733580405439027
  0
CIRCLE
  5
36A
330
17
100
AcDbEntity
  8
Ptos_reactivos
100
AcDbCircle
 10
9.345018489506796
 20
234.96403342500224
 30
0.0
 40
0.14479424394336282
  0
CIRCLE
  5
36B
330
17
100
AcDbEntity
  8
Ptos_reactivos
100
AcDbCircle
 10
16.680575851257473
 20
89.57954887863255
 30
0.0
 40
0.21266433464957396
  0
CIRCLE
  5
36C
330
17
100
AcDbEntity
  8
Ptos_reactivos
100
AcDbCircle
 10
4.087550443369098
 20
109.0645215744345
 30
0.0
 40
0.19851839238207608
  0
CIRCLE
  5
36D
330
17
100
AcDbEntity
  8
Ptos_reactivos
100
AcDbCircle
 10
14.045794980389129
 20
242.48148093043247
 30
0.0
 40
0.15323514145722017
  0
CIRCLE
  5
36E
330
17
100
AcDbEntity
  8
Ptos_reactivos
100
AcDbCircle
 10
39.66927486386596
 20
22.71458845249314
 30
0.0
 40
0.0808346409557082
  0
CIRCLE
  5
36F
330
17
100
AcDbEntity
  8
Ptos_reactivos
100
AcDbCircle
 10
26.40409850137628
 20
271.35795605616545
 30
0.0
 40
0.19660417872328856
  0
CIRCLE
  5
370
330
17
100
AcDbEntity
  8
Ptos_reactivos
100
AcDbCircle
 10
58.879251420920994
 20
157.4848461208626
 30
0.0
 40
0.12088744255112412
  0
CIRCLE
  5
371
330
17
100
AcDbEntity
  8
Ptos_reactivos
100
AcDbCircle
 10
72.01235620607231
 20
207.8002524399577
 30
0.0
 40
0.20911328453287914
  0
CIRCLE
  5
372
330
17
100
AcDbEntity
  8
Ptos_reactivos
100
AcDbCircle
 10
40.78863069840711
 20
44.014704649117945
 30
0.0
 40
0.17627585022739573
  0
CIRCLE
  5
373
330
17
100
AcDbEntity
  8
Ptos_reactivos
100
AcDbCircle
 10
40.312727910431285
 20
212.19216766068664
 30
0.0
 40
0.07666425907504373
  0
CIRCLE
  5
374
330
17
100
AcDbEntity
  8
Ptos_reactivos
100
AcDbCircle
 10
25.72790060159357
 20
14.916292555256701
 30
0.0
 40
0.19044942791903563
  0
CIRCLE
  5
375
330
17
100
AcDbEntity
  8
Ptos_reactivos
100
AcDbCircle
 10
26.946574331203923
 20
198.0073925855997
 30
0.0
 40
0.12719564929824917
  0
CIRCLE
  5
376
330
17
100
AcDbEntity
  8
Ptos_reactivos
100
AcDbCircle
 10
19.22246440616331
 20
57.38597470573993
 30
0.0
 40
0.23812263969065783
  0
CIRCLE
  5
377
330
17
100
AcDbEntity
  8
Ptos_reactivos
100
AcDbCircle
 10
67.03413924148582
 20
218.57220395499888
 30
0.0
 40
0.05076767622954053
  0
CIRCLE
  5
378
330
17
100
AcDbEntity
  8
Ptos_reactivos
100
AcDbCircle
 10
63.04382219729356
 20
152.57073082962515
 30
0.0
 40
0.2476949463522366
  0
CIRCLE
  5
379
330
17
100
AcDbEntity
  8
Ptos_reactivos
100
AcDbCircle
 10
68.926591365928
 20
154.44733480283088
 30
0.0
 40
0.2300654390667901
  0
CIRCLE
  5
37A
330
17
100
AcDbEntity
  8
Ptos_reactivos
100
AcDbCircle
 10
31.281590639072242
 20
87.66003208031512
 30
0.0
 40
0.16803125837538135
  0
CIRCLE
  5
37B
330
17
100
AcDbEntity
  8
Ptos_reactivos
100
AcDbCircle
 10
9.659779790907299
 20
41.150483884584865
 30
0.0
 40
0.17091079117389546
  0
CIRCLE
  5
37C
330
17
100
AcDbEntity
  8
Ptos_reactivos
100
AcDbCircle
 10
62.36267566665723
 20
4.231729616846355
 30
0.0
 40
0.06148153523245035
  0
CIRCLE
  5
37D
330
17
100
AcDbEntity
  8
Ptos_reactivos
100
AcDbCircle
 10
40.423421676990195
 20
190.19518220473566
 30
0.0
 40
0.09803105570478715
  0
CIRCLE
  5
37E
330
17
100
AcDbEntity
  8
Ptos_reactivos
100
AcDbCircle
 10
17.46650480130443
 20
7.633744489629094
 30
0.0
 40
0.08971033183157591
  0
CIRCLE
  5
37F
330
17
100
AcDbEntity
  8
Ptos_reactivos
100
AcDbCircle
 10
39.2854093072096
 20
19.79854939651188
 30
0.0
 40
0.05221851179020747
  0
CIRCLE
  5
380
330
17
100
AcDbEntity
  8
Ptos_reactivos
100
AcDbCircle
 10
59.80798576185369
 20
220.1035073989147
 30
0.0
 40
0.22693115668870584
  0
CIRCLE
  5
381
330
17
100
AcDbEntity
  8
Ptos_reactivos
100
AcDbCircle
 10
69.69520093575237
 20
13.603324529970088
 30
0.0
 40
0.05499258279267134
  0
CIRCLE
  5
382
330
17
100
AcDbEntity
  8
Ptos_reactivos
100
AcDbCircle
 10
22.218980427748967
 20
115.25917478998925
 30
0.0
 40
0.15671016654385106
  0
CIRCLE
  5
383
330
17
100
AcDbEntity
  8
Ptos_reactivos
100
AcDbCircle
 10
1.2768335144621918
 20
14.151355191384582
 30
0.0
 40
0.1810289993014949
  0
CIRCLE
  5
384
330
17
100
AcDbEntity
  8
Ptos_reactivos
100
AcDbCircle
 10
70.03528277327516
 20
177.49083628888243
 30
0.0
 40
0.10224352841485314
  0
CIRCLE
  5
385
330
17
100
AcDbEntity
  8
Ptos_reactivos
100
AcDbCircle
 10
54.624544430074614
 20
183.79729473119016
 30
0.0
 40
0.05260759470950441
  0
CIRCLE
  5
386
330
17
100
AcDbEntity
  8
Ptos_reactivos
100
AcDbCircle
 10
7.8004958778495475
 20
240.56932081564239
 30
0.0
 40
0.07403573558621777
  0
CIRCLE
  5
387
330
17
100
AcDbEntity
  8
Ptos_reactivos
100
AcDbCircle
 10
47.11097324884722
 20
105.43756198392262
 30
0.0
 40
0.13579341507106446
  0
CIRCLE
  5
388
330
17
100
AcDbEntity
  8
Ptos_reactivos
100
AcDbCircle
 10
69.55701754358613
 20
255.73415180194053
 30
0.0
 40
0.06982939811697453
  0
CIRCLE
  5
389
330
17
100
AcDbEntity
  8
Ptos_reactivos
100
AcDbCircle
 10
63.013139364970506
 20
140.4852594943679
 30
0.0
 40
0.05764607090622316
  0
CIRCLE
  5
38A
330
17
100
AcDbEntity
  8
Ptos_reactivos
100
AcDbCircle
 10
35.47482376477496
 20
29.651552414114562
 30
0.0
 40
0.16333474308027246
  0
CIRCLE
  5
38B
330
17
100
AcDbEntity
  8
Ptos_reactivos
100
AcDbCircle
 10
70.38178494930062
 20
230.16879981851244
 30
0.0
 40
0.0934092432866295
  0
CIRCLE
  5
38C
330
17
100
AcDbEntity
  8
Ptos_reactivos
100
AcDbCircle
 10
50.51004957602551
 20
81.7260869868868
 30
0.0
 40
0.1262259084706258
  0
CIRCLE
  5
38D
330
17
100
AcDbEntity
  8
Ptos_reactivos
100
AcDbCircle
 10
9.633028319300971
 20
63.72997551812253
 30
0.0
 40
0.07123401112876296
  0
CIRCLE
  5
38E
330
17
100
AcDbEntity
  8
Ptos_reactivos
100
AcDbCircle
 10
43.229385608012024
 20
113.87233168282512
 30
0.0
 40
0.08542236598126379
  0
CIRCLE
  5
38F
330
17
100
AcDbEntity
  8
Ptos_reactivos
100
AcDbCircle
 10
38.06668909384946
 20
123.02080082836055
 30
0.0
 40
0.2208915596462434
  0
CIRCLE
  5
390
330
17
100
AcDbEntity
  8
Ptos_reactivos
100
AcDbCircle
 10
46.04314086573533
 20
140.06722520837963
 30
0.0
 40
0.11282355917490486
  0
CIRCLE
  5
391
330
17
100
AcDbEntity
  8
Ptos_reactivos
100
AcDbCircle
 10
63.270723036211805
 20
84.57404344618097
 30
0.0
 40
0.1599670122743727
  0
CIRCLE
  5
392
330
17
100
AcDbEntity
  8
Ptos_reactivos
100
AcDbCircle
 10
13.08732760547352
 20
50.9782097785004
 30
0.0
 40
0.21466171402835876
  0
CIRCLE
  5
393
330
17
100
AcDbEntity
  8
Ptos_reactivos
100
AcDbCircle
 10
36.79944953290622
 20
208.4750214714269
 30
0.0
 40
0.12071273016561089
  0
CIRCLE
  5
394
330
17
100
AcDbEntity
  8
Ptos_reactivos
100
AcDbCircle
 10
23.891020788518112
 20
84.46593093241863
 30
0.0
 40
0.07856261866233015
  0
CIRCLE
  5
395
330
17
100
AcDbEntity
  8
Ptos_reactivos
100
AcDbCircle
 10
68.36114578786943
 20
20.165756936397276
 30
0.0
 40
0.20350086937144268
  0
CIRCLE
  5
396
330
17
100
AcDbEntity
  8
Ptos_reactivos
100
AcDbCircle
 10
63.84067317060152
 20
82.51244540418081
 30
0.0
 40
0.16771100204722234
  0
CIRCLE
  5
397
330
17
100
AcDbEntity
  8
Ptos_reactivos
100
AcDbCircle
 10
12.621375564976958
 20
257.84027307047967
 30
0.0
 40
0.09558476656643898
  0
CIRCLE
  5
398
330
17
100
AcDbEntity
  8
Ptos_reactivos
100
AcDbCircle
 10
58.285543484678826
 20
219.27431523203262
 30
0.0
 40
0.08508826366925717
  0
CIRCLE
  5
399
330
17
100
AcDbEntity
  8
Ptos_reactivos
100
AcDbCircle
 10
16.907718728941955
 20
45.60929277471073
 30
0.0
 40
0.06007051959981276
  0
CIRCLE
  5
39A
330
17
100
AcDbEntity
  8
Ptos_reactivos
100
AcDbCircle
 10
3.134307747041698
 20
192.0099027826581
 30
0.0
 40
0.24333091306572413
  0
CIRCLE
  5
39B
330
17
100
AcDbEntity
  8
Ptos_reactivos
100
AcDbCircle
 10
23.08706026130982
 20
34.389183710297566
 30
0.0
 40
0.1772478035431735
  0
CIRCLE
  5
39C
330
17
100
AcDbEntity
  8
Ptos_reactivos
100
AcDbCircle
 10
21.827028605973904
 20
171.63063084715694
 30
0.0
 40
0.18954384810205943
  0
CIRCLE
  5
39D
330
17
100
AcDbEntity
  8
Ptos_reactivos
100
AcDbCircle
 10
22.107232386998547
 20
130.98434323197006
 30
0.0
 40
0.2326804964159382
  0
CIRCLE
  5
39E
330
17
100
AcDbEntity
  8
Ptos_reactivos
100
AcDbCircle
 10
28.509515788496646
 20
0.8643225930043547
 30
0.0
 40
0.2307714341775563
  0
CIRCLE
  5
39F
330
17
100
AcDbEntity
  8
Ptos_reactivos
100
AcDbCircle
 10
54.02055303384354
 20
111.54533861068285
 30
0.0
 40
0.13219705780641444
  0
CIRCLE
  5
3A0
330
17
100
AcDbEntity
  8
Ptos_reactivos
100
AcDbCircle
 10
70.13348624449219
 20
155.97586415002635
 30
0.0
 40
0.14431641940971102
  0
CIRCLE
  5
3A1
330
17
100
AcDbEntity
  8
Ptos_reactivos
100
AcDbCircle
 10
54.48499358965218
 20
15.714262499249918
 30
0.0
 40
0.21470408295499377
  0
CIRCLE
  5
3A2
330
17
100
AcDbEntity
  8
Ptos_reactivos
100
AcDbCircle
 10
63.94765654856468
 20
220.63427042788382
 30
0.0
 40
0.19167110741282228
  0
CIRCLE
  5
3A3
330
17
100
AcDbEntity
  8
Ptos_reactivos
100
AcDbCircle
 10
55.80255577068506
 20
34.979951457665706
 30
0.0
 40
0.1668902798479312
  0
CIRCLE
  5
3A4
330
17
100
AcDbEntity
  8
Ptos_reactivos
100
AcDbCircle
 10
32.31939656841843
 20
105.43421937978258
 30
0.0
 40
0.21538650031810702
  0
CIRCLE
  5
3A5
330
17
100
AcDbEntity
  8
Ptos_reactivos
100
AcDbCircle
 10
52.490694386289086
 20
188.47340280888773
 30
0.0
 40
0.19898320622034688
  0
CIRCLE
  5
3A6
330
17
100
AcDbEntity
  8
Ptos_reactivos
100
AcDbCircle
 10
20.56160501925517
 20
226.33610194174588
 30
0.0
 40
0.1586721402552922
  0
CIRCLE
  5
3A7
330
17
100
AcDbEntity
  8
Ptos_reactivos
100
AcDbCircle
 10
14.095765005025049
 20
219.56333352148815
 30
0.0
 40
0.24866625328789554
  0
CIRCLE
  5
3A8
330
17
100
AcDbEntity
  8
Ptos_reactivos
100
AcDbCircle
 10
10.232553135540273
 20
20.433025593660748
 30
0.0
 40
0.11224193858490034
  0
CIRCLE
  5
3A9
330
17
100
AcDbEntity
  8
Ptos_reactivos
100
AcDbCircle
 10
69.1023629557588
 20
186.85058282067774
 30
0.0
 40
0.1896709775202764
  0
CIRCLE
  5
3AA
330
17
100
AcDbEntity
  8
Ptos_reactivos
100
AcDbCircle
 10
33.236488163780216
 20
43.49154756348797
 30
0.0
 40
0.08612869771090033
  0
CIRCLE
  5
3AB
330
17
100
AcDbEntity
  8
Ptos_reactivos
100
AcDbCircle
 10
34.51286560797365
 20
75.69358429952909
 30
0.0
 40
0.17423786198336677
  0
CIRCLE
  5
3AC
330
17
100
AcDbEntity
  8
Ptos_reactivos
100
AcDbCircle
 10
40.32677038182197
 20
263.5472242500802
 30
0.0
 40
0.05115224000857182
  0
CIRCLE
  5
3AD
330
17
100
AcDbEntity
  8
Ptos_reactivos
100
AcDbCircle
 10
62.68106689995382
 20
74.04684667857688
 30
0.0
 40
0.10811460968635152
  0
CIRCLE
  5
3AE
330
17
100
AcDbEntity
  8
Ptos_reactivos
100
AcDbCircle
 10
59.67835120224368
 20
267.5534314172984
 30
0.0
 40
0.14999462370551897
  0
CIRCLE
  5
3AF
330
17
100
AcDbEntity
  8
Ptos_reactivos
100
AcDbCircle
 10
13.337596334763829
 20
57.67987309597701
 30
0.0
 40
0.20837429641601324
  0
CIRCLE
  5
3B0
330
17
100
AcDbEntity
  8
Ptos_reactivos
100
AcDbCircle
 10
9.752277172435466
 20
197.69787249301692
 30
0.0
 40
0.21825487910654356
  0
CIRCLE
  5
3B1
330
17
100
AcDbEntity
  8
Ptos_reactivos
100
AcDbCircle
 10
24.33068585532575
 20
8.728421758163659
 30
0.0
 40
0.09900469993878552
  0
CIRCLE
  5
3B2
330
17
100
AcDbEntity
  8
Ptos_reactivos
100
AcDbCircle
 10
71.77287592406469
 20
214.99107203103998
 30
0.0
 40
0.15496311894183118
  0
CIRCLE
  5
3B3
330
17
100
AcDbEntity
  8
Ptos_reactivos
100
AcDbCircle
 10
64.14499958129589
 20
190.90144112873693
 30
0.0
 40
0.07042264614180521
  0
CIRCLE
  5
3B4
330
17
100
AcDbEntity
  8
Ptos_reactivos
100
AcDbCircle
 10
31.500179191045856
 20
49.856061890170245
 30
0.0
 40
0.08032370331389237
  0
CIRCLE
  5
3B5
330
17
100
AcDbEntity
  8
Ptos_reactivos
100
AcDbCircle
 10
45.69023898531148
 20
101.16300318978507
 30
0.0
 40
0.05886162609823562
  0
CIRCLE
  5
3B6
330
17
100
AcDbEntity
  8
Ptos_reactivos
100
AcDbCircle
 10
4.190900687150467
 20
66.67577031328219
 30
0.0
 40
0.24429530524484433
  0
CIRCLE
  5
3B7
330
17
100
AcDbEntity
  8
Ptos_reactivos
100
AcDbCircle
 10
52.3061043607312
 20
36.04247881220742
 30
0.0
 40
0.20519572544362719
  0
CIRCLE
  5
3B8
330
17
100
AcDbEntity
  8
Ptos_reactivos
100
AcDbCircle
 10
27.61220575920197
 20
174.52367838075048
 30
0.0
 40
0.2247183952984479
  0
CIRCLE
  5
3B9
330
17
100
AcDbEntity
  8
Ptos_reactivos
100
AcDbCircle
 10
55.010100585854396
 20
43.017527557529284
 30
0.0
 40
0.10458310913697606
  0
CIRCLE
  5
3BA
330
17
100
AcDbEntity
  8
Ptos_reactivos
100
AcDbCircle
 10
74.54050568494027
 20
254.72510124663378
 30
0.0
 40
0.2287997702622664
  0
CIRCLE
  5
3BB
330
17
100
AcDbEntity
  8
Ptos_reactivos
100
AcDbCircle
 10
31.276582789380456
 20
97.96895141315754
 30
0.0
 40
0.16241710616745458
  0
CIRCLE
  5
3BC
330
17
100
AcDbEntity
  8
Ptos_reactivos
100
AcDbCircle
 10
72.08011388872282
 20
168.77603729855707
 30
0.0
 40
0.13596011745669914
  0
CIRCLE
  5
3BD
330
17
100
AcDbEntity
  8
Ptos_reactivos
100
AcDbCircle
 10
46.46532288691882
 20
4.903510464339147
 30
0.0
 40
0.1360104626206447
  0
CIRCLE
  5
3BE
330
17
100
AcDbEntity
  8
Ptos_reactivos
100
AcDbCircle
 10
5.743653624564643
 20
227.97878831052742
 30
0.0
 40
0.1709426971889092
  0
CIRCLE
  5
3BF
330
17
100
AcDbEntity
  8
Ptos_reactivos
100
AcDbCircle
 10
32.94322337373441
 20
94.66740702448529
 30
0.0
 40
0.13856595265218186
  0
CIRCLE
  5
3C0
330
17
100
AcDbEntity
  8
Ptos_reactivos
100
AcDbCircle
 10
65.54437482036765
 20
96.0275983984713
 30
0.0
 40
0.11005562632448465
  0
CIRCLE
  5
3C1
330
17
100
AcDbEntity
  8
Ptos_reactivos
100
AcDbCircle
 10
39.299922252034406
 20
92.84520135741522
 30
0.0
 40
0.13288038488611142
  0
CIRCLE
  5
3C2
330
17
100
AcDbEntity
  8
Ptos_reactivos
100
AcDbCircle
 10
68.8561850050882
 20
82.84488952826187
 30
0.0
 40
0.13230452954960953
  0
CIRCLE
  5
3C3
330
17
100
AcDbEntity
  8
Ptos_reactivos
100
AcDbCircle
 10
41.21428275040214
 20
126.92152110543292
 30
0.0
 40
0.12789620983659092
  0
CIRCLE
  5
3C4
330
17
100
AcDbEntity
  8
Ptos_reactivos
100
AcDbCircle
 10
5.969786640228766
 20
183.95918610899463
 30
0.0
 40
0.2341800399347868
  0
CIRCLE
  5
3C5
330
17
100
AcDbEntity
  8
Ptos_reactivos
100
AcDbCircle
 10
5.623200764187325
 20
175.29880001591224
 30
0.0
 40
0.23990836448709446
  0
CIRCLE
  5
3C6
330
17
100
AcDbEntity
  8
Ptos_reactivos
100
AcDbCircle
 10
33.86271244956093
 20
226.43997006361104
 30
0.0
 40
0.2478509244110157
  0
ENDSEC
  0
SECTION
  2
OBJECTS
  0
DICTIONARY
  5
A
330
0
100
AcDbDictionary
280
0
281
1
  3
ACAD_COLOR
350
B
  3
ACAD_GROUP
350
C
  3
ACAD_LAYOUT
350
D
  3
ACAD_MATERIAL
350
E
  3
ACAD_MLEADERSTYLE
350
F
  3
ACAD_MLINESTYLE
350
10
  3
ACAD_PLOTSETTINGS
350
11
  3
ACAD_PLOTSTYLENAME
350
12
  3
ACAD_SCALELIST
350
14
  3
ACAD_TABLESTYLE
350
15
  3
ACAD_VISUALSTYLE
350
16
  3
EZDXF_META
350
2D
  0
DICTIONARY
  5
B
330
A
100
AcDbDictionary
280
0
281
1
  0
DICTIONARY
  5
C
330
A
100
AcDbDictionary
280
0
281
1
  0
DICTIONARY
  5
D
330
A
100
AcDbDictionary
280
0
281
1
  3
Model
350
1A
  3
Layout1
350
1E
  0
DICTIONARY
  5
E
330
A
100
AcDbDictionary
280
0
281
1
  3
ByBlock
350
1F
  3
ByLayer
350
20
  3
Global
350
21
  0
DICTIONARY
  5
F
330
A
100
AcDbDictionary
280
0
281
1
  3
Standard
350
2C
  0
DICTIONARY
  5
10
330
A
100
AcDbDictionary
280
0
281
1
  3
Standard
350
22
  0
DICTIONARY
  5
11
330
A
100
AcDbDictionary
280
0
281
1
  0
ACDBDICTIONARYWDFLT
  5
12
330
A
100
AcDbDictionary
280
0
281
1
  3
Normal
350
13
100
AcDbDictionaryWithDefault
340
13
  0
ACDBPLACEHOLDER
  5
13
330
12
  0
DICTIONARY
  5
14
330
A
100
AcDbDictionary
280
0
281
1
  0
DICTIONARY
  5
15
330
A
100
AcDbDictionary
280
0
281
1
  0
DICTIONARY
  5
16
330
A
100
AcDbDictionary
280
0
281
1
  0
LAYOUT
  5
1A
330
D
100
AcDbPlotSettings
  1

  2
Adobe PDF
  4
A3
  6

 40
7.5
 41
20.0
 42
7.5
 43
20.0
 44
420.0
 45
297.0
 46
0.0
 47
0.0
 48
0.0
 49
0.0
140
0.0
141
0.0
142
1.0
143
1.0
 70
1024
 72
1
 73
0
 74
5
  7

 75
16
 76
0
 77
2
 78
300
147
1.0
148
0.0
149
0.0
100
AcDbLayout
  1
Model
 70
1
 71
0
 10
0.0
 20
0.0
 11
420.0
 21
297.0
 12
0.0
 22
0.0
 32
0.0
 14
1e+20
 24
1e+20
 34
1e+20
 15
-1e+20
 25
-1e+20
 35
-1e+20
146
0.0
 13
0.0
 23
0.0
 33
0.0
 16
1.0
 26
0.0
 36
0.0
 17
0.0
 27
1.0
 37
0.0
 76
1
330
17
  0
LAYOUT
  5
1E
330
D
100
AcDbPlotSettings
  1

  2
Adobe PDF
  4
A3
  6

 40
7.5
 41
20.0
 42
7.5
 43
20.0
 44
420.0
 45
297.0
 46
0.0
 47
0.0
 48
0.0
 49
0.0
140
0.0
141
0.0
142
1.0
143
1.0
 70
0
 72
1
 73
0
 74
5
  7

 75
16
 76
0
 77
2
 78
300
147
1.0
148
0.0
149
0.0
100
AcDbLayout
  1
Layout1
 70
1
 71
1
 10
0.0
 20
0.0
 11
420.0
 21
297.0
 12
0.0
 22
0.0
 32
0.0
 14
1e+20
 24
1e+20
 34
1e+20
 15
-1e+20
 25
-1e+20
 35
-1e+20
146
0.0
 13
0.0
 23
0.0
 33
0.0
 16
1.0
 26
0.0
 36
0.0
 17
0.0
 27
1.0
 37
0.0
 76
1
330
1B
  0
MATERIAL
  5
1F
102
{ACAD_REACTORS
330
E
102
}
330
E
100
AcDbMaterial
  1
ByBlock
  2

 70
0
 40
1.0
 71
1
 41
1.0
 91
-1023410177
 42
1.0
 72
1
  3

 73
1
 74
1
 75
1
 44
0.5
 73
0
 45
1.0
 46
1.0
 77
1
  4

 78
1
 79
1
170
1
 48
1.0
171
1
  6

172
1
173
1
174
1
140
1.0
141
1.0
175
1
  7

176
1
177
1
178
1
143
1.0
179
1
  8

270
1
271
1
272
1
145
1.0
146
1.0
273
1
  9

274
1
275
1
276
1
 42
1.0
 72
1
  3

 73
1
 74
1
 75
1
 94
63
  0
MATERIAL
  5
20
102
{ACAD_REACTORS
330
E
102
}
330
E
100
AcDbMaterial
  1
ByLayer
  2

 70
0
 40
1.0
 71
1
 41
1.0
 91
-1023410177
 42
1.0
 72
1
  3

 73
1
 74
1
 75
1
 44
0.5
 73
0
 45
1.0
 46
1.0
 77
1
  4

 78
1
 79
1
170
1
 48
1.0
171
1
  6

172
1
173
1
174
1
140
1.0
141
1.0
175
1
  7

176
1
177
1
178
1
143
1.0
179
1
  8

270
1
271
1
272
1
145
1.0
146
1.0
273
1
  9

274
1
275
1
276
1
 42
1.0
 72
1
  3

 73
1
 74
1
 75
1
 94
63
  0
MATERIAL
  5
21
102
{ACAD_REACTORS
330
E
102
}
330
E
100
AcDbMaterial
  1
Global
  2

 70
0
 40
1.0
 71
1
 41
1.0
 91
-1023410177
 42
1.0
 72
1
  3

 73
1
 74
1
 75
1
 44
0.5
 73
0
 45
1.0
 46
1.0
 77
1
  4

 78
1
 79
1
170
1
 48
1.0
171
1
  6

172
1
173
1
174
1
140
1.0
141
1.0
175
1
  7

176
1
177
1
178
1
143
1.0
179
1
  8

270
1
271
1
272
1
145
1.0
146
1.0
273
1
  9

274
1
275
1
276
1
 42
1.0
 72
1
  3

 73
1
 74
1
 75
1
 94
63
  0
MLINESTYLE
  5
22
102
{ACAD_REACTORS
330
10
102
}
330
10
100
AcDbMlineStyle
  2
Standard
 70
0
  3

 62
256
 51
90.0
 52
90.0
 71
2
 49
0.5
 62
256
  6
BYLAYER
 49
-0.5
 62
256
  6
BYLAYER
  0
MLEADERSTYLE
  5
2C
102
{ACAD_REACTORS
330
F
102
}
330
F
100
AcDbMLeaderStyle
179
2
170
2
171
1
172
0
 90
2
 40
0.0
 41
0.0
173
1
 91
-1056964608
 92
-2
290
1
 42
2.0
291
1
 43
8.0
  3
Standard
 44
4.0
300

342
29
174
1
175
1
176
0
178
1
 93
-1056964608
 45
4.0
292
0
297
0
 46
4.0
 94
-1056964608
 47
1.0
 49
1.0
140
1.0
294
1
141
0.0
177
0
142
1.0
295
0
296
0
143
3.75
271
0
272
9
273
9
  0
DICTIONARY
  5
2D
330
A
100
AcDbDictionary
281
1
  3
CREATED_BY_EZDXF
350
2E
  3
WRITTEN_BY_EZDXF
350
3C9
  0
DICTIONARYVAR
  5
2E
330
2D
100
DictionaryVariables
280
0
  1
1.0.3 @ 2024-09-13T09:56:11.675514+00:00
  0
DICTIONARYVAR
  5
3C9
330
2D
100
DictionaryVariables
280
0
  1
1.0.3 @ 2024-09-13T09:56:11.708693+00:00
  0
ENDSEC
  0
EOF
